OxygenSans-Medium.ufo
<glyph name="exclam" format="1">
  <advance width="587.15"/>
  <unicode hex="0021"/>
  <outline>
    <contour>
      <point x="294.75" y="-10.6" type="curve" smooth="yes"/>
      <point x="377.25" y="-10.6"/>
      <point x="423.9" y="51.4"/>
      <point x="423.9" y="117.65" type="curve" smooth="yes"/>
      <point x="423.9" y="183.55"/>
      <point x="377.25" y="246.0"/>
      <point x="294.75" y="246.0" type="curve" smooth="yes"/>
      <point x="212.15" y="246.0"/>
      <point x="165.95" y="183.55"/>
      <point x="165.95" y="117.65" type="curve" smooth="yes"/>
      <point x="165.95" y="52.3"/>
      <point x="212.15" y="-10.6"/>
    </contour>
    <contour>
      <point x="255.0" y="425.5" type="line"/>
      <point x="339.7" y="425.5" type="line"/>
      <point x="394.75" y="1298.5" type="line"/>
      <point x="394.75" y="1455.85" type="line"/>
      <point x="193.3" y="1455.85" type="line"/>
      <point x="193.3" y="1298.5" type="line"/>
    </contour>
  </outline>
</glyph>
<glyph name="quotedbl" format="1">
  <advance width="684.6"/>
  <unicode hex="0022"/>
  <outline>
    <contour>
      <point x="451.8" y="962.6" type="line"/>
      <point x="565.95" y="962.6" type="line"/>
      <point x="594.95" y="1451.05" type="line"/>
      <point x="418.25" y="1451.05" type="line"/>
    </contour>
    <contour>
      <point x="150.6" y="962.6" type="line"/>
      <point x="264.75" y="962.6" type="line"/>
      <point x="293.3" y="1451.05" type="line"/>
      <point x="117.05" y="1451.05" type="line"/>
    </contour>
  </outline>
</glyph>
<glyph name="numbersign" format="1">
  <advance width="1199.05"/>
  <unicode hex="0023"/>
  <outline>
    <contour>
      <point x="705.65" y="529.85" type="line"/>
      <point x="467.75" y="529.85" type="line"/>
      <point x="547.3" y="937.5" type="line"/>
      <point x="784.65" y="937.5" type="line"/>
    </contour>
    <contour>
      <point x="601.35" y="-12.6" type="line"/>
      <point x="730.15" y="-12.6" type="line"/>
      <point x="815.5" y="427.8" type="line"/>
      <point x="999.45" y="427.8" type="line"/>
      <point x="1015.2" y="529.85" type="line"/>
      <point x="836.0" y="529.85" type="line"/>
      <point x="915.0" y="937.5" type="line"/>
      <point x="1085.8" y="937.5" type="line"/>
      <point x="1101.55" y="1039.55" type="line"/>
      <point x="934.4" y="1039.55" type="line"/>
      <point x="1008.15" y="1419.55" type="line"/>
      <point x="878.25" y="1419.55" type="line"/>
      <point x="804.6" y="1039.55" type="line"/>
      <point x="566.7" y="1039.55" type="line"/>
      <point x="640.45" y="1419.55" type="line"/>
      <point x="510.0" y="1419.55" type="line"/>
      <point x="436.35" y="1039.55" type="line"/>
      <point x="252.4" y="1039.55" type="line"/>
      <point x="238.0" y="937.5" type="line"/>
      <point x="416.95" y="937.5" type="line"/>
      <point x="338.4" y="529.85" type="line"/>
      <point x="166.05" y="529.85" type="line"/>
      <point x="151.65" y="427.8" type="line"/>
      <point x="318.45" y="427.8" type="line"/>
      <point x="233.65" y="-12.6" type="line"/>
      <point x="362.45" y="-12.6" type="line"/>
      <point x="447.8" y="427.8" type="line"/>
      <point x="685.7" y="427.8" type="line"/>
    </contour>
  </outline>
</glyph>
<glyph name="percent" format="1">
  <advance width="1770.85"/>
  <unicode hex="0025"/>
  <outline>
    <contour>
      <point x="1405.65" y="-13.55" type="curve" smooth="yes"/>
      <point x="1178.45" y="-13.55"/>
      <point x="1062.85" y="148.8"/>
      <point x="1062.85" y="357.6" type="curve" smooth="yes"/>
      <point x="1062.85" y="567.4"/>
      <point x="1181.9" y="727.75"/>
      <point x="1405.65" y="727.75" type="curve" smooth="yes"/>
      <point x="1633.85" y="727.75"/>
      <point x="1750.0" y="570.4"/>
      <point x="1750.0" y="357.6" type="curve" smooth="yes"/>
      <point x="1750.0" y="148.8"/>
      <point x="1630.85" y="-13.55"/>
    </contour>
    <contour>
      <point x="1406.55" y="94.25" type="curve" smooth="yes"/>
      <point x="1553.85" y="94.25"/>
      <point x="1617.15" y="210.95"/>
      <point x="1617.15" y="359.15" type="curve" smooth="yes"/>
      <point x="1617.15" y="512.25"/>
      <point x="1552.85" y="621.05"/>
      <point x="1406.55" y="621.05" type="curve" smooth="yes"/>
      <point x="1258.8" y="621.05"/>
      <point x="1193.95" y="506.8"/>
      <point x="1193.95" y="359.15" type="curve" smooth="yes"/>
      <point x="1193.95" y="207.05"/>
      <point x="1259.25" y="94.25"/>
    </contour>
    <contour>
      <point x="412.4" y="810.75" type="curve" smooth="yes"/>
      <point x="559.7" y="810.75"/>
      <point x="623.0" y="927.45"/>
      <point x="623.0" y="1075.65" type="curve" smooth="yes"/>
      <point x="623.0" y="1228.75"/>
      <point x="558.7" y="1337.55"/>
      <point x="412.4" y="1337.55" type="curve" smooth="yes"/>
      <point x="264.65" y="1337.55"/>
      <point x="199.8" y="1223.3"/>
      <point x="199.8" y="1075.65" type="curve" smooth="yes"/>
      <point x="199.8" y="923.55"/>
      <point x="265.1" y="810.75"/>
    </contour>
    <contour>
      <point x="411.5" y="702.95" type="curve" smooth="yes"/>
      <point x="184.3" y="702.95"/>
      <point x="68.7" y="865.3"/>
      <point x="68.7" y="1074.1" type="curve" smooth="yes"/>
      <point x="68.7" y="1283.9"/>
      <point x="187.75" y="1444.25"/>
      <point x="411.5" y="1444.25" type="curve" smooth="yes"/>
      <point x="639.7" y="1444.25"/>
      <point x="755.85" y="1286.9"/>
      <point x="755.85" y="1074.1" type="curve" smooth="yes"/>
      <point x="755.85" y="865.3"/>
      <point x="636.7" y="702.95"/>
    </contour>
    <contour>
      <point x="420.55" y="0.0" type="line"/>
      <point x="1248.25" y="1433.05" type="line"/>
      <point x="1389.4" y="1433.05" type="line"/>
      <point x="570.15" y="0.0" type="line"/>
    </contour>
  </outline>
</glyph>
<glyph name="ampersand" format="1">
  <advance width="1405.8"/>
  <unicode hex="0026"/>
  <outline>
    <contour>
      <point x="637.55" y="-17.9" type="curve" smooth="yes"/>
      <point x="822.5" y="-17.9"/>
      <point x="908.15" y="18.0"/>
      <point x="1032.3" y="110.15" type="curve"/>
      <point x="1161.9" y="-16.7" type="line"/>
      <point x="1336.6" y="52.4" type="line"/>
      <point x="1161.9" y="231.0" type="line"/>
      <point x="1227.5" y="300.45"/>
      <point x="1301.45" y="414.95"/>
      <point x="1340.3" y="499.3" type="curve"/>
      <point x="1203.8" y="588.55" type="line"/>
      <point x="1168.25" y="512.55"/>
      <point x="1103.65" y="406.35"/>
      <point x="1051.7" y="349.9" type="curve"/>
      <point x="681.1" y="761.3" type="line"/>
      <point x="856.25" y="848.9"/>
      <point x="1012.5" y="979.2"/>
      <point x="1012.5" y="1150.9" type="curve" smooth="yes"/>
      <point x="1012.5" y="1354.85"/>
      <point x="845.25" y="1451.5"/>
      <point x="652.6" y="1451.5" type="curve" smooth="yes"/>
      <point x="442.35" y="1451.5"/>
      <point x="270.85" y="1331.95"/>
      <point x="270.85" y="1131.55" type="curve" smooth="yes"/>
      <point x="270.85" y="1006.4"/>
      <point x="331.75" y="893.8"/>
      <point x="425.7" y="791.0" type="curve"/>
      <point x="267.85" y="700.75"/>
      <point x="140.3" y="588.2"/>
      <point x="140.3" y="379.5" type="curve" smooth="yes"/>
      <point x="140.3" y="120.35"/>
      <point x="339.35" y="-17.9"/>
    </contour>
    <contour>
      <point x="646.8" y="136.95" type="curve" smooth="yes"/>
      <point x="460.95" y="136.95"/>
      <point x="334.0" y="222.05"/>
      <point x="334.0" y="388.6" type="curve" smooth="yes"/>
      <point x="334.0" y="516.55"/>
      <point x="410.7" y="611.15"/>
      <point x="523.15" y="676.35" type="curve"/>
      <point x="924.5" y="229.65" type="line"/>
      <point x="847.2" y="167.2"/>
      <point x="769.8" y="136.95"/>
    </contour>
    <contour>
      <point x="587.0" y="871.55" type="curve"/>
      <point x="492.8" y="963.0"/>
      <point x="453.4" y="1054.0"/>
      <point x="453.4" y="1145.8" type="curve" smooth="yes"/>
      <point x="453.4" y="1252.75"/>
      <point x="545.15" y="1310.4"/>
      <point x="656.45" y="1310.4" type="curve" smooth="yes"/>
      <point x="768.05" y="1310.4"/>
      <point x="831.1" y="1255.55"/>
      <point x="831.1" y="1149.1" type="curve" smooth="yes"/>
      <point x="831.1" y="1030.7"/>
      <point x="710.4" y="932.8"/>
    </contour>
  </outline>
</glyph>
<glyph name="quotesingle" format="1">
  <advance width="403.3"/>
  <unicode hex="0027"/>
  <outline>
    <contour>
      <point x="148.45" y="923.15" type="line"/>
      <point x="269.85" y="923.15" type="line"/>
      <point x="290.45" y="1426.45" type="line"/>
      <point x="125.35" y="1426.45" type="line"/>
    </contour>
  </outline>
</glyph>
<glyph name="parenleft" format="1">
  <advance width="709.3"/>
  <unicode hex="0028"/>
  <outline>
    <contour>
      <point x="451.5" y="-199.65" type="curve"/>
      <point x="637.45" y="-199.65" type="line"/>
      <point x="467.7" y="73.8"/>
      <point x="382.3" y="368.35"/>
      <point x="382.3" y="683.4" type="curve" smooth="yes"/>
      <point x="382.3" y="996.05"/>
      <point x="485.8" y="1296.25"/>
      <point x="638.9" y="1528.6" type="curve"/>
      <point x="450.05" y="1528.6" type="line"/>
      <point x="291.7" y="1304.5"/>
      <point x="187.8" y="1006.5"/>
      <point x="187.8" y="680.05" type="curve" smooth="yes"/>
      <point x="187.8" y="335.0"/>
      <point x="288.7" y="28.25"/>
    </contour>
  </outline>
</glyph>
<glyph name="parenright" format="1">
  <advance width="715.35"/>
  <unicode hex="0029"/>
  <outline>
    <contour>
      <point x="105.95" y="-199.65" type="curve"/>
      <point x="293.45" y="-199.65" type="line"/>
      <point x="449.1" y="12.3"/>
      <point x="556.15" y="343.25"/>
      <point x="556.15" y="689.95" type="curve" smooth="yes"/>
      <point x="556.15" y="1014.75"/>
      <point x="459.3" y="1288.55"/>
      <point x="293.8" y="1528.6" type="curve"/>
      <point x="106.05" y="1528.6" type="line"/>
      <point x="278.95" y="1248.4"/>
      <point x="361.65" y="991.65"/>
      <point x="361.65" y="690.55" type="curve" smooth="yes"/>
      <point x="361.65" y="363.95"/>
      <point x="255.9" y="25.95"/>
    </contour>
  </outline>
</glyph>
<glyph name="asterisk" format="1">
  <advance width="1142.6"/>
  <unicode hex="002A"/>
  <outline>
    <contour>
      <point x="390.45" y="537.6" type="line"/>
      <point x="227.6" y="634.15" type="line"/>
      <point x="463.2" y="946.3" type="line"/>
      <point x="119.25" y="1024.5" type="line"/>
      <point x="170.95" y="1203.95" type="line"/>
      <point x="509.7" y="1061.7" type="line"/>
      <point x="475.45" y="1450.15" type="line"/>
      <point x="665.6" y="1450.15" type="line"/>
      <point x="631.0" y="1061.7" type="line"/>
      <point x="972.3" y="1203.95" type="line"/>
      <point x="1023.8" y="1024.5" type="line"/>
      <point x="675.15" y="946.3" type="line"/>
      <point x="715.15" y="893.6"/>
      <point x="852.35" y="714.7"/>
      <point x="915.35" y="634.15" type="curve"/>
      <point x="876.65" y="609.85"/>
      <point x="793.05" y="561.25"/>
      <point x="754.35" y="536.95" type="curve"/>
      <point x="567.05" y="873.75" type="line"/>
    </contour>
  </outline>
</glyph>
<glyph name="plus" format="1">
  <advance width="1079.1"/>
  <unicode hex="002B"/>
  <outline>
    <contour>
      <point x="483.75" y="158.95" type="line"/>
      <point x="636.8" y="158.95" type="line"/>
      <point x="636.8" y="555.8" type="line"/>
      <point x="1012.2" y="555.8" type="line"/>
      <point x="1012.2" y="700.0" type="line"/>
      <point x="637.35" y="700.0" type="line"/>
      <point x="637.35" y="1092.35" type="line"/>
      <point x="484.85" y="1092.35" type="line"/>
      <point x="484.85" y="700.0" type="line"/>
      <point x="104.75" y="700.0" type="line"/>
      <point x="104.75" y="555.8" type="line"/>
      <point x="483.75" y="555.8" type="line"/>
    </contour>
  </outline>
</glyph>
<glyph name="comma" format="1">
  <advance width="497.85"/>
  <unicode hex="002C"/>
  <outline>
    <contour>
      <point x="128.2" y="-263.0" type="curve"/>
      <point x="257.05" y="-263.0" type="line"/>
      <point x="257.05" y="-263.0"/>
      <point x="379.6" y="169.4"/>
      <point x="379.6" y="187.85" type="curve"/>
      <point x="382.9" y="233.6" type="line"/>
      <point x="187.45" y="233.6" type="line"/>
      <point x="187.45" y="186.8"/>
      <point x="128.2" y="-263.0"/>
    </contour>
  </outline>
</glyph>
<glyph name="hyphen" format="1">
  <advance width="674.65"/>
  <unicode hex="002D"/>
  <outline>
    <contour>
      <point x="86.95" y="466.5" type="line"/>
      <point x="577.35" y="466.5" type="line"/>
      <point x="577.35" y="617.9" type="line"/>
      <point x="86.95" y="617.9" type="line"/>
    </contour>
  </outline>
</glyph>
<glyph name="period" format="1">
  <advance width="510.3"/>
  <unicode hex="002E"/>
  <outline>
    <contour>
      <point x="269.8" y="-6.0" type="curve" smooth="yes"/>
      <point x="348.25" y="-6.0"/>
      <point x="393.55" y="54.1"/>
      <point x="393.55" y="118.1" type="curve" smooth="yes"/>
      <point x="393.55" y="182.65"/>
      <point x="348.25" y="243.85"/>
      <point x="269.8" y="243.85" type="curve" smooth="yes"/>
      <point x="189.9" y="243.85"/>
      <point x="144.5" y="182.65"/>
      <point x="144.5" y="118.1" type="curve" smooth="yes"/>
      <point x="144.5" y="54.0"/>
      <point x="191.35" y="-6.0"/>
    </contour>
  </outline>
</glyph>
<glyph name="slash" format="1">
  <advance width="933.65"/>
  <unicode hex="002F"/>
  <outline>
    <contour>
      <point x="85.1" y="-175.25" type="line"/>
      <point x="240.4" y="-175.25" type="line"/>
      <point x="880.65" y="1413.7" type="line"/>
      <point x="722.25" y="1413.7" type="line"/>
    </contour>
  </outline>
</glyph>
<glyph name="zero" format="1">
  <advance width="1218.45"/>
  <unicode hex="0030"/>
  <outline>
    <contour>
      <point x="628.6" y="137.95" type="curve" smooth="yes"/>
      <point x="429.65" y="137.95"/>
      <point x="329.85" y="357.9"/>
      <point x="329.85" y="718.9" type="curve"/>
      <point x="330.05" y="1065.0"/>
      <point x="429.85" y="1286.1"/>
      <point x="628.6" y="1286.1" type="curve" smooth="yes"/>
      <point x="827.55" y="1286.1"/>
      <point x="921.4" y="1082.35"/>
      <point x="921.4" y="718.15" type="curve" smooth="yes"/>
      <point x="921.4" y="357.25"/>
      <point x="827.55" y="137.95"/>
    </contour>
    <contour>
      <point x="628.6" y="-25.3" type="curve" smooth="yes"/>
      <point x="987.25" y="-25.3"/>
      <point x="1125.3" y="301.45"/>
      <point x="1125.3" y="712.05" type="curve" smooth="yes"/>
      <point x="1125.3" y="1139.35"/>
      <point x="975.7" y="1449.7"/>
      <point x="628.6" y="1449.7" type="curve" smooth="yes"/>
      <point x="282.15" y="1449.7"/>
      <point x="126.15" y="1140.1"/>
      <point x="126.15" y="712.05" type="curve" smooth="yes"/>
      <point x="126.15" y="301.45"/>
      <point x="270.5" y="-25.3"/>
    </contour>
  </outline>
</glyph>
<glyph name="one" format="1">
  <advance width="1203.5"/>
  <unicode hex="0031"/>
  <outline>
    <contour>
      <point x="236.35" y="0.0" type="line"/>
      <point x="1079.0" y="0.0" type="line"/>
      <point x="1079.0" y="157.8" type="line"/>
      <point x="702.35" y="157.8" type="line"/>
      <point x="777.4" y="82.2" type="line"/>
      <point x="777.4" y="1433.05" type="line"/>
      <point x="595.8" y="1433.05" type="line"/>
      <point x="517.85" y="1377.65"/>
      <point x="357.75" y="1325.4"/>
      <point x="260.4" y="1302.2" type="curve"/>
      <point x="260.4" y="1141.6" type="line"/>
      <point x="375.35" y="1158.3"/>
      <point x="548.15" y="1215.3"/>
      <point x="617.5" y="1274.45" type="curve"/>
      <point x="574.55" y="1301.9" type="line"/>
      <point x="574.55" y="83.1" type="line"/>
      <point x="648.7" y="157.8" type="line"/>
      <point x="236.35" y="157.8" type="line"/>
    </contour>
  </outline>
</glyph>
<glyph name="two" format="1">
  <advance width="1203.5"/>
  <unicode hex="0032"/>
  <outline>
    <contour>
      <point x="171.45" y="0.0" type="line"/>
      <point x="1012.65" y="0.0" type="line"/>
      <point x="1024.8" y="157.8" type="line"/>
      <point x="297.4" y="157.8" type="line"/>
      <point x="327.2" y="89.7" type="line"/>
      <point x="765.95" y="553.2" type="line"/>
      <point x="948.25" y="746.0"/>
      <point x="1023.8" y="863.0"/>
      <point x="1023.8" y="1053.85" type="curve" smooth="yes"/>
      <point x="1023.8" y="1356.45"/>
      <point x="770.7" y="1450.95"/>
      <point x="580.45" y="1450.95" type="curve" smooth="yes"/>
      <point x="424.65" y="1450.95"/>
      <point x="265.0" y="1397.6"/>
      <point x="170.75" y="1330.5" type="curve"/>
      <point x="230.85" y="1175.85" type="line"/>
      <point x="313.55" y="1230.6"/>
      <point x="444.0" y="1275.2"/>
      <point x="561.75" y="1275.2" type="curve" smooth="yes"/>
      <point x="677.65" y="1275.2"/>
      <point x="822.0" y="1228.85"/>
      <point x="822.0" y="1039.15" type="curve" smooth="yes"/>
      <point x="822.0" y="902.0"/>
      <point x="749.9" y="806.2"/>
      <point x="641.15" y="690.15" type="curve" smooth="yes"/>
      <point x="153.3" y="161.65" type="line"/>
    </contour>
  </outline>
</glyph>
<glyph name="three" format="1">
  <advance width="1203.5"/>
  <unicode hex="0033"/>
  <outline>
    <contour>
      <point x="580.5" y="-22.85" type="curve" smooth="yes"/>
      <point x="862.9" y="-22.85"/>
      <point x="1070.4" y="124.25"/>
      <point x="1070.4" y="388.15" type="curve" smooth="yes"/>
      <point x="1070.4" y="581.3"/>
      <point x="958.85" y="717.65"/>
      <point x="786.95" y="757.8" type="curve"/>
      <point x="941.8" y="804.8"/>
      <point x="1033.4" y="907.6"/>
      <point x="1033.4" y="1083.1" type="curve" smooth="yes"/>
      <point x="1033.4" y="1311.35"/>
      <point x="827.7" y="1451.5"/>
      <point x="574.55" y="1451.5" type="curve" smooth="yes"/>
      <point x="415.05" y="1451.5"/>
      <point x="282.3" y="1413.6"/>
      <point x="169.45" y="1344.0" type="curve"/>
      <point x="231.25" y="1196.95" type="line"/>
      <point x="320.5" y="1253.7"/>
      <point x="441.45" y="1290.6"/>
      <point x="562.35" y="1290.6" type="curve" smooth="yes"/>
      <point x="723.45" y="1290.6"/>
      <point x="833.4" y="1205.25"/>
      <point x="833.4" y="1069.4" type="curve" smooth="yes"/>
      <point x="833.4" y="872.1"/>
      <point x="650.6" y="837.25"/>
      <point x="449.2" y="832.65" type="curve"/>
      <point x="398.35" y="832.65" type="line"/>
      <point x="398.35" y="671.7" type="line"/>
      <point x="448.3" y="671.7" type="line"/>
      <point x="687.85" y="666.7"/>
      <point x="864.25" y="624.25"/>
      <point x="864.25" y="393.05" type="curve" smooth="yes"/>
      <point x="864.25" y="223.25"/>
      <point x="740.0" y="145.75"/>
      <point x="562.25" y="145.75" type="curve" smooth="yes"/>
      <point x="441.8" y="145.75"/>
      <point x="322.35" y="185.2"/>
      <point x="237.65" y="236.65" type="curve"/>
      <point x="173.3" y="93.6" type="line"/>
      <point x="268.7" y="31.2"/>
      <point x="413.3" y="-22.85"/>
    </contour>
  </outline>
</glyph>
<glyph name="four" format="1">
  <advance width="1203.5"/>
  <unicode hex="0034"/>
  <outline>
    <contour>
      <point x="753.9" y="0.0" type="line"/>
      <point x="950.15" y="0.0" type="line"/>
      <point x="950.15" y="347.45" type="line"/>
      <point x="1113.25" y="347.45" type="line"/>
      <point x="1126.0" y="505.45" type="line"/>
      <point x="950.15" y="505.45" type="line"/>
      <point x="950.15" y="1433.05" type="line"/>
      <point x="723.65" y="1433.05" type="line"/>
      <point x="108.05" y="510.7" type="line"/>
      <point x="108.05" y="347.45" type="line"/>
      <point x="753.9" y="347.45" type="line"/>
    </contour>
    <contour>
      <point x="311.2" y="504.15" type="line"/>
      <point x="753.45" y="1195.2" type="line"/>
      <point x="753.45" y="504.15" type="line"/>
    </contour>
  </outline>
</glyph>
<glyph name="five" format="1">
  <advance width="1203.5"/>
  <unicode hex="0035"/>
  <outline>
    <contour>
      <point x="573.25" y="-19.45" type="curve" smooth="yes"/>
      <point x="876.05" y="-19.45"/>
      <point x="1086.25" y="157.7"/>
      <point x="1086.25" y="455.3" type="curve" smooth="yes"/>
      <point x="1086.25" y="705.35"/>
      <point x="925.05" y="898.45"/>
      <point x="658.8" y="898.45" type="curve" smooth="yes"/>
      <point x="542.05" y="898.45"/>
      <point x="462.1" y="863.8"/>
      <point x="408.1" y="826.85" type="curve"/>
      <point x="439.4" y="1270.4" type="line"/>
      <point x="1013.55" y="1270.4" type="line"/>
      <point x="1028.4" y="1433.05" type="line"/>
      <point x="259.15" y="1433.05" type="line"/>
      <point x="215.75" y="656.9" type="line"/>
      <point x="370.95" y="635.35" type="line"/>
      <point x="433.05" y="701.9"/>
      <point x="524.25" y="738.75"/>
      <point x="612.25" y="738.75" type="curve" smooth="yes"/>
      <point x="792.15" y="738.75"/>
      <point x="879.0" y="616.45"/>
      <point x="879.0" y="454.7" type="curve" smooth="yes"/>
      <point x="879.0" y="261.1"/>
      <point x="751.2" y="143.55"/>
      <point x="552.45" y="143.55" type="curve" smooth="yes"/>
      <point x="415.05" y="143.55"/>
      <point x="282.5" y="212.65"/>
      <point x="224.2" y="249.85" type="curve"/>
      <point x="154.6" y="105.2" type="line"/>
      <point x="222.6" y="60.45"/>
      <point x="394.5" y="-19.45"/>
    </contour>
  </outline>
</glyph>
<glyph name="six" format="1">
  <advance width="1203.5"/>
  <unicode hex="0036"/>
  <outline>
    <contour>
      <point x="625.55" y="-19.0" type="curve" smooth="yes"/>
      <point x="914.4" y="-19.0"/>
      <point x="1110.85" y="172.35"/>
      <point x="1110.85" y="432.15" type="curve" smooth="yes"/>
      <point x="1110.85" y="692.35"/>
      <point x="906.05" y="866.5"/>
      <point x="660.9" y="866.5" type="curve" smooth="yes"/>
      <point x="476.85" y="866.5"/>
      <point x="365.5" y="722.5"/>
      <point x="348.8" y="707.95" type="curve"/>
      <point x="383.95" y="671.55" type="line"/>
      <point x="383.95" y="671.55"/>
      <point x="543.1" y="880.3"/>
      <point x="598.45" y="961.75" type="curve"/>
      <point x="930.95" y="1433.05" type="line"/>
      <point x="694.45" y="1433.05" type="line"/>
      <point x="347.85" y="941.0" type="line"/>
      <point x="226.85" y="770.15"/>
      <point x="138.85" y="639.25"/>
      <point x="138.85" y="436.25" type="curve" smooth="yes"/>
      <point x="138.85" y="183.8"/>
      <point x="323.0" y="-19.0"/>
    </contour>
    <contour>
      <point x="619.15" y="138.6" type="curve" smooth="yes"/>
      <point x="433.1" y="138.6"/>
      <point x="339.05" y="265.3"/>
      <point x="339.05" y="425.25" type="curve" smooth="yes"/>
      <point x="339.05" y="630.4"/>
      <point x="478.85" y="713.05"/>
      <point x="624.4" y="713.05" type="curve" smooth="yes"/>
      <point x="810.95" y="713.05"/>
      <point x="908.55" y="597.15"/>
      <point x="908.55" y="429.95" type="curve" smooth="yes"/>
      <point x="908.55" y="268.65"/>
      <point x="806.6" y="138.6"/>
    </contour>
  </outline>
</glyph>
<glyph name="seven" format="1">
  <advance width="1203.5"/>
  <unicode hex="0037"/>
  <outline>
    <contour>
      <point x="345.55" y="0.45" type="line"/>
      <point x="557.3" y="0.45" type="line"/>
      <point x="1043.75" y="1290.8" type="line"/>
      <point x="1043.75" y="1433.05" type="line"/>
      <point x="180.1" y="1433.05" type="line"/>
      <point x="192.7" y="1265.35" type="line"/>
      <point x="820.85" y="1265.35" type="line"/>
    </contour>
  </outline>
</glyph>
<glyph name="eight" format="1">
  <advance width="1203.5"/>
  <unicode hex="0038"/>
  <outline>
    <contour>
      <point x="603.4" y="-19.0" type="curve" smooth="yes"/>
      <point x="861.5" y="-19.0"/>
      <point x="1083.95" y="109.15"/>
      <point x="1083.95" y="364.1" type="curve" smooth="yes"/>
      <point x="1083.95" y="545.1"/>
      <point x="971.25" y="692.75"/>
      <point x="808.25" y="754.9" type="curve"/>
      <point x="950.75" y="814.85"/>
      <point x="1054.9" y="922.6"/>
      <point x="1054.9" y="1092.1" type="curve" smooth="yes"/>
      <point x="1054.9" y="1325.3"/>
      <point x="857.55" y="1451.5"/>
      <point x="603.3" y="1451.5" type="curve" smooth="yes"/>
      <point x="349.25" y="1451.5"/>
      <point x="148.8" y="1325.3"/>
      <point x="148.8" y="1092.1" type="curve" smooth="yes"/>
      <point x="148.8" y="921.3"/>
      <point x="261.75" y="808.35"/>
      <point x="403.05" y="753.55" type="curve"/>
      <point x="231.6" y="687.0"/>
      <point x="119.55" y="555.2"/>
      <point x="119.55" y="364.65" type="curve" smooth="yes"/>
      <point x="119.55" y="109.8"/>
      <point x="345.55" y="-19.0"/>
    </contour>
    <contour>
      <point x="603.4" y="134.75" type="curve" smooth="yes"/>
      <point x="417.05" y="134.75"/>
      <point x="316.4" y="225.4"/>
      <point x="316.4" y="382.05" type="curve" smooth="yes"/>
      <point x="316.4" y="544.55"/>
      <point x="439.05" y="642.4"/>
      <point x="603.4" y="680.75" type="curve"/>
      <point x="768.1" y="642.4"/>
      <point x="886.95" y="539.95"/>
      <point x="886.95" y="382.6" type="curve" smooth="yes"/>
      <point x="886.95" y="220.9"/>
      <point x="793.9" y="134.75"/>
    </contour>
    <contour>
      <point x="603.4" y="813.95" type="curve"/>
      <point x="434.6" y="851.9"/>
      <point x="343.7" y="947.5"/>
      <point x="343.7" y="1094.25" type="curve" smooth="yes"/>
      <point x="343.7" y="1223.75"/>
      <point x="449.65" y="1305.45"/>
      <point x="603.4" y="1305.45" type="curve" smooth="yes"/>
      <point x="758.05" y="1305.45"/>
      <point x="860.1" y="1223.75"/>
      <point x="860.1" y="1094.25" type="curve" smooth="yes"/>
      <point x="860.1" y="947.5"/>
      <point x="773.0" y="851.9"/>
    </contour>
  </outline>
</glyph>
<glyph name="nine" format="1">
  <advance width="1203.5"/>
  <unicode hex="0039"/>
  <outline>
    <contour>
      <point x="276.15" y="0.0" type="line"/>
      <point x="519.65" y="0.0" type="line"/>
      <point x="519.65" y="0.0"/>
      <point x="880.1" y="482.7"/>
      <point x="892.2" y="498.65" type="curve" smooth="yes"/>
      <point x="1011.3" y="661.85"/>
      <point x="1105.4" y="794.9"/>
      <point x="1105.4" y="995.7" type="curve" smooth="yes"/>
      <point x="1105.4" y="1249.25"/>
      <point x="920.7" y="1451.5"/>
      <point x="618.15" y="1451.5" type="curve" smooth="yes"/>
      <point x="328.75" y="1451.5"/>
      <point x="132.4" y="1260.15"/>
      <point x="132.4" y="998.7" type="curve" smooth="yes"/>
      <point x="132.4" y="736.3"/>
      <point x="337.1" y="563.25"/>
      <point x="582.25" y="563.25" type="curve" smooth="yes"/>
      <point x="755.85" y="563.25"/>
      <point x="880.95" y="704.05"/>
      <point x="896.0" y="721.9" type="curve"/>
      <point x="859.2" y="754.35" type="line"/>
      <point x="859.2" y="754.35"/>
      <point x="707.9" y="565.55"/>
      <point x="648.95" y="486.8" type="curve"/>
    </contour>
    <contour>
      <point x="619.4" y="718.35" type="curve" smooth="yes"/>
      <point x="432.85" y="718.35"/>
      <point x="334.6" y="833.15"/>
      <point x="334.6" y="1002.0" type="curve" smooth="yes"/>
      <point x="334.6" y="1164.4"/>
      <point x="438.2" y="1292.25"/>
      <point x="625.65" y="1292.25" type="curve" smooth="yes"/>
      <point x="811.7" y="1292.25"/>
      <point x="905.75" y="1167.85"/>
      <point x="905.75" y="1007.35" type="curve" smooth="yes"/>
      <point x="905.75" y="800.0"/>
      <point x="764.4" y="718.35"/>
    </contour>
  </outline>
</glyph>
<glyph name="colon" format="1">
  <advance width="572.75"/>
  <unicode hex="003A"/>
  <outline>
    <contour>
      <point x="186.15" y="0.0" type="line"/>
      <point x="398.35" y="0.0" type="line"/>
      <point x="398.35" y="230.85" type="line"/>
      <point x="186.15" y="230.85" type="line"/>
    </contour>
    <contour>
      <point x="186.15" y="834.55" type="line"/>
      <point x="398.35" y="834.55" type="line"/>
      <point x="398.35" y="1061.6" type="line"/>
      <point x="186.15" y="1061.6" type="line"/>
    </contour>
  </outline>
</glyph>
<glyph name="semicolon" format="1">
  <advance width="565.8"/>
  <unicode hex="003B"/>
  <outline>
    <contour>
      <point x="194.95" y="834.55" type="line"/>
      <point x="407.15" y="834.55" type="line"/>
      <point x="407.15" y="1061.6" type="line"/>
      <point x="194.95" y="1061.6" type="line"/>
    </contour>
    <contour>
      <point x="169.5" y="-300.1" type="line"/>
      <point x="289.5" y="-300.1" type="line"/>
      <point x="411.05" y="207.35" type="line"/>
      <point x="222.85" y="207.35" type="line"/>
    </contour>
  </outline>
</glyph>
<glyph name="less" format="1">
  <advance width="1151.35"/>
  <unicode hex="003C"/>
  <outline>
    <contour>
      <point x="1030.05" y="150.0" type="line"/>
      <point x="1030.05" y="150.0"/>
      <point x="1030.4" y="320.55"/>
      <point x="1029.85" y="321.1" type="curve" smooth="yes"/>
      <point x="313.15" y="648.75" type="line"/>
      <point x="1031.85" y="1002.25" type="line"/>
      <point x="1031.85" y="1169.55" type="line"/>
      <point x="106.85" y="695.15" type="line"/>
      <point x="106.85" y="593.15" type="line"/>
    </contour>
  </outline>
</glyph>
<glyph name="greater" format="1">
  <advance width="1157.2"/>
  <unicode hex="003E"/>
  <outline>
    <contour>
      <point x="144.8" y="154.8" type="line"/>
      <point x="1069.8" y="592.25" type="line"/>
      <point x="1069.8" y="693.6" type="line"/>
      <point x="146.15" y="1173.7" type="line"/>
      <point x="146.15" y="1006.85" type="line"/>
      <point x="858.0" y="648.75" type="line"/>
      <point x="144.8" y="326.25" type="line"/>
    </contour>
  </outline>
</glyph>
<glyph name="question" format="1">
  <advance width="943.8"/>
  <unicode hex="003F"/>
  <outline>
    <contour>
      <point x="472.55" y="424.2" type="line"/>
      <point x="597.7" y="742.55"/>
      <point x="822.5" y="890.8"/>
      <point x="822.5" y="1146.55" type="curve" smooth="yes"/>
      <point x="822.5" y="1353.65"/>
      <point x="648.7" y="1462.5"/>
      <point x="471.95" y="1462.5" type="curve" smooth="yes"/>
      <point x="331.55" y="1462.5"/>
      <point x="227.35" y="1424.05"/>
      <point x="142.8" y="1366.9" type="curve"/>
      <point x="193.15" y="1226.4" type="line"/>
      <point x="241.85" y="1256.8"/>
      <point x="334.5" y="1308.9"/>
      <point x="451.0" y="1308.9" type="curve" smooth="yes"/>
      <point x="576.05" y="1308.9"/>
      <point x="650.95" y="1245.35"/>
      <point x="651.5" y="1123.55" type="curve"/>
      <point x="651.5" y="917.5"/>
      <point x="400.8" y="680.0"/>
      <point x="381.55" y="424.2" type="curve"/>
    </contour>
    <contour>
      <point x="428.75" y="-10.6" type="curve" smooth="yes"/>
      <point x="509.6" y="-10.6"/>
      <point x="555.05" y="51.4"/>
      <point x="555.05" y="117.65" type="curve" smooth="yes"/>
      <point x="555.05" y="183.55"/>
      <point x="509.6" y="246.0"/>
      <point x="428.75" y="246.0" type="curve" smooth="yes"/>
      <point x="347.25" y="246.0"/>
      <point x="300.4" y="183.55"/>
      <point x="300.4" y="117.65" type="curve" smooth="yes"/>
      <point x="300.4" y="51.75"/>
      <point x="347.8" y="-10.6"/>
    </contour>
  </outline>
</glyph>
<glyph name="at" format="1">
  <advance width="1895.55"/>
  <unicode hex="0040"/>
  <outline>
    <contour>
      <point x="927.45" y="-165.55" type="curve" smooth="yes"/>
      <point x="1117.8" y="-165.55"/>
      <point x="1305.75" y="-121.95"/>
      <point x="1433.95" y="-36.0" type="curve"/>
      <point x="1392.2" y="71.65" type="line"/>
      <point x="1260.0" y="-3.85"/>
      <point x="1093.7" y="-44.45"/>
      <point x="930.25" y="-44.45" type="curve" smooth="yes"/>
      <point x="526.8" y="-44.45"/>
      <point x="287.75" y="232.75"/>
      <point x="287.75" y="616.7" type="curve" smooth="yes"/>
      <point x="287.75" y="1010.4"/>
      <point x="558.75" y="1343.55"/>
      <point x="988.65" y="1343.55" type="curve" smooth="yes"/>
      <point x="1402.9" y="1343.55"/>
      <point x="1621.05" y="1075.45"/>
      <point x="1621.05" y="762.35" type="curve" smooth="yes"/>
      <point x="1621.05" y="501.45"/>
      <point x="1506.5" y="350.85"/>
      <point x="1380.05" y="350.85" type="curve" smooth="yes"/>
      <point x="1299.8" y="350.85"/>
      <point x="1251.25" y="415.1"/>
      <point x="1251.25" y="500.3" type="curve" smooth="yes"/>
      <point x="1251.25" y="623.05"/>
      <point x="1288.6" y="805.85"/>
      <point x="1316.4" y="1005.65" type="curve"/>
      <point x="1230.9" y="1045.45"/>
      <point x="1099.2" y="1073.35"/>
      <point x="1003.35" y="1073.35" type="curve" smooth="yes"/>
      <point x="722.35" y="1073.35"/>
      <point x="565.4" y="830.1"/>
      <point x="565.4" y="580.95" type="curve" smooth="yes"/>
      <point x="565.4" y="381.95"/>
      <point x="667.85" y="236.6"/>
      <point x="863.65" y="236.6" type="curve" smooth="yes"/>
      <point x="1040.35" y="236.6"/>
      <point x="1141.15" y="407.9"/>
      <point x="1177.85" y="545.45" type="curve"/>
      <point x="1132.85" y="545.45" type="line"/>
      <point x="1145.5" y="355.7"/>
      <point x="1223.6" y="242.8"/>
      <point x="1380.85" y="242.8" type="curve" smooth="yes"/>
      <point x="1551.5" y="242.8"/>
      <point x="1753.65" y="415.35"/>
      <point x="1753.65" y="754.25" type="curve" smooth="yes"/>
      <point x="1753.65" y="1191.55"/>
      <point x="1420.95" y="1465.9"/>
      <point x="994.5" y="1465.9" type="curve" smooth="yes"/>
      <point x="499.65" y="1465.9"/>
      <point x="140.1" y="1106.55"/>
      <point x="140.1" y="619.55" type="curve" smooth="yes"/>
      <point x="140.1" y="131.55"/>
      <point x="458.9" y="-165.55"/>
    </contour>
    <contour>
      <point x="879.85" y="347.35" type="curve" smooth="yes"/>
      <point x="770.4" y="347.35"/>
      <point x="711.0" y="430.15"/>
      <point x="711.0" y="579.1" type="curve" smooth="yes"/>
      <point x="711.0" y="777.4"/>
      <point x="826.0" y="967.7"/>
      <point x="1013.95" y="967.7" type="curve" smooth="yes"/>
      <point x="1067.05" y="967.7"/>
      <point x="1177.25" y="946.75"/>
      <point x="1216.05" y="933.3" type="curve"/>
      <point x="1165.25" y="1011.8" type="line"/>
      <point x="1162.55" y="983.45"/>
      <point x="1118.5" y="727.55"/>
      <point x="1114.45" y="699.65" type="curve" smooth="yes"/>
      <point x="1084.15" y="503.95"/>
      <point x="1031.4" y="347.35"/>
    </contour>
  </outline>
</glyph>
<glyph name="A" format="1">
  <advance width="1397.15"/>
  <unicode hex="0041"/>
  <outline>
    <contour>
      <point x="49.0" y="0.0" type="line"/>
      <point x="276.6" y="0.0" type="line"/>
      <point x="454.85" y="490.55" type="line"/>
      <point x="375.75" y="432.5" type="line"/>
      <point x="1026.7" y="432.5" type="line"/>
      <point x="945.05" y="486.9" type="line"/>
      <point x="1125.35" y="0.0" type="line"/>
      <point x="1348.15" y="0.0" type="line"/>
      <point x="826.0" y="1433.05" type="line"/>
      <point x="572.25" y="1433.05" type="line"/>
    </contour>
    <contour>
      <point x="461.7" y="518.15" type="line"/>
      <point x="724.5" y="1300.45" type="line"/>
      <point x="677.6" y="1301.35" type="line"/>
      <point x="937.65" y="518.7" type="line"/>
      <point x="982.45" y="582.55" type="line"/>
      <point x="419.7" y="582.55" type="line"/>
    </contour>
  </outline>
</glyph>
<glyph name="B" format="1">
  <advance width="1376.7"/>
  <unicode hex="0042"/>
  <outline>
    <contour>
      <point x="197.3" y="0.0" type="line"/>
      <point x="752.6" y="0.0" type="line" smooth="yes"/>
      <point x="1088.4" y="0.0"/>
      <point x="1267.5" y="153.1"/>
      <point x="1267.5" y="410.8" type="curve" smooth="yes"/>
      <point x="1267.5" y="629.7"/>
      <point x="1120.1" y="743.55"/>
      <point x="909.95" y="784.8" type="curve"/>
      <point x="909.95" y="731.95" type="line"/>
      <point x="1132.2" y="796.45"/>
      <point x="1212.55" y="911.3"/>
      <point x="1212.55" y="1078.3" type="curve" smooth="yes"/>
      <point x="1212.55" y="1331.35"/>
      <point x="1030.65" y="1433.05"/>
      <point x="672.05" y="1433.05" type="curve" smooth="yes"/>
      <point x="197.3" y="1433.05" type="line"/>
    </contour>
    <contour>
      <point x="362.95" y="167.15" type="line"/>
      <point x="418.3" y="109.7" type="line"/>
      <point x="418.3" y="736.6" type="line"/>
      <point x="362.5" y="677.6" type="line"/>
      <point x="678.1" y="677.6" type="line" smooth="yes"/>
      <point x="928.8" y="677.6"/>
      <point x="1046.5" y="611.3"/>
      <point x="1046.5" y="420.9" type="curve" smooth="yes"/>
      <point x="1046.5" y="240.4"/>
      <point x="944.0" y="167.15"/>
      <point x="715.25" y="167.15" type="curve" smooth="yes"/>
    </contour>
    <contour>
      <point x="362.05" y="828.8" type="line"/>
      <point x="418.3" y="780.15" type="line"/>
      <point x="418.3" y="1324.65" type="line"/>
      <point x="363.4" y="1269.2" type="line"/>
      <point x="658.1" y="1269.2" type="line" smooth="yes"/>
      <point x="889.55" y="1269.2"/>
      <point x="999.55" y="1226.65"/>
      <point x="999.55" y="1049.8" type="curve" smooth="yes"/>
      <point x="999.55" y="876.8"/>
      <point x="892.3" y="828.8"/>
      <point x="713.05" y="828.8" type="curve" smooth="yes"/>
    </contour>
  </outline>
</glyph>
<glyph name="C" format="1">
  <advance width="1310.1"/>
  <unicode hex="0043"/>
  <outline>
    <contour>
      <point x="828.75" y="-19.0" type="curve" smooth="yes"/>
      <point x="998.3" y="-19.0"/>
      <point x="1144.55" y="28.9"/>
      <point x="1221.9" y="66.45" type="curve"/>
      <point x="1175.35" y="231.25" type="line"/>
      <point x="1114.4" y="202.6"/>
      <point x="988.45" y="158.4"/>
      <point x="851.0" y="158.4" type="curve" smooth="yes"/>
      <point x="559.05" y="158.4"/>
      <point x="354.1" y="352.45"/>
      <point x="354.1" y="716.5" type="curve" smooth="yes"/>
      <point x="354.1" y="1073.4"/>
      <point x="552.9" y="1276.85"/>
      <point x="840.4" y="1276.85" type="curve" smooth="yes"/>
      <point x="954.3" y="1276.85"/>
      <point x="1074.35" y="1244.7"/>
      <point x="1162.45" y="1192.1" type="curve"/>
      <point x="1228.5" y="1338.95" type="line"/>
      <point x="1128.45" y="1407.35"/>
      <point x="986.05" y="1451.5"/>
      <point x="823.65" y="1451.5" type="curve" smooth="yes"/>
      <point x="428.95" y="1451.5"/>
      <point x="132.55" y="1184.1"/>
      <point x="132.55" y="721.3" type="curve" smooth="yes"/>
      <point x="132.55" y="246.05"/>
      <point x="429.6" y="-19.0"/>
    </contour>
  </outline>
</glyph>
<glyph name="D" format="1">
  <advance width="1544.1"/>
  <unicode hex="0044"/>
  <outline>
    <contour>
      <point x="418.3" y="101.2" type="line"/>
      <point x="418.3" y="1330.75" type="line"/>
      <point x="356.3" y="1269.2" type="line"/>
      <point x="618.85" y="1269.2" type="line" smooth="yes"/>
      <point x="984.15" y="1269.2"/>
      <point x="1192.2" y="1109.75"/>
      <point x="1192.2" y="716.5" type="curve" smooth="yes"/>
      <point x="1192.2" y="357.1"/>
      <point x="1005.65" y="167.15"/>
      <point x="645.85" y="167.15" type="curve" smooth="yes"/>
      <point x="356.85" y="167.15" type="line"/>
    </contour>
    <contour>
      <point x="197.3" y="0.0" type="line"/>
      <point x="647.15" y="0.0" type="line" smooth="yes"/>
      <point x="1109.9" y="0.0"/>
      <point x="1412.65" y="251.6"/>
      <point x="1412.65" y="721.5" type="curve" smooth="yes"/>
      <point x="1412.65" y="1213.35"/>
      <point x="1085.6" y="1433.05"/>
      <point x="620.0" y="1433.05" type="curve" smooth="yes"/>
      <point x="197.3" y="1433.05" type="line"/>
    </contour>
  </outline>
</glyph>
<glyph name="E" format="1">
  <advance width="1201.85"/>
  <unicode hex="0045"/>
  <outline>
    <contour>
      <point x="197.3" y="0.0" type="line"/>
      <point x="1089.35" y="0.0" type="line"/>
      <point x="1103.3" y="167.15" type="line"/>
      <point x="355.05" y="167.15" type="line"/>
      <point x="418.3" y="104.55" type="line"/>
      <point x="418.3" y="725.85" type="line"/>
      <point x="354.5" y="663.35" type="line"/>
      <point x="1039.25" y="663.35" type="line"/>
      <point x="1039.25" y="827.2" type="line"/>
      <point x="355.05" y="827.2" type="line"/>
      <point x="418.3" y="765.85" type="line"/>
      <point x="418.3" y="1330.3" type="line"/>
      <point x="355.4" y="1269.2" type="line"/>
      <point x="1089.4" y="1269.2" type="line"/>
      <point x="1097.25" y="1433.05" type="line"/>
      <point x="197.3" y="1433.05" type="line"/>
    </contour>
  </outline>
</glyph>
<glyph name="F" format="1">
  <advance width="1134.0"/>
  <unicode hex="0046"/>
  <outline>
    <contour>
      <point x="197.3" y="0.0" type="line"/>
      <point x="420.1" y="0.0" type="line"/>
      <point x="420.1" y="708.2" type="line"/>
      <point x="341.6" y="638.35" type="line"/>
      <point x="1013.9" y="638.35" type="line"/>
      <point x="1013.9" y="798.85" type="line"/>
      <point x="336.25" y="798.85" type="line"/>
      <point x="420.1" y="737.4" type="line"/>
      <point x="420.1" y="1337.7" type="line"/>
      <point x="333.5" y="1263.7" type="line"/>
      <point x="1066.6" y="1263.7" type="line"/>
      <point x="1077.25" y="1433.05" type="line"/>
      <point x="197.3" y="1433.05" type="line"/>
    </contour>
  </outline>
</glyph>
<glyph name="G" format="1">
  <advance width="1468.15"/>
  <unicode hex="0047"/>
  <outline>
    <contour>
      <point x="816.9" y="-19.0" type="curve" smooth="yes"/>
      <point x="1011.6" y="-19.0"/>
      <point x="1167.25" y="15.3"/>
      <point x="1316.85" y="76.1" type="curve"/>
      <point x="1316.85" y="745.0" type="line"/>
      <point x="807.7" y="745.0" type="line"/>
      <point x="803.2" y="577.4" type="line"/>
      <point x="1181.95" y="577.4" type="line"/>
      <point x="1119.5" y="639.85" type="line"/>
      <point x="1119.5" y="125.6" type="line"/>
      <point x="1182.5" y="225.4" type="line"/>
      <point x="1122.1" y="197.15"/>
      <point x="1021.75" y="157.85"/>
      <point x="840.5" y="157.85" type="curve" smooth="yes"/>
      <point x="497.35" y="157.85"/>
      <point x="353.1" y="379.55"/>
      <point x="353.1" y="718.35" type="curve" smooth="yes"/>
      <point x="353.1" y="1050.3"/>
      <point x="542.65" y="1277.95"/>
      <point x="854.1" y="1277.95" type="curve" smooth="yes"/>
      <point x="1028.05" y="1277.95"/>
      <point x="1134.2" y="1225.0"/>
      <point x="1228.1" y="1175.95" type="curve"/>
      <point x="1281.65" y="1340.25" type="line"/>
      <point x="1153.0" y="1419.2"/>
      <point x="1017.05" y="1451.5"/>
      <point x="846.55" y="1451.5" type="curve" smooth="yes"/>
      <point x="424.5" y="1451.5"/>
      <point x="131.55" y="1157.1"/>
      <point x="131.55" y="716.25" type="curve" smooth="yes"/>
      <point x="131.55" y="285.65"/>
      <point x="378.0" y="-19.0"/>
    </contour>
  </outline>
</glyph>
<glyph name="H" format="1">
  <advance width="1535.2"/>
  <unicode hex="0048"/>
  <outline>
    <contour>
      <point x="195.95" y="0.0" type="line"/>
      <point x="416.95" y="0.0" type="line"/>
      <point x="416.95" y="715.65" type="line"/>
      <point x="346.55" y="654.8" type="line"/>
      <point x="1192.0" y="654.8" type="line"/>
      <point x="1118.25" y="715.65" type="line"/>
      <point x="1118.25" y="0.0" type="line"/>
      <point x="1339.25" y="0.0" type="line"/>
      <point x="1339.25" y="1433.05" type="line"/>
      <point x="1118.25" y="1433.05" type="line"/>
      <point x="1118.25" y="756.95" type="line"/>
      <point x="1187.25" y="818.25" type="line"/>
      <point x="346.0" y="818.25" type="line"/>
      <point x="416.95" y="756.95" type="line"/>
      <point x="416.95" y="1433.05" type="line"/>
      <point x="195.95" y="1433.05" type="line"/>
    </contour>
  </outline>
</glyph>
<glyph name="I" format="1">
  <advance width="816.5"/>
  <unicode hex="0049"/>
  <outline>
    <contour>
      <point x="117.3" y="1433.05" type="line"/>
      <point x="117.3" y="1299.95" type="line"/>
      <point x="360.5" y="1299.95" type="line"/>
      <point x="299.3" y="1352.05" type="line"/>
      <point x="299.3" y="75.55" type="line"/>
      <point x="362.2" y="132.55" type="line"/>
      <point x="117.3" y="132.55" type="line"/>
      <point x="117.3" y="0.0" type="line"/>
      <point x="699.65" y="0.0" type="line"/>
      <point x="699.65" y="132.55" type="line"/>
      <point x="451.9" y="132.55" type="line"/>
      <point x="520.3" y="75.9" type="line"/>
      <point x="520.3" y="1352.8" type="line"/>
      <point x="453.7" y="1299.95" type="line"/>
      <point x="699.65" y="1299.95" type="line"/>
      <point x="699.65" y="1433.05" type="line"/>
    </contour>
  </outline>
</glyph>
<glyph name="J" format="1">
  <advance width="812.35"/>
  <unicode hex="004A"/>
  <outline>
    <contour>
      <point x="160.4" y="-191.15" type="line"/>
      <point x="467.5" y="-191.15"/>
      <point x="615.6" y="-8.25"/>
      <point x="615.6" y="302.95" type="curve" smooth="yes"/>
      <point x="615.6" y="1433.05" type="line"/>
      <point x="394.05" y="1433.05" type="line"/>
      <point x="394.05" y="284.15" type="line" smooth="yes"/>
      <point x="394.05" y="121.7"/>
      <point x="329.65" y="-14.15"/>
      <point x="137.85" y="-14.15" type="curve" smooth="yes"/>
      <point x="12.5" y="-14.15" type="line"/>
      <point x="12.5" y="-191.15" type="line"/>
    </contour>
  </outline>
</glyph>
<glyph name="K" format="1">
  <advance width="1357.65"/>
  <unicode hex="004B"/>
  <outline>
    <contour>
      <point x="197.3" y="0.0" type="line"/>
      <point x="418.3" y="0.0" type="line"/>
      <point x="418.3" y="644.0" type="line"/>
      <point x="367.9" y="524.9" type="line"/>
      <point x="600.65" y="732.8" type="line"/>
      <point x="509.55" y="740.3" type="line"/>
      <point x="1064.7" y="0.0" type="line"/>
      <point x="1321.25" y="0.0" type="line"/>
      <point x="669.45" y="855.45" type="line"/>
      <point x="669.45" y="742.05" type="line"/>
      <point x="1289.6" y="1433.05" type="line"/>
      <point x="1032.85" y="1433.05" type="line"/>
      <point x="362.55" y="704.85" type="line"/>
      <point x="418.3" y="695.4" type="line"/>
      <point x="418.3" y="1433.05" type="line"/>
      <point x="197.3" y="1433.05" type="line"/>
    </contour>
  </outline>
</glyph>
<glyph name="L" format="1">
  <advance width="1136.25"/>
  <unicode hex="004C"/>
  <outline>
    <contour>
      <point x="197.3" y="0.0" type="line"/>
      <point x="1070.8" y="0.0" type="line"/>
      <point x="1078.5" y="167.15" type="line"/>
      <point x="338.75" y="167.15" type="line"/>
      <point x="418.3" y="86.15" type="line"/>
      <point x="418.3" y="1433.05" type="line"/>
      <point x="197.3" y="1433.05" type="line"/>
    </contour>
  </outline>
</glyph>
<glyph name="M" format="1">
  <advance width="1858.95"/>
  <unicode hex="004D"/>
  <outline>
    <contour>
      <point x="177.5" y="0.0" type="line"/>
      <point x="387.2" y="0.0" type="line"/>
      <point x="399.9" y="760.9" type="line"/>
      <point x="399.9" y="1210.75" type="line"/>
      <point x="360.05" y="1210.75" type="line"/>
      <point x="839.5" y="178.55" type="line"/>
      <point x="1014.75" y="178.55" type="line"/>
      <point x="1504.5" y="1210.75" type="line"/>
      <point x="1459.95" y="1210.75" type="line"/>
      <point x="1459.95" y="764.35" type="line"/>
      <point x="1472.65" y="0.0" type="line"/>
      <point x="1680.9" y="0.0" type="line"/>
      <point x="1647.75" y="1433.05" type="line"/>
      <point x="1408.75" y="1433.05" type="line"/>
      <point x="889.0" y="328.3" type="line"/>
      <point x="971.1" y="328.3" type="line"/>
      <point x="455.1" y="1433.05" type="line"/>
      <point x="209.75" y="1433.05" type="line"/>
    </contour>
  </outline>
</glyph>
<glyph name="N" format="1">
  <advance width="1585.8"/>
  <unicode hex="004E"/>
  <outline>
    <contour>
      <point x="197.3" y="0.0" type="line"/>
      <point x="409.0" y="0.0" type="line"/>
      <point x="409.0" y="642.3" type="line"/>
      <point x="389.4" y="1232.85" type="line"/>
      <point x="340.65" y="1222.95" type="line"/>
      <point x="1153.05" y="0.0" type="line"/>
      <point x="1388.5" y="0.0" type="line"/>
      <point x="1388.5" y="1433.05" type="line"/>
      <point x="1177.25" y="1433.05" type="line"/>
      <point x="1177.25" y="708.0" type="line"/>
      <point x="1192.4" y="195.45" type="line"/>
      <point x="1239.0" y="197.7" type="line"/>
      <point x="424.35" y="1433.05" type="line"/>
      <point x="197.3" y="1433.05" type="line"/>
    </contour>
  </outline>
</glyph>
<glyph name="O" format="1">
  <advance width="1652.95"/>
  <unicode hex="004F"/>
  <outline>
    <contour>
      <point x="827.75" y="155.65" type="curve" smooth="yes"/>
      <point x="517.65" y="155.65"/>
      <point x="354.1" y="384.35"/>
      <point x="354.1" y="709.7" type="curve" smooth="yes"/>
      <point x="354.1" y="1046.8"/>
      <point x="524.95" y="1275.75"/>
      <point x="828.65" y="1275.75" type="curve" smooth="yes"/>
      <point x="1132.8" y="1275.75"/>
      <point x="1299.4" y="1045.45"/>
      <point x="1299.4" y="709.7" type="curve" smooth="yes"/>
      <point x="1299.4" y="384.35"/>
      <point x="1137.85" y="155.65"/>
    </contour>
    <contour>
      <point x="828.65" y="-19.0" type="curve" smooth="yes"/>
      <point x="1260.1" y="-19.0"/>
      <point x="1520.4" y="268.95"/>
      <point x="1520.4" y="709.45" type="curve" smooth="yes"/>
      <point x="1520.4" y="1162.95"/>
      <point x="1251.8" y="1451.5"/>
      <point x="829.1" y="1451.5" type="curve" smooth="yes"/>
      <point x="400.55" y="1451.5"/>
      <point x="132.55" y="1165.2"/>
      <point x="132.55" y="710.8" type="curve" smooth="yes"/>
      <point x="132.55" y="265.35"/>
      <point x="393.6" y="-19.0"/>
    </contour>
  </outline>
</glyph>
<glyph name="P" format="1">
  <advance width="1292.95"/>
  <unicode hex="0050"/>
  <outline>
    <contour>
      <point x="197.3" y="0.0" type="line"/>
      <point x="418.3" y="0.0" type="line"/>
      <point x="418.3" y="725.75" type="line"/>
      <point x="354.7" y="661.65" type="line"/>
      <point x="709.95" y="661.65" type="line" smooth="yes"/>
      <point x="1072.95" y="661.65"/>
      <point x="1209.7" y="814.55"/>
      <point x="1209.7" y="1068.55" type="curve" smooth="yes"/>
      <point x="1209.7" y="1345.15"/>
      <point x="998.75" y="1433.05"/>
      <point x="712.2" y="1433.05" type="curve" smooth="yes"/>
      <point x="197.3" y="1433.05" type="line"/>
    </contour>
    <contour>
      <point x="698.25" y="830.45" type="curve" smooth="yes"/>
      <point x="355.9" y="830.45" type="line"/>
      <point x="418.3" y="772.65" type="line"/>
      <point x="418.3" y="1329.25" type="line"/>
      <point x="355.9" y="1269.2" type="line"/>
      <point x="711.85" y="1269.2" type="line" smooth="yes"/>
      <point x="888.05" y="1269.2"/>
      <point x="988.7" y="1219.0"/>
      <point x="988.7" y="1064.05" type="curve" smooth="yes"/>
      <point x="988.7" y="897.35"/>
      <point x="917.65" y="830.45"/>
    </contour>
  </outline>
</glyph>
<glyph name="Q" format="1">
  <advance width="1651.85"/>
  <unicode hex="0051"/>
  <outline>
    <contour>
      <point x="1240.5" y="-449.7" type="curve"/>
      <point x="1368.0" y="-335.3" type="line"/>
      <point x="1267.65" y="-233.6"/>
      <point x="1151.0" y="-59.65"/>
      <point x="1101.75" y="34.2" type="curve"/>
      <point x="920.05" y="-5.3" type="line"/>
      <point x="1005.55" y="-167.8"/>
      <point x="1153.75" y="-378.5"/>
    </contour>
    <component base="O"/>
  </outline>
</glyph>
<glyph name="R" format="1">
  <advance width="1417.35"/>
  <unicode hex="0052"/>
  <outline>
    <contour>
      <point x="197.3" y="0.0" type="line"/>
      <point x="418.3" y="0.0" type="line"/>
      <point x="418.3" y="700.1" type="line"/>
      <point x="355.8" y="652.7" type="line"/>
      <point x="884.0" y="652.7" type="line"/>
      <point x="781.0" y="709.25" type="line"/>
      <point x="902.7" y="418.65" type="line"/>
      <point x="1082.15" y="0.0" type="line"/>
      <point x="1312.85" y="0.0" type="line"/>
      <point x="1098.85" y="476.25" type="line"/>
      <point x="974.85" y="764.3" type="line"/>
      <point x="961.05" y="669.1" type="line"/>
      <point x="1136.4" y="714.75"/>
      <point x="1256.25" y="813.0"/>
      <point x="1256.25" y="1048.35" type="curve" smooth="yes"/>
      <point x="1256.25" y="1329.45"/>
      <point x="1083.95" y="1433.05"/>
      <point x="774.2" y="1433.05" type="curve" smooth="yes"/>
      <point x="197.3" y="1433.05" type="line"/>
    </contour>
    <contour>
      <point x="418.3" y="747.4" type="line"/>
      <point x="418.3" y="1327.8" type="line"/>
      <point x="357.1" y="1269.2" type="line"/>
      <point x="781.0" y="1269.2" type="line" smooth="yes"/>
      <point x="978.65" y="1269.2"/>
      <point x="1037.5" y="1190.25"/>
      <point x="1037.5" y="1045.25" type="curve" smooth="yes"/>
      <point x="1037.5" y="874.95"/>
      <point x="988.0" y="805.8"/>
      <point x="757.95" y="805.8" type="curve" smooth="yes"/>
      <point x="354.7" y="805.8" type="line"/>
    </contour>
  </outline>
</glyph>
<glyph name="S" format="1">
  <advance width="1218.80778742"/>
  <unicode hex="0053"/>
  <outline>
    <contour>
      <point x="605.3" y="-19.0" type="curve" smooth="yes"/>
      <point x="888.05" y="-19.0"/>
      <point x="1097.55" y="102.95"/>
      <point x="1104.75" y="385.15" type="curve" smooth="yes"/>
      <point x="1111.05" y="626.2"/>
      <point x="972.7" y="720.5"/>
      <point x="750.0" y="800.8" type="curve" smooth="yes"/>
      <point x="522.4" y="884.45" type="line" smooth="yes"/>
      <point x="410.7" y="926.6"/>
      <point x="367.2" y="971.65"/>
      <point x="367.2" y="1075.65" type="curve" smooth="yes"/>
      <point x="367.2" y="1225.9"/>
      <point x="493.7" y="1275.75"/>
      <point x="644.95" y="1275.75" type="curve" smooth="yes"/>
      <point x="794.25" y="1275.75"/>
      <point x="923.2" y="1206.7"/>
      <point x="989.6" y="1174.6" type="curve"/>
      <point x="1062.1" y="1333.65" type="line"/>
      <point x="963.45" y="1398.0"/>
      <point x="809.95" y="1451.5"/>
      <point x="644.2" y="1451.5" type="curve" smooth="yes"/>
      <point x="390.2" y="1451.5"/>
      <point x="162.05" y="1341.85"/>
      <point x="162.05" y="1067.4" type="curve" smooth="yes"/>
      <point x="162.05" y="867.85"/>
      <point x="273.85" y="768.95"/>
      <point x="451.5" y="704.85" type="curve" smooth="yes"/>
      <point x="690.7" y="619.55" type="line" smooth="yes"/>
      <point x="844.0" y="562.6"/>
      <point x="902.45" y="507.25"/>
      <point x="899.3" y="385.55" type="curve" smooth="yes"/>
      <point x="894.8" y="221.45"/>
      <point x="796.15" y="155.65"/>
      <point x="613.05" y="155.65" type="curve" smooth="yes"/>
      <point x="447.05" y="155.65"/>
      <point x="303.6" y="211.55"/>
      <point x="215.4" y="273.45" type="curve"/>
      <point x="145.4" y="110.35" type="line"/>
      <point x="235.0" y="52.6"/>
      <point x="379.8" y="-19.0"/>
    </contour>
  </outline>
</glyph>
<glyph name="T" format="1">
  <advance width="1175.05"/>
  <unicode hex="0054"/>
  <outline>
    <contour>
      <point x="475.4" y="0.0" type="line"/>
      <point x="696.95" y="0.0" type="line"/>
      <point x="696.95" y="1334.4" type="line"/>
      <point x="635.25" y="1260.35" type="line"/>
      <point x="1121.25" y="1260.35" type="line"/>
      <point x="1121.25" y="1433.05" type="line"/>
      <point x="53.8" y="1433.05" type="line"/>
      <point x="53.8" y="1260.35" type="line"/>
      <point x="537.1" y="1260.35" type="line"/>
      <point x="475.4" y="1334.05" type="line"/>
    </contour>
  </outline>
</glyph>
<glyph name="U" format="1">
  <advance width="1500.65"/>
  <unicode hex="0055"/>
  <outline>
    <contour>
      <point x="751.05" y="-19.0" type="curve" smooth="yes"/>
      <point x="1128.1" y="-19.0"/>
      <point x="1336.8" y="200.25"/>
      <point x="1336.8" y="519.7" type="curve" smooth="yes"/>
      <point x="1336.8" y="1433.05" type="line"/>
      <point x="1115.8" y="1433.05" type="line"/>
      <point x="1115.8" y="531.35" type="line" smooth="yes"/>
      <point x="1115.8" y="285.85"/>
      <point x="988.4" y="157.85"/>
      <point x="751.05" y="157.85" type="curve" smooth="yes"/>
      <point x="509.8" y="157.85"/>
      <point x="385.4" y="285.75"/>
      <point x="385.4" y="531.25" type="curve" smooth="yes"/>
      <point x="385.4" y="1433.05" type="line"/>
      <point x="163.85" y="1433.05" type="line"/>
      <point x="163.85" y="521.6" type="line" smooth="yes"/>
      <point x="163.85" y="195.1"/>
      <point x="371.2" y="-19.0"/>
    </contour>
  </outline>
</glyph>
<glyph name="V" format="1">
  <advance width="1394.65"/>
  <unicode hex="0056"/>
  <outline>
    <contour>
      <point x="585.75" y="0.0" type="line"/>
      <point x="808.25" y="0.0" type="line"/>
      <point x="1324.85" y="1433.05" type="line"/>
      <point x="1093.85" y="1433.05" type="line"/>
      <point x="799.95" y="557.95" type="line"/>
      <point x="667.55" y="153.75" type="line"/>
      <point x="732.15" y="153.75" type="line"/>
      <point x="598.0" y="555.15" type="line"/>
      <point x="302.9" y="1433.05" type="line"/>
      <point x="69.8" y="1433.05" type="line"/>
    </contour>
  </outline>
</glyph>
<glyph name="W" format="1">
  <advance width="2048.1"/>
  <unicode hex="0057"/>
  <outline>
    <contour>
      <point x="471.65" y="0.0" type="line"/>
      <point x="680.4" y="0.0" type="line"/>
      <point x="1050.95" y="1213.05" type="line"/>
      <point x="1002.6" y="1213.05" type="line"/>
      <point x="1357.95" y="0.0" type="line"/>
      <point x="1570.15" y="0.0" type="line"/>
      <point x="1996.0" y="1432.6" type="line"/>
      <point x="1781.55" y="1432.6" type="line"/>
      <point x="1441.85" y="214.1" type="line"/>
      <point x="1481.0" y="214.1" type="line"/>
      <point x="1127.65" y="1410.3" type="line"/>
      <point x="921.35" y="1410.3" type="line"/>
      <point x="561.25" y="213.2" type="line"/>
      <point x="602.15" y="213.2" type="line"/>
      <point x="265.75" y="1432.6" type="line"/>
      <point x="52.1" y="1432.6" type="line"/>
    </contour>
  </outline>
</glyph>
<glyph name="X" format="1">
  <advance width="1390.5"/>
  <unicode hex="0058"/>
  <outline>
    <contour>
      <point x="105.65" y="0.0" type="line"/>
      <point x="327.55" y="0.0" type="line"/>
      <point x="710.0" y="584.6" type="line"/>
      <point x="809.5" y="699.3" type="line"/>
      <point x="1279.85" y="1433.05" type="line"/>
      <point x="1057.55" y="1433.05" type="line"/>
      <point x="702.35" y="869.1" type="line"/>
      <point x="592.0" y="749.65" type="line"/>
    </contour>
    <contour>
      <point x="1063.95" y="0.0" type="line"/>
      <point x="1292.5" y="0.0" type="line"/>
      <point x="342.65" y="1433.05" type="line"/>
      <point x="116.7" y="1433.05" type="line"/>
    </contour>
  </outline>
</glyph>
<glyph name="Y" format="1">
  <advance width="1279.6"/>
  <unicode hex="0059"/>
  <outline>
    <contour>
      <point x="540.75" y="0.0" type="line"/>
      <point x="755.3" y="0.0" type="line"/>
      <point x="755.3" y="658.65" type="line"/>
      <point x="707.4" y="479.9" type="line"/>
      <point x="1223.65" y="1433.05" type="line"/>
      <point x="1000.2" y="1433.05" type="line"/>
      <point x="611.6" y="687.3" type="line"/>
      <point x="682.15" y="687.3" type="line"/>
      <point x="281.7" y="1433.05" type="line"/>
      <point x="55.95" y="1433.05" type="line"/>
      <point x="594.75" y="468.4" type="line"/>
      <point x="540.75" y="655.8" type="line"/>
    </contour>
  </outline>
</glyph>
<glyph name="Z" format="1">
  <advance width="1234.55"/>
  <unicode hex="005A"/>
  <outline>
    <contour>
      <point x="149.1" y="0.0" type="line"/>
      <point x="1110.7" y="0.0" type="line"/>
      <point x="1115.65" y="167.15" type="line"/>
      <point x="343.95" y="167.15" type="line"/>
      <point x="374.4" y="98.15" type="line"/>
      <point x="1108.0" y="1285.2" type="line"/>
      <point x="1103.5" y="1433.05" type="line"/>
      <point x="173.3" y="1433.05" type="line"/>
      <point x="173.3" y="1269.2" type="line"/>
      <point x="932.0" y="1269.2" type="line"/>
      <point x="893.65" y="1333.55" type="line"/>
      <point x="149.1" y="144.55" type="line"/>
    </contour>
  </outline>
</glyph>
<glyph name="bracketleft" format="1">
  <advance width="703.8"/>
  <unicode hex="005B"/>
  <outline>
    <contour>
      <point x="197.2" y="-200.3" type="line"/>
      <point x="197.2" y="1480.35" type="line"/>
      <point x="639.05" y="1480.35" type="line"/>
      <point x="639.05" y="1336.8" type="line"/>
      <point x="383.55" y="1336.8" type="line"/>
      <point x="383.55" y="-57.1" type="line"/>
      <point x="639.05" y="-57.1" type="line"/>
      <point x="639.05" y="-200.3" type="line"/>
    </contour>
  </outline>
</glyph>
<glyph name="backslash" format="1">
  <advance width="895.2"/>
  <unicode hex="005C"/>
  <outline>
    <contour>
      <point x="632.6" y="-27.0" type="line"/>
      <point x="117.85" y="1423.7" type="line"/>
      <point x="288.3" y="1423.7" type="line"/>
      <point x="800.75" y="-27.0" type="line"/>
    </contour>
  </outline>
</glyph>
<glyph name="bracketright" format="1">
  <advance width="705.15"/>
  <unicode hex="005D"/>
  <outline>
    <contour>
      <point x="89.25" y="-200.3" type="line"/>
      <point x="89.25" y="-57.65" type="line"/>
      <point x="345.2" y="-57.65" type="line"/>
      <point x="345.2" y="1336.25" type="line"/>
      <point x="89.25" y="1336.25" type="line"/>
      <point x="89.25" y="1480.35" type="line"/>
      <point x="530.65" y="1480.35" type="line"/>
      <point x="530.65" y="-200.3" type="line"/>
    </contour>
  </outline>
</glyph>
<glyph name="asciicircum" format="1">
  <advance width="1192.15"/>
  <unicode hex="005E"/>
  <outline>
    <contour>
      <point x="114.15" y="556.5" type="line"/>
      <point x="545.6" y="1452.7" type="line"/>
      <point x="651.5" y="1452.7" type="line"/>
      <point x="1108.15" y="556.5" type="line"/>
      <point x="947.55" y="556.5" type="line"/>
      <point x="600.0" y="1250.05" type="line"/>
      <point x="273.4" y="556.5" type="line"/>
    </contour>
  </outline>
</glyph>
<glyph name="underscore" format="1">
  <advance width="1041.25"/>
  <unicode hex="005F"/>
  <outline>
    <contour>
      <point x="72.15" y="-232.6" type="line"/>
      <point x="990.75" y="-232.6" type="line"/>
      <point x="990.75" y="-90.9" type="line"/>
      <point x="72.15" y="-90.9" type="line"/>
    </contour>
  </outline>
</glyph>
<glyph name="grave" format="1">
  <advance width="577.5"/>
  <unicode hex="0060"/>
  <outline>
    <contour>
      <point x="375.75" y="1190.35" type="line"/>
      <point x="497.45" y="1190.35" type="line"/>
      <point x="317.75" y="1566.2" type="line"/>
      <point x="85.2" y="1566.2" type="line"/>
    </contour>
  </outline>
</glyph>
<glyph name="a" format="1">
  <advance width="1132.45"/>
  <unicode hex="0061"/>
  <outline>
    <contour>
      <point x="446.6" y="-17.2" type="curve" smooth="yes"/>
      <point x="587.15" y="-17.2"/>
      <point x="739.0" y="39.55"/>
      <point x="834.7" y="181.2" type="curve"/>
      <point x="789.25" y="202.1" type="line"/>
      <point x="826.45" y="0.45" type="line"/>
      <point x="975.15" y="0.45" type="line"/>
      <point x="975.15" y="697.05" type="line" smooth="yes"/>
      <point x="975.15" y="981.45"/>
      <point x="800.45" y="1084.35"/>
      <point x="557.6" y="1084.35" type="curve" smooth="yes"/>
      <point x="433.85" y="1084.35"/>
      <point x="283.6" y="1051.4"/>
      <point x="165.7" y="997.35" type="curve"/>
      <point x="212.95" y="859.2" type="line"/>
      <point x="316.2" y="904.05"/>
      <point x="445.2" y="934.05"/>
      <point x="546.6" y="934.05" type="curve" smooth="yes"/>
      <point x="693.3" y="934.05"/>
      <point x="774.2" y="865.65"/>
      <point x="774.2" y="723.0" type="curve" smooth="yes"/>
      <point x="774.2" y="610.05" type="line"/>
      <point x="811.7" y="647.8" type="line"/>
      <point x="578.45" y="637.35" type="line" smooth="yes"/>
      <point x="268.35" y="625.25"/>
      <point x="114.3" y="520.0"/>
      <point x="114.3" y="289.95" type="curve" smooth="yes"/>
      <point x="114.3" y="86.45"/>
      <point x="258.0" y="-17.2"/>
    </contour>
    <contour>
      <point x="474.1" y="129.8" type="curve" smooth="yes"/>
      <point x="382.5" y="129.8"/>
      <point x="304.7" y="182.3"/>
      <point x="304.7" y="290.95" type="curve" smooth="yes"/>
      <point x="304.7" y="433.3"/>
      <point x="382.6" y="498.15"/>
      <point x="637.85" y="507.5" type="curve" smooth="yes"/>
      <point x="803.45" y="514.1" type="line"/>
      <point x="773.65" y="549.75" type="line"/>
      <point x="773.65" y="236.55" type="line"/>
      <point x="811.15" y="334.4" type="line"/>
      <point x="752.2" y="218.35"/>
      <point x="614.1" y="129.8"/>
    </contour>
  </outline>
</glyph>
<glyph name="b" format="1">
  <advance width="1244.15"/>
  <unicode hex="0062"/>
  <outline>
    <contour>
      <point x="687.2" y="-19.0" type="curve" smooth="yes"/>
      <point x="971.65" y="-19.0"/>
      <point x="1135.6" y="203.45"/>
      <point x="1135.6" y="533.75" type="curve" smooth="yes"/>
      <point x="1135.6" y="858.2"/>
      <point x="983.0" y="1084.45"/>
      <point x="693.45" y="1084.45" type="curve" smooth="yes"/>
      <point x="528.5" y="1084.45"/>
      <point x="398.4" y="985.5"/>
      <point x="333.85" y="866.65" type="curve"/>
      <point x="365.85" y="856.2" type="line"/>
      <point x="369.15" y="1097.45" type="line"/>
      <point x="369.15" y="1459.85" type="line"/>
      <point x="164.95" y="1446.55" type="line"/>
      <point x="164.95" y="0.0" type="line"/>
      <point x="334.85" y="0.0" type="line"/>
      <point x="359.45" y="240.3" type="line"/>
      <point x="313.65" y="228.5" type="line"/>
      <point x="365.75" y="115.35"/>
      <point x="498.6" y="-19.0"/>
    </contour>
    <contour>
      <point x="653.15" y="136.25" type="curve" smooth="yes"/>
      <point x="477.75" y="136.25"/>
      <point x="365.05" y="267.15"/>
      <point x="365.05" y="547.6" type="curve"/>
      <point x="365.7" y="792.75"/>
      <point x="467.3" y="929.75"/>
      <point x="659.95" y="929.75" type="curve" smooth="yes"/>
      <point x="844.95" y="929.75"/>
      <point x="932.75" y="782.7"/>
      <point x="932.75" y="533.0" type="curve" smooth="yes"/>
      <point x="932.75" y="277.9"/>
      <point x="836.35" y="136.25"/>
    </contour>
  </outline>
</glyph>
<glyph name="c" format="1">
  <advance width="1002.6"/>
  <unicode hex="0063"/>
  <outline>
    <contour>
      <point x="616.3" y="-19.0" type="curve" smooth="yes"/>
      <point x="776.55" y="-19.0"/>
      <point x="871.05" y="30.85"/>
      <point x="907.75" y="58.9" type="curve"/>
      <point x="875.0" y="199.6" type="line"/>
      <point x="813.5" y="164.8"/>
      <point x="729.65" y="135.7"/>
      <point x="638.8" y="138.45" type="curve" smooth="yes"/>
      <point x="433.25" y="142.3"/>
      <point x="311.4" y="296.65"/>
      <point x="311.4" y="529.1" type="curve" smooth="yes"/>
      <point x="311.4" y="780.55"/>
      <point x="453.05" y="927.0"/>
      <point x="640.95" y="927.0" type="curve" smooth="yes"/>
      <point x="763.95" y="927.0"/>
      <point x="843.0" y="878.15"/>
      <point x="860.6" y="867.7" type="curve"/>
      <point x="913.25" y="1007.45" type="line"/>
      <point x="865.95" y="1039.9"/>
      <point x="766.3" y="1084.45"/>
      <point x="617.95" y="1084.45" type="curve" smooth="yes"/>
      <point x="328.75" y="1084.45"/>
      <point x="109.45" y="872.0"/>
      <point x="109.45" y="530.75" type="curve" smooth="yes"/>
      <point x="109.45" y="196.55"/>
      <point x="310.35" y="-19.0"/>
    </contour>
  </outline>
</glyph>
<glyph name="d" format="1">
  <advance width="1239.9"/>
  <unicode hex="0064"/>
  <outline>
    <contour>
      <point x="560.45" y="-18.45" type="curve" smooth="yes"/>
      <point x="781.15" y="-18.45"/>
      <point x="875.55" y="114.95"/>
      <point x="923.15" y="233.9" type="curve"/>
      <point x="878.35" y="236.15" type="line"/>
      <point x="904.8" y="0.0" type="line"/>
      <point x="1075.95" y="0.0" type="line"/>
      <point x="1075.95" y="1459.85" type="line"/>
      <point x="873.1" y="1446.55" type="line"/>
      <point x="873.1" y="1121.65" type="line"/>
      <point x="884.55" y="844.05" type="line"/>
      <point x="920.5" y="858.4" type="line"/>
      <point x="858.25" y="982.7"/>
      <point x="761.4" y="1084.45"/>
      <point x="558.65" y="1084.45" type="curve" smooth="yes"/>
      <point x="278.25" y="1084.45"/>
      <point x="109.45" y="860.7"/>
      <point x="109.45" y="538.95" type="curve" smooth="yes"/>
      <point x="109.45" y="204.6"/>
      <point x="271.6" y="-18.45"/>
    </contour>
    <contour>
      <point x="590.65" y="136.25" type="curve" smooth="yes"/>
      <point x="400.4" y="136.25"/>
      <point x="312.3" y="284.5"/>
      <point x="312.3" y="535.3" type="curve" smooth="yes"/>
      <point x="312.3" y="794.25"/>
      <point x="419.0" y="928.65"/>
      <point x="600.85" y="928.65" type="curve" smooth="yes"/>
      <point x="777.65" y="928.65"/>
      <point x="881.05" y="801.05"/>
      <point x="881.05" y="519.3" type="curve"/>
      <point x="879.95" y="274.15"/>
      <point x="788.1" y="136.25"/>
    </contour>
  </outline>
</glyph>
<glyph name="e" format="1">
  <advance width="1169.2"/>
  <unicode hex="0065"/>
  <outline>
    <contour>
      <point x="643.05" y="-19.55" type="curve" smooth="yes"/>
      <point x="802.55" y="-19.55"/>
      <point x="929.35" y="13.05"/>
      <point x="1030.35" y="73.45" type="curve"/>
      <point x="993.8" y="212.4" type="line"/>
      <point x="913.8" y="173.95"/>
      <point x="804.85" y="133.85"/>
      <point x="664.0" y="133.85" type="curve" smooth="yes"/>
      <point x="466.25" y="133.85"/>
      <point x="310.7" y="250.9"/>
      <point x="311.25" y="529.95" type="curve"/>
      <point x="264.75" y="490.6" type="line"/>
      <point x="1050.0" y="490.6" type="line"/>
      <point x="1050.0" y="490.6"/>
      <point x="1057.1" y="563.6"/>
      <point x="1057.1" y="586.35" type="curve" smooth="yes"/>
      <point x="1057.1" y="882.35"/>
      <point x="895.15" y="1083.9"/>
      <point x="618.35" y="1083.9" type="curve" smooth="yes"/>
      <point x="334.7" y="1083.35"/>
      <point x="109.45" y="870.1"/>
      <point x="109.45" y="528.9" type="curve" smooth="yes"/>
      <point x="109.45" y="187.95"/>
      <point x="331.4" y="-19.55"/>
    </contour>
    <contour>
      <point x="315.9" y="582.15" type="line"/>
      <point x="321.3" y="806.45"/>
      <point x="463.75" y="934.7"/>
      <point x="622.15" y="934.7" type="curve" smooth="yes"/>
      <point x="783.4" y="934.7"/>
      <point x="870.4" y="814.95"/>
      <point x="872.6" y="579.85" type="curve"/>
      <point x="917.55" y="622.3" type="line"/>
      <point x="265.85" y="622.3" type="line"/>
    </contour>
  </outline>
</glyph>
<glyph name="f" format="1">
  <advance width="771.9"/>
  <unicode hex="0066"/>
  <outline>
    <contour>
      <point x="255.2" y="0.0" type="line"/>
      <point x="458.05" y="0.0" type="line"/>
      <point x="458.05" y="974.5" type="line"/>
      <point x="415.6" y="926.9" type="line"/>
      <point x="708.4" y="926.9" type="line"/>
      <point x="708.4" y="1061.6" type="line"/>
      <point x="410.45" y="1061.6" type="line"/>
      <point x="458.05" y="1020.65" type="line"/>
      <point x="458.05" y="1129.0" type="line" smooth="yes"/>
      <point x="458.05" y="1305.2"/>
      <point x="516.25" y="1327.9"/>
      <point x="611.7" y="1327.9" type="curve" smooth="yes"/>
      <point x="655.95" y="1327.9"/>
      <point x="714.15" y="1319.55"/>
      <point x="731.75" y="1316.8" type="curve"/>
      <point x="748.1" y="1460.4" type="line"/>
      <point x="709.6" y="1468.1"/>
      <point x="644.6" y="1478.15"/>
      <point x="574.95" y="1478.15" type="curve" smooth="yes"/>
      <point x="382.55" y="1478.15"/>
      <point x="255.2" y="1395.15"/>
      <point x="255.2" y="1114.65" type="curve" smooth="yes"/>
      <point x="255.2" y="1019.55" type="line"/>
      <point x="299.95" y="1065.15" type="line"/>
      <point x="82.0" y="1043.5" type="line"/>
      <point x="77.0" y="926.9" type="line"/>
      <point x="292.7" y="926.9" type="line"/>
      <point x="255.2" y="977.6" type="line"/>
    </contour>
  </outline>
</glyph>
<glyph name="g" format="1">
  <advance width="1249.35"/>
  <unicode hex="0067"/>
  <outline>
    <contour>
      <point x="600.1" y="166.15" type="curve" smooth="yes"/>
      <point x="380.05" y="166.15"/>
      <point x="302.8" y="349.0"/>
      <point x="302.8" y="539.4" type="curve" smooth="yes"/>
      <point x="302.8" y="739.4"/>
      <point x="387.85" y="928.65"/>
      <point x="606.4" y="928.65" type="curve" smooth="yes"/>
      <point x="819.55" y="928.65"/>
      <point x="897.5" y="783.5"/>
      <point x="897.5" y="573.35" type="curve" smooth="yes"/>
      <point x="897.5" y="505.1" type="line"/>
      <point x="896.4" y="315.15"/>
      <point x="816.8" y="166.15"/>
    </contour>
    <contour>
      <point x="520.65" y="-467.65" type="curve" smooth="yes"/>
      <point x="927.7" y="-467.65"/>
      <point x="1093.75" y="-229.9"/>
      <point x="1093.75" y="119.2" type="curve" smooth="yes"/>
      <point x="1093.75" y="1061.6" type="line"/>
      <point x="911.55" y="1061.6" type="line"/>
      <point x="894.8" y="854.5" type="line"/>
      <point x="930.0" y="860.0" type="line"/>
      <point x="874.5" y="1007.65"/>
      <point x="753.0" y="1084.45"/>
      <point x="582.5" y="1084.45" type="curve" smooth="yes"/>
      <point x="279.25" y="1084.45"/>
      <point x="99.95" y="845.7"/>
      <point x="99.95" y="531.5" type="curve" smooth="yes"/>
      <point x="99.95" y="254.6"/>
      <point x="264.95" y="11.55"/>
      <point x="570.8" y="11.55" type="curve" smooth="yes"/>
      <point x="758.1" y="11.55"/>
      <point x="894.75" y="102.5"/>
      <point x="939.55" y="279.2" type="curve"/>
      <point x="895.85" y="283.8" type="line"/>
      <point x="895.85" y="59.8" type="line" smooth="yes"/>
      <point x="895.85" y="-170.65"/>
      <point x="790.4" y="-308.75"/>
      <point x="513.7" y="-308.75" type="curve" smooth="yes"/>
      <point x="474.95" y="-308.75"/>
      <point x="355.85" y="-303.35"/>
      <point x="263.45" y="-300.15" type="curve"/>
      <point x="263.45" y="-459.05" type="line"/>
      <point x="393.25" y="-461.8"/>
      <point x="467.3" y="-467.65"/>
    </contour>
  </outline>
</glyph>
<glyph name="h" format="1">
  <advance width="1213.1"/>
  <unicode hex="0068"/>
  <outline>
    <contour>
      <point x="164.95" y="0.0" type="line"/>
      <point x="366.15" y="0.0" type="line"/>
      <point x="366.15" y="556.4" type="line" smooth="yes"/>
      <point x="366.15" y="752.35"/>
      <point x="424.5" y="928.65"/>
      <point x="658.5" y="928.65" type="curve" smooth="yes"/>
      <point x="806.05" y="928.65"/>
      <point x="857.2" y="837.75"/>
      <point x="857.2" y="648.0" type="curve" smooth="yes"/>
      <point x="857.2" y="0.0" type="line"/>
      <point x="1059.6" y="0.0" type="line"/>
      <point x="1059.6" y="660.75" type="line" smooth="yes"/>
      <point x="1059.6" y="939.15"/>
      <point x="925.8" y="1083.9"/>
      <point x="696.3" y="1083.9" type="curve" smooth="yes"/>
      <point x="525.05" y="1083.9"/>
      <point x="383.2" y="999.95"/>
      <point x="314.8" y="857.7" type="curve"/>
      <point x="359.15" y="841.2" type="line"/>
      <point x="367.8" y="1131.25" type="line"/>
      <point x="367.8" y="1459.3" type="line"/>
      <point x="164.95" y="1446.0" type="line"/>
    </contour>
  </outline>
</glyph>
<glyph name="i" format="1">
  <advance width="533.7"/>
  <unicode hex="0069"/>
  <outline>
    <contour>
      <point x="169.25" y="0.0" type="line"/>
      <point x="372.1" y="0.0" type="line"/>
      <point x="372.1" y="1061.6" type="line"/>
      <point x="169.25" y="1061.6" type="line"/>
    </contour>
    <contour>
      <point x="169.25" y="1250.55" type="line"/>
      <point x="372.1" y="1250.55" type="line"/>
      <point x="372.1" y="1433.05" type="line"/>
      <point x="169.25" y="1433.05" type="line"/>
    </contour>
  </outline>
</glyph>
<glyph name="j" format="1">
  <advance width="573.7"/>
  <unicode hex="006A"/>
  <outline>
    <contour>
      <point x="19.25" y="-364.25" type="line"/>
      <point x="79.1" y="-364.25" type="line" smooth="yes"/>
      <point x="340.2" y="-364.25"/>
      <point x="416.45" y="-248.85"/>
      <point x="416.45" y="18.6" type="curve" smooth="yes"/>
      <point x="416.45" y="1062.15" type="line"/>
      <point x="214.35" y="1062.15" type="line"/>
      <point x="214.35" y="24.25" type="line" smooth="yes"/>
      <point x="214.35" y="-148.9"/>
      <point x="206.2" y="-205.45"/>
      <point x="55.95" y="-205.45" type="curve" smooth="yes"/>
      <point x="2.2" y="-205.45" type="line"/>
    </contour>
    <contour>
      <point x="214.35" y="1250.55" type="line"/>
      <point x="416.45" y="1250.55" type="line"/>
      <point x="416.45" y="1433.05" type="line"/>
      <point x="214.35" y="1433.05" type="line"/>
    </contour>
  </outline>
</glyph>
<glyph name="k" format="1">
  <advance width="1131.1"/>
  <unicode hex="006B"/>
  <outline>
    <contour>
      <point x="164.95" y="0.0" type="line"/>
      <point x="367.8" y="0.0" type="line"/>
      <point x="367.8" y="432.55" type="line"/>
      <point x="317.4" y="327.9" type="line"/>
      <point x="516.3" y="512.3" type="line"/>
      <point x="446.5" y="512.3" type="line"/>
      <point x="867.3" y="0.0" type="line"/>
      <point x="1105.9" y="0.0" type="line"/>
      <point x="594.05" y="622.6" type="line"/>
      <point x="594.05" y="531.4" type="line"/>
      <point x="1089.0" y="1061.6" type="line"/>
      <point x="838.65" y="1061.6" type="line"/>
      <point x="321.2" y="514.5" type="line"/>
      <point x="360.8" y="514.5" type="line"/>
      <point x="367.8" y="769.55" type="line"/>
      <point x="367.8" y="1459.85" type="line"/>
      <point x="164.95" y="1446.55" type="line"/>
    </contour>
  </outline>
</glyph>
<glyph name="l" format="1">
  <advance width="695.3"/>
  <unicode hex="006C"/>
  <outline>
    <contour>
      <point x="508.75" y="-12.65" type="curve" smooth="yes"/>
      <point x="592.7" y="-12.65"/>
      <point x="665.85" y="8.55"/>
      <point x="675.3" y="9.9" type="curve"/>
      <point x="675.3" y="147.35" type="line"/>
      <point x="670.8" y="146.9"/>
      <point x="608.65" y="137.6"/>
      <point x="544.5" y="137.6" type="curve" smooth="yes"/>
      <point x="431.85" y="137.6"/>
      <point x="368.35" y="168.15"/>
      <point x="368.35" y="318.1" type="curve" smooth="yes"/>
      <point x="368.35" y="1459.85" type="line"/>
      <point x="165.5" y="1446.55" type="line"/>
      <point x="165.5" y="337.65" type="line" smooth="yes"/>
      <point x="165.5" y="74.55"/>
      <point x="289.75" y="-12.65"/>
    </contour>
  </outline>
</glyph>
<glyph name="m" format="1">
  <advance width="1791.5"/>
  <unicode hex="006D"/>
  <outline>
    <contour>
      <point x="164.95" y="0.0" type="line"/>
      <point x="367.8" y="0.0" type="line"/>
      <point x="367.8" y="600.0" type="line" smooth="yes"/>
      <point x="384.45" y="787.05"/>
      <point x="451.3" y="929.2"/>
      <point x="629.45" y="929.2" type="curve" smooth="yes"/>
      <point x="771.35" y="929.2"/>
      <point x="804.85" y="824.85"/>
      <point x="804.85" y="603.35" type="curve" smooth="yes"/>
      <point x="804.85" y="0.0" type="line"/>
      <point x="1007.7" y="0.0" type="line"/>
      <point x="1007.7" y="572.9" type="line"/>
      <point x="1011.0" y="644.05"/>
      <point x="1015.05" y="694.45"/>
      <point x="1025.0" y="726.7" type="curve" smooth="yes"/>
      <point x="1059.75" y="859.95"/>
      <point x="1149.9" y="929.2"/>
      <point x="1263.75" y="929.2" type="curve" smooth="yes"/>
      <point x="1429.3" y="929.2"/>
      <point x="1435.7" y="773.9"/>
      <point x="1435.7" y="604.4" type="curve" smooth="yes"/>
      <point x="1435.7" y="0.0" type="line"/>
      <point x="1638.55" y="0.0" type="line"/>
      <point x="1638.55" y="680.7" type="line" smooth="yes"/>
      <point x="1638.55" y="941.55"/>
      <point x="1532.7" y="1084.45"/>
      <point x="1303.35" y="1084.45" type="curve" smooth="yes"/>
      <point x="1137.2" y="1084.45"/>
      <point x="1013.9" y="993.55"/>
      <point x="938.8" y="842.2" type="curve"/>
      <point x="986.1" y="842.2" type="line"/>
      <point x="935.95" y="982.2"/>
      <point x="859.65" y="1084.45"/>
      <point x="674.6" y="1084.45" type="curve" smooth="yes"/>
      <point x="496.05" y="1084.45"/>
      <point x="378.9" y="984.95"/>
      <point x="311.6" y="858.45" type="curve"/>
      <point x="361.3" y="849.65" type="line"/>
      <point x="329.5" y="1061.6" type="line"/>
      <point x="164.95" y="1061.6" type="line"/>
    </contour>
  </outline>
</glyph>
<glyph name="n" format="1">
  <advance width="1229.65"/>
  <unicode hex="006E"/>
  <outline>
    <contour>
      <point x="164.95" y="0.0" type="line"/>
      <point x="367.8" y="0.0" type="line"/>
      <point x="367.8" y="565.55" type="line" smooth="yes"/>
      <point x="367.8" y="768.85"/>
      <point x="437.15" y="929.2"/>
      <point x="675.0" y="929.2" type="curve" smooth="yes"/>
      <point x="831.3" y="929.2"/>
      <point x="873.2" y="827.35"/>
      <point x="873.3" y="656.95" type="curve"/>
      <point x="873.3" y="0.0" type="line"/>
      <point x="1076.15" y="0.0" type="line"/>
      <point x="1076.15" y="655.8" type="line" smooth="yes"/>
      <point x="1076.15" y="935.55"/>
      <point x="962.55" y="1084.45"/>
      <point x="717.8" y="1084.45" type="curve" smooth="yes"/>
      <point x="521.45" y="1084.45"/>
      <point x="395.95" y="996.15"/>
      <point x="319.25" y="864.1" type="curve"/>
      <point x="365.7" y="864.1" type="line"/>
      <point x="335.8" y="1061.6" type="line"/>
      <point x="164.95" y="1061.6" type="line"/>
    </contour>
  </outline>
</glyph>
<glyph name="o" format="1">
  <advance width="1234.7"/>
  <unicode hex="006F"/>
  <outline>
    <contour>
      <point x="617.35" y="135.7" type="curve" smooth="yes"/>
      <point x="418.75" y="135.7"/>
      <point x="311.4" y="292.95"/>
      <point x="311.4" y="530.8" type="curve" smooth="yes"/>
      <point x="311.4" y="771.5"/>
      <point x="420.4" y="929.2"/>
      <point x="617.35" y="929.2" type="curve" smooth="yes"/>
      <point x="819.1" y="929.2"/>
      <point x="923.3" y="771.05"/>
      <point x="923.3" y="530.35" type="curve" smooth="yes"/>
      <point x="923.3" y="291.85"/>
      <point x="819.9" y="135.7"/>
    </contour>
    <contour>
      <point x="617.35" y="-19.0" type="curve" smooth="yes"/>
      <point x="924.15" y="-19.0"/>
      <point x="1125.25" y="204.9"/>
      <point x="1125.25" y="531.7" type="curve" smooth="yes"/>
      <point x="1125.25" y="862.6"/>
      <point x="930.25" y="1084.45"/>
      <point x="617.35" y="1084.45" type="curve" smooth="yes"/>
      <point x="302.45" y="1084.45"/>
      <point x="109.45" y="865.3"/>
      <point x="109.45" y="531.7" type="curve" smooth="yes"/>
      <point x="109.45" y="206.3"/>
      <point x="309.6" y="-19.0"/>
    </contour>
  </outline>
</glyph>
<glyph name="p" format="1">
  <advance width="1241.55"/>
  <unicode hex="0070"/>
  <outline>
    <contour>
      <point x="166.05" y="-451.4" type="line"/>
      <point x="368.35" y="-440.65" type="line"/>
      <point x="368.35" y="-47.95" type="line"/>
      <point x="359.2" y="261.75" type="line"/>
      <point x="314.95" y="233.6" type="line"/>
      <point x="360.7" y="122.6"/>
      <point x="483.45" y="-19.0"/>
      <point x="688.6" y="-19.0" type="curve" smooth="yes"/>
      <point x="967.9" y="-19.0"/>
      <point x="1132.1" y="210.35"/>
      <point x="1132.1" y="530.45" type="curve" smooth="yes"/>
      <point x="1132.1" y="851.05"/>
      <point x="977.8" y="1084.45"/>
      <point x="696.65" y="1084.45" type="curve" smooth="yes"/>
      <point x="532.95" y="1084.45"/>
      <point x="392.25" y="994.2"/>
      <point x="318.1" y="837.3" type="curve"/>
      <point x="364.75" y="835.05" type="line"/>
      <point x="337.3" y="1061.6" type="line"/>
      <point x="166.05" y="1061.6" type="line"/>
    </contour>
    <contour>
      <point x="653.8" y="136.25" type="curve" smooth="yes"/>
      <point x="470.4" y="136.25"/>
      <point x="365.45" y="276.05"/>
      <point x="365.45" y="548.8" type="curve"/>
      <point x="366.55" y="789.75"/>
      <point x="460.0" y="929.2"/>
      <point x="657.0" y="929.2" type="curve" smooth="yes"/>
      <point x="841.75" y="929.2"/>
      <point x="929.25" y="779.95"/>
      <point x="929.25" y="532.45" type="curve" smooth="yes"/>
      <point x="929.25" y="283.95"/>
      <point x="836.2" y="136.25"/>
    </contour>
  </outline>
</glyph>
<glyph name="q" format="1">
  <advance width="1259.6"/>
  <unicode hex="0071"/>
  <outline>
    <contour>
      <point x="894.25" y="-451.4" type="line"/>
      <point x="1096.2" y="-440.45" type="line"/>
      <point x="1096.2" y="1061.6" type="line"/>
      <point x="915.1" y="1061.6" type="line"/>
      <point x="890.9" y="844.3" type="line"/>
      <point x="931.2" y="855.55" type="line"/>
      <point x="873.15" y="976.75"/>
      <point x="766.95" y="1084.45"/>
      <point x="568.75" y="1084.45" type="curve" smooth="yes"/>
      <point x="274.65" y="1084.45"/>
      <point x="109.45" y="852.15"/>
      <point x="109.45" y="528.2" type="curve" smooth="yes"/>
      <point x="109.45" y="209.3"/>
      <point x="293.65" y="-19.0"/>
      <point x="568.8" y="-19.0" type="curve" smooth="yes"/>
      <point x="774.9" y="-19.0"/>
      <point x="885.5" y="97.3"/>
      <point x="948.2" y="240.9" type="curve"/>
      <point x="901.25" y="260.55" type="line"/>
      <point x="894.25" y="-39.7" type="line"/>
    </contour>
    <contour>
      <point x="602.4" y="135.15" type="curve" smooth="yes"/>
      <point x="412.45" y="135.15"/>
      <point x="311.4" y="283.15"/>
      <point x="311.4" y="532.95" type="curve" smooth="yes"/>
      <point x="311.4" y="780.2"/>
      <point x="410.6" y="928.65"/>
      <point x="601.65" y="928.65" type="curve" smooth="yes"/>
      <point x="806.75" y="928.65"/>
      <point x="896.25" y="790.3"/>
      <point x="896.25" y="541.15" type="curve"/>
      <point x="895.95" y="273.75"/>
      <point x="813.65" y="135.15"/>
    </contour>
  </outline>
</glyph>
<glyph name="r" format="1">
  <advance width="823.3"/>
  <unicode hex="0072"/>
  <outline>
    <contour>
      <point x="165.5" y="0.0" type="line"/>
      <point x="368.35" y="0.0" type="line"/>
      <point x="368.35" y="592.05" type="line" smooth="yes"/>
      <point x="368.35" y="769.1"/>
      <point x="493.0" y="904.15"/>
      <point x="676.7" y="904.15" type="curve" smooth="yes"/>
      <point x="700.55" y="904.15"/>
      <point x="727.0" y="901.7"/>
      <point x="755.7" y="896.15" type="curve"/>
      <point x="761.5" y="1064.65" type="line"/>
      <point x="736.65" y="1069.3"/>
      <point x="711.05" y="1070.2"/>
      <point x="683.45" y="1070.2" type="curve" smooth="yes"/>
      <point x="553.15" y="1070.2"/>
      <point x="404.65" y="996.05"/>
      <point x="316.35" y="802.25" type="curve"/>
      <point x="362.5" y="794.4" type="line"/>
      <point x="331.75" y="1061.6" type="line"/>
      <point x="165.5" y="1061.6" type="line"/>
    </contour>
  </outline>
</glyph>
<glyph name="s" format="1">
  <advance width="977.75"/>
  <unicode hex="0073"/>
  <outline>
    <contour>
      <point x="496.2" y="-18.45" type="curve" smooth="yes"/>
      <point x="734.5" y="-18.45"/>
      <point x="874.9" y="91.4"/>
      <point x="874.9" y="294.0" type="curve" smooth="yes"/>
      <point x="874.9" y="456.15"/>
      <point x="802.75" y="549.2"/>
      <point x="587.4" y="610.8" type="curve" smooth="yes"/>
      <point x="495.65" y="637.1" type="line" smooth="yes"/>
      <point x="354.75" y="677.7"/>
      <point x="320.4" y="717.3"/>
      <point x="320.4" y="799.55" type="curve" smooth="yes"/>
      <point x="320.4" y="877.3"/>
      <point x="389.3" y="935.25"/>
      <point x="530.4" y="935.25" type="curve" smooth="yes"/>
      <point x="642.95" y="935.25"/>
      <point x="723.35" y="902.35"/>
      <point x="783.05" y="875.45" type="curve"/>
      <point x="831.0" y="1014.85" type="line"/>
      <point x="732.45" y="1061.75"/>
      <point x="636.25" y="1084.45"/>
      <point x="509.15" y="1084.45" type="curve" smooth="yes"/>
      <point x="286.05" y="1084.45"/>
      <point x="141.35" y="964.4"/>
      <point x="141.35" y="784.0" type="curve"/>
      <point x="141.9" y="640.1"/>
      <point x="213.45" y="545.2"/>
      <point x="404.55" y="491.35" type="curve" smooth="yes"/>
      <point x="510.25" y="461.65" type="line" smooth="yes"/>
      <point x="665.4" y="417.25"/>
      <point x="699.95" y="375.2"/>
      <point x="696.65" y="276.85" type="curve" smooth="yes"/>
      <point x="693.9" y="180.25"/>
      <point x="629.9" y="129.1"/>
      <point x="496.05" y="129.1" type="curve" smooth="yes"/>
      <point x="370.8" y="129.1"/>
      <point x="243.1" y="180.35"/>
      <point x="195.25" y="203.75" type="curve"/>
      <point x="145.65" y="64.3" type="line"/>
      <point x="176.1" y="45.95"/>
      <point x="319.1" y="-18.45"/>
    </contour>
  </outline>
</glyph>
<glyph name="t" format="1">
  <advance width="847.75"/>
  <unicode hex="0074"/>
  <outline>
    <contour>
      <point x="567.65" y="-12.65" type="curve" smooth="yes"/>
      <point x="687.6" y="-12.65"/>
      <point x="763.25" y="12.7"/>
      <point x="763.25" y="12.7" type="curve"/>
      <point x="763.25" y="147.9" type="line"/>
      <point x="763.25" y="147.9"/>
      <point x="668.0" y="135.7"/>
      <point x="607.45" y="135.7" type="curve" smooth="yes"/>
      <point x="503.0" y="135.7"/>
      <point x="435.65" y="173.4"/>
      <point x="435.65" y="344.5" type="curve" smooth="yes"/>
      <point x="435.65" y="975.7" type="line"/>
      <point x="398.15" y="934.6" type="line"/>
      <point x="740.4" y="934.6" type="line"/>
      <point x="740.4" y="1061.6" type="line"/>
      <point x="397.6" y="1061.6" type="line"/>
      <point x="435.65" y="1016.3" type="line"/>
      <point x="435.65" y="1329.2" type="line"/>
      <point x="294.6" y="1326.5" type="line"/>
      <point x="234.9" y="1025.0" type="line"/>
      <point x="290.85" y="1064.6" type="line"/>
      <point x="81.5" y="1049.95" type="line"/>
      <point x="73.25" y="935.15" type="line"/>
      <point x="270.3" y="935.15" type="line"/>
      <point x="232.8" y="976.7" type="line"/>
      <point x="232.8" y="349.4" type="line" smooth="yes"/>
      <point x="232.8" y="102.8"/>
      <point x="341.65" y="-12.65"/>
    </contour>
  </outline>
</glyph>
<glyph name="u" format="1">
  <advance width="1228.65"/>
  <unicode hex="0075"/>
  <outline>
    <contour>
      <point x="1065.15" y="1061.6" type="line"/>
      <point x="862.85" y="1061.6" type="line"/>
      <point x="862.85" y="481.2" type="line" smooth="yes"/>
      <point x="862.85" y="277.9"/>
      <point x="794.15" y="132.4"/>
      <point x="573.9" y="132.4" type="curve" smooth="yes"/>
      <point x="410.45" y="132.4"/>
      <point x="356.9" y="234.25"/>
      <point x="357.35" y="404.65" type="curve" smooth="yes"/>
      <point x="357.35" y="1061.6" type="line"/>
      <point x="154.5" y="1061.6" type="line"/>
      <point x="154.5" y="405.8" type="line" smooth="yes"/>
      <point x="154.5" y="120.0"/>
      <point x="274.15" y="-22.85"/>
      <point x="518.9" y="-22.85" type="curve" smooth="yes"/>
      <point x="715.25" y="-22.85"/>
      <point x="841.75" y="41.55"/>
      <point x="917.45" y="211.9" type="curve"/>
      <point x="870.55" y="211.9" type="line"/>
      <point x="900.9" y="0.0" type="line"/>
      <point x="1065.15" y="0.0" type="line"/>
    </contour>
  </outline>
</glyph>
<glyph name="v" format="1">
  <advance width="1103.6"/>
  <unicode hex="0076"/>
  <outline>
    <contour>
      <point x="458.6" y="0.0" type="line"/>
      <point x="658.55" y="0.0" type="line"/>
      <point x="1056.6" y="1061.6" type="line"/>
      <point x="847.6" y="1061.6" type="line"/>
      <point x="644.15" y="469.35" type="line"/>
      <point x="539.45" y="143.65" type="line"/>
      <point x="582.75" y="143.65" type="line"/>
      <point x="470.25" y="468.1" type="line"/>
      <point x="258.2" y="1061.6" type="line"/>
      <point x="47.0" y="1061.6" type="line"/>
    </contour>
  </outline>
</glyph>
<glyph name="w" format="1">
  <advance width="1600.65"/>
  <unicode hex="0077"/>
  <outline>
    <contour>
      <point x="349.6" y="0.0" type="line"/>
      <point x="543.05" y="0.0" type="line"/>
      <point x="820.95" y="934.15" type="line"/>
      <point x="782.95" y="934.15" type="line"/>
      <point x="1067.0" y="0.0" type="line"/>
      <point x="1253.45" y="0.0" type="line"/>
      <point x="1550.75" y="1061.6" type="line"/>
      <point x="1360.7" y="1061.6" type="line"/>
      <point x="1138.6" y="165.1" type="line"/>
      <point x="1176.35" y="165.1" type="line"/>
      <point x="907.4" y="1061.6" type="line"/>
      <point x="698.55" y="1061.6" type="line"/>
      <point x="435.8" y="165.1" type="line"/>
      <point x="470.35" y="165.1" type="line"/>
      <point x="243.95" y="1061.6" type="line"/>
      <point x="49.9" y="1061.6" type="line"/>
    </contour>
  </outline>
</glyph>
<glyph name="x" format="1">
  <advance width="1100.0"/>
  <unicode hex="0078"/>
  <outline>
    <contour>
      <point x="41.25" y="0.0" type="line"/>
      <point x="267.0" y="0.0" type="line"/>
      <point x="569.8" y="427.0" type="line"/>
      <point x="648.55" y="495.05" type="line"/>
      <point x="1048.3" y="1061.6" type="line"/>
      <point x="822.55" y="1061.6" type="line"/>
      <point x="533.45" y="644.1" type="line"/>
      <point x="454.2" y="577.15" type="line"/>
    </contour>
    <contour>
      <point x="827.95" y="0.0" type="line"/>
      <point x="1056.1" y="0.0" type="line"/>
      <point x="290.85" y="1061.6" type="line"/>
      <point x="63.45" y="1061.6" type="line"/>
    </contour>
  </outline>
</glyph>
<glyph name="y" format="1">
  <advance width="1103.6"/>
  <unicode hex="0079"/>
  <outline>
    <contour>
      <point x="511.65" y="-397.25" type="line"/>
      <point x="1061.05" y="1061.6" type="line"/>
      <point x="853.05" y="1061.6" type="line"/>
      <point x="558.45" y="193.9" type="line"/>
      <point x="603.35" y="193.9" type="line"/>
      <point x="276.05" y="1061.6" type="line"/>
      <point x="67.8" y="1061.6" type="line"/>
      <point x="511.0" y="-40.8" type="line"/>
      <point x="511.0" y="94.3" type="line"/>
      <point x="331.25" y="-364.7" type="line"/>
    </contour>
  </outline>
</glyph>
<glyph name="z" format="1">
  <advance width="966.85"/>
  <unicode hex="007A"/>
  <outline>
    <contour>
      <point x="115.6" y="0.0" type="line"/>
      <point x="867.9" y="0.0" type="line"/>
      <point x="867.9" y="148.45" type="line"/>
      <point x="281.6" y="148.45" type="line"/>
      <point x="302.85" y="82.9" type="line"/>
      <point x="855.85" y="922.5" type="line"/>
      <point x="855.85" y="1061.6" type="line"/>
      <point x="137.7" y="1061.6" type="line"/>
      <point x="137.7" y="918.1" type="line"/>
      <point x="703.45" y="918.1" type="line"/>
      <point x="678.7" y="976.9" type="line"/>
      <point x="115.6" y="128.2" type="line"/>
    </contour>
  </outline>
</glyph>
<glyph name="braceleft" format="1">
  <advance width="741.85"/>
  <unicode hex="007B"/>
  <outline>
    <contour>
      <point x="645.35" y="-267.8" type="line"/>
      <point x="398.3" y="-267.8"/>
      <point x="290.7" y="-169.8"/>
      <point x="290.7" y="52.25" type="curve" smooth="yes"/>
      <point x="290.7" y="264.45" type="line" smooth="yes"/>
      <point x="290.7" y="425.45"/>
      <point x="263.95" y="519.25"/>
      <point x="84.3" y="520.6" type="curve"/>
      <point x="84.3" y="681.6" type="line"/>
      <point x="265.1" y="682.15"/>
      <point x="290.7" y="774.8"/>
      <point x="290.7" y="935.1" type="curve" smooth="yes"/>
      <point x="290.7" y="1181.95" type="line" smooth="yes"/>
      <point x="290.7" y="1387.5"/>
      <point x="413.55" y="1477.65"/>
      <point x="645.35" y="1478.1" type="curve"/>
      <point x="645.35" y="1324.8" type="line"/>
      <point x="507.05" y="1322.8"/>
      <point x="470.3" y="1274.15"/>
      <point x="470.3" y="1121.85" type="curve" smooth="yes"/>
      <point x="470.3" y="866.15" type="line"/>
      <point x="469.2" y="724.85"/>
      <point x="420.7" y="649.3"/>
      <point x="293.05" y="598.3" type="curve"/>
      <point x="416.65" y="562.6"/>
      <point x="470.3" y="486.7"/>
      <point x="470.3" y="341.7" type="curve" smooth="yes"/>
      <point x="470.3" y="85.35" type="line" smooth="yes"/>
      <point x="470.3" y="-63.35"/>
      <point x="505.15" y="-115.4"/>
      <point x="645.35" y="-117.4" type="curve"/>
    </contour>
  </outline>
</glyph>
<glyph name="bar" format="1">
  <advance width="433.1"/>
  <unicode hex="007C"/>
  <outline>
    <contour>
      <point x="151.55" y="-331.55" type="line"/>
      <point x="151.55" y="1542.5" type="line"/>
      <point x="306.3" y="1542.5" type="line"/>
      <point x="306.3" y="-331.55" type="line"/>
    </contour>
  </outline>
</glyph>
<glyph name="braceright" format="1">
  <advance width="741.85"/>
  <unicode hex="007D"/>
  <outline>
    <contour>
      <point x="102.45" y="-267.8" type="curve"/>
      <point x="102.45" y="-116.05" type="line"/>
      <point x="240.75" y="-114.05"/>
      <point x="276.4" y="-67.05"/>
      <point x="276.4" y="85.8" type="curve" smooth="yes"/>
      <point x="276.4" y="342.6" type="line" smooth="yes"/>
      <point x="276.4" y="467.0"/>
      <point x="324.35" y="551.9"/>
      <point x="454.75" y="605.95" type="curve"/>
      <point x="327.85" y="647.15"/>
      <point x="277.5" y="749.05"/>
      <point x="276.4" y="867.05" type="curve"/>
      <point x="276.4" y="1122.3" type="line" smooth="yes"/>
      <point x="276.4" y="1271.55"/>
      <point x="242.65" y="1324.6"/>
      <point x="102.45" y="1326.6" type="curve"/>
      <point x="102.45" y="1478.1" type="line"/>
      <point x="348.95" y="1478.1"/>
      <point x="456.0" y="1380.75"/>
      <point x="456.0" y="1155.4" type="curve" smooth="yes"/>
      <point x="456.0" y="937.7" type="line" smooth="yes"/>
      <point x="456.0" y="776.7"/>
      <point x="480.0" y="686.2"/>
      <point x="662.95" y="684.3" type="curve"/>
      <point x="662.95" y="523.75" type="line"/>
      <point x="486.0" y="523.75"/>
      <point x="456.0" y="428.9"/>
      <point x="456.0" y="268.05" type="curve" smooth="yes"/>
      <point x="456.0" y="25.7" type="line" smooth="yes"/>
      <point x="456.0" y="-178.75"/>
      <point x="337.55" y="-267.35"/>
    </contour>
  </outline>
</glyph>
<glyph name="asciitilde" format="1">
  <advance width="1168.7"/>
  <unicode hex="007E"/>
  <outline>
    <contour>
      <point x="166.4" y="478.4" type="curve"/>
      <point x="108.55" y="590.55" type="line"/>
      <point x="154.85" y="696.05"/>
      <point x="240.0" y="781.25"/>
      <point x="373.75" y="781.25" type="curve" smooth="yes"/>
      <point x="453.95" y="781.25"/>
      <point x="520.4" y="757.4"/>
      <point x="613.0" y="716.55" type="curve" smooth="yes"/>
      <point x="703.65" y="677.3"/>
      <point x="776.9" y="644.5"/>
      <point x="833.85" y="644.5" type="curve" smooth="yes"/>
      <point x="911.5" y="644.5"/>
      <point x="985.4" y="704.0"/>
      <point x="1037.75" y="788.75" type="curve"/>
      <point x="1097.7" y="683.4" type="line"/>
      <point x="1048.6" y="571.85"/>
      <point x="956.05" y="490.65"/>
      <point x="827.4" y="490.65" type="curve" smooth="yes"/>
      <point x="750.8" y="490.65"/>
      <point x="680.1" y="518.2"/>
      <point x="596.05" y="555.95" type="curve"/>
      <point x="504.65" y="597.5"/>
      <point x="437.15" y="627.7"/>
      <point x="368.35" y="627.7" type="curve" smooth="yes"/>
      <point x="282.3" y="627.7"/>
      <point x="209.8" y="558.75"/>
    </contour>
  </outline>
</glyph>
<glyph name="cent" format="1">
  <advance width="966.25"/>
  <unicode hex="00A2"/>
  <outline>
    <contour>
      <point x="567.4" y="-154.35" type="line"/>
      <point x="651.35" y="-154.35" type="line"/>
      <point x="651.35" y="1224.35" type="line"/>
      <point x="567.4" y="1224.35" type="line"/>
    </contour>
    <component base="c"/>
  </outline>
</glyph>
<glyph name="sterling" format="1">
  <advance width="1093.3"/>
  <unicode hex="00A3"/>
  <outline>
    <contour>
      <point x="106.95" y="4.7" type="line"/>
      <point x="96.05" y="154.55" type="line"/>
      <point x="271.3" y="172.95" type="line"/>
      <point x="271.3" y="652.55" type="line"/>
      <point x="92.45" y="652.55" type="line"/>
      <point x="92.45" y="797.0" type="line"/>
      <point x="271.3" y="797.0" type="line"/>
      <point x="271.3" y="899.95" type="line" smooth="yes"/>
      <point x="271.3" y="1196.15"/>
      <point x="348.15" y="1451.95"/>
      <point x="685.5" y="1451.95" type="curve" smooth="yes"/>
      <point x="830.25" y="1451.95"/>
      <point x="946.5" y="1399.05"/>
      <point x="1035.3" y="1323.9" type="curve"/>
      <point x="952.75" y="1194.1" type="line"/>
      <point x="868.6" y="1256.85"/>
      <point x="787.05" y="1292.2"/>
      <point x="689.3" y="1292.2" type="curve" smooth="yes"/>
      <point x="512.75" y="1292.2"/>
      <point x="454.8" y="1166.8"/>
      <point x="454.8" y="970.2" type="curve" smooth="yes"/>
      <point x="454.8" y="797.0" type="line"/>
      <point x="842.7" y="797.0" type="line"/>
      <point x="842.7" y="652.65" type="line"/>
      <point x="454.8" y="652.65" type="line"/>
      <point x="454.8" y="174.95" type="line"/>
      <point x="1050.6" y="174.95" type="line"/>
      <point x="1040.1" y="4.7" type="line"/>
    </contour>
  </outline>
</glyph>
<glyph name="currency" format="1">
  <advance width="1186.65"/>
  <unicode hex="00A4"/>
  <outline>
    <contour>
      <point x="1037.85" y="223.15" type="line"/>
      <point x="1111.1" y="301.85" type="line"/>
      <point x="936.05" y="471.7" type="line"/>
      <point x="985.35" y="540.05"/>
      <point x="1010.6" y="618.9"/>
      <point x="1010.6" y="707.65" type="curve" smooth="yes"/>
      <point x="1010.6" y="792.8"/>
      <point x="984.15" y="873.75"/>
      <point x="935.05" y="944.05" type="curve"/>
      <point x="1112.1" y="1113.65" type="line"/>
      <point x="1037.85" y="1192.25" type="line"/>
      <point x="858.8" y="1023.65" type="line"/>
      <point x="789.1" y="1080.05"/>
      <point x="705.0" y="1111.65"/>
      <point x="610.25" y="1111.65" type="curve" smooth="yes"/>
      <point x="516.6" y="1111.65"/>
      <point x="429.2" y="1080.3"/>
      <point x="360.25" y="1025.2" type="curve"/>
      <point x="184.4" y="1192.25" type="line"/>
      <point x="105.6" y="1115.55" type="line"/>
      <point x="285.0" y="944.05" type="line"/>
      <point x="235.25" y="874.25"/>
      <point x="209.0" y="794.05"/>
      <point x="209.0" y="707.65" type="curve" smooth="yes"/>
      <point x="209.0" y="620.25"/>
      <point x="235.9" y="540.2"/>
      <point x="285.0" y="471.7" type="curve"/>
      <point x="106.6" y="301.65" type="line"/>
      <point x="184.4" y="224.7" type="line"/>
      <point x="359.6" y="391.1" type="line"/>
      <point x="429.2" y="334.8"/>
      <point x="514.5" y="305.1"/>
      <point x="610.25" y="305.1" type="curve" smooth="yes"/>
      <point x="704.9" y="305.1"/>
      <point x="789.75" y="336.45"/>
      <point x="858.8" y="391.2" type="curve"/>
    </contour>
    <contour>
      <point x="610.25" y="415.95" type="curve" smooth="yes"/>
      <point x="441.4" y="415.95"/>
      <point x="325.35" y="548.2"/>
      <point x="325.35" y="707.65" type="curve" smooth="yes"/>
      <point x="325.35" y="866.55"/>
      <point x="441.4" y="1000.35"/>
      <point x="610.25" y="1000.35" type="curve" smooth="yes"/>
      <point x="780.2" y="1000.35"/>
      <point x="896.25" y="866.65"/>
      <point x="896.25" y="707.65" type="curve" smooth="yes"/>
      <point x="896.25" y="548.65"/>
      <point x="781.2" y="415.95"/>
    </contour>
  </outline>
</glyph>
<glyph name="yen" format="1">
  <advance width="1243.05"/>
  <unicode hex="00A5"/>
  <outline>
    <contour>
      <point x="538.0" y="0.0" type="line"/>
      <point x="755.7" y="0.0" type="line"/>
      <point x="755.7" y="259.75" type="line"/>
      <point x="1067.4" y="259.75" type="line"/>
      <point x="1067.4" y="388.75" type="line"/>
      <point x="755.7" y="388.75" type="line"/>
      <point x="755.7" y="548.7" type="line"/>
      <point x="1066.5" y="548.7" type="line"/>
      <point x="1066.5" y="674.0" type="line"/>
      <point x="811.0" y="674.0" type="line"/>
      <point x="1222.7" y="1433.05" type="line"/>
      <point x="999.25" y="1433.05" type="line"/>
      <point x="645.75" y="749.6" type="line"/>
      <point x="280.75" y="1433.05" type="line"/>
      <point x="55.0" y="1433.05" type="line"/>
      <point x="480.45" y="674.0" type="line"/>
      <point x="223.1" y="674.0" type="line"/>
      <point x="223.1" y="548.7" type="line"/>
      <point x="538.0" y="548.7" type="line"/>
      <point x="538.0" y="388.75" type="line"/>
      <point x="222.2" y="388.75" type="line"/>
      <point x="222.2" y="259.75" type="line"/>
      <point x="538.0" y="259.75" type="line"/>
    </contour>
  </outline>
</glyph>
<glyph name="brokenbar" format="1">
  <advance width="471.4"/>
  <unicode hex="00A6"/>
  <outline>
    <contour>
      <point x="170.1" y="-268.95" type="line"/>
      <point x="170.1" y="420.45" type="line"/>
      <point x="325.3" y="420.45" type="line"/>
      <point x="325.3" y="-268.95" type="line"/>
    </contour>
    <contour>
      <point x="170.1" y="756.0" type="line"/>
      <point x="170.1" y="1442.95" type="line"/>
      <point x="325.3" y="1442.95" type="line"/>
      <point x="325.3" y="756.0" type="line"/>
    </contour>
  </outline>
</glyph>
<glyph name="dieresis" format="1">
  <advance width="718.15"/>
  <unicode hex="00A8"/>
  <outline>
    <contour>
      <point x="103.8" y="1209.25" type="line"/>
      <point x="264.6" y="1209.25" type="line"/>
      <point x="264.6" y="1413.7" type="line"/>
      <point x="103.8" y="1413.7" type="line"/>
    </contour>
    <contour>
      <point x="484.4" y="1209.25" type="line"/>
      <point x="645.1" y="1209.25" type="line"/>
      <point x="645.1" y="1413.7" type="line"/>
      <point x="484.4" y="1413.7" type="line"/>
    </contour>
  </outline>
</glyph>
<glyph name="copyright" format="1">
  <advance width="1698.7"/>
  <unicode hex="00A9"/>
  <outline>
    <contour>
      <point x="856.05" y="239.45" type="curve" smooth="yes"/>
      <point x="961.95" y="239.45"/>
      <point x="1061.5" y="268.0"/>
      <point x="1145.6" y="321.95" type="curve"/>
      <point x="1104.4" y="418.4" type="line"/>
      <point x="1024.9" y="369.85"/>
      <point x="939.95" y="350.2"/>
      <point x="863.3" y="350.2" type="curve" smooth="yes"/>
      <point x="666.1" y="350.2"/>
      <point x="521.5" y="497.95"/>
      <point x="521.5" y="735.5" type="curve" smooth="yes"/>
      <point x="521.5" y="960.3"/>
      <point x="665.55" y="1115.1"/>
      <point x="857.05" y="1115.1" type="curve" smooth="yes"/>
      <point x="929.2" y="1115.1"/>
      <point x="1022.95" y="1091.95"/>
      <point x="1094.9" y="1041.15" type="curve"/>
      <point x="1143.25" y="1139.85" type="line"/>
      <point x="1057.15" y="1198.6"/>
      <point x="956.9" y="1226.85"/>
      <point x="850.1" y="1226.85" type="curve" smooth="yes"/>
      <point x="588.4" y="1226.85"/>
      <point x="385.2" y="1011.9"/>
      <point x="385.2" y="731.9" type="curve" smooth="yes"/>
      <point x="385.2" y="444.8"/>
      <point x="595.5" y="239.45"/>
    </contour>
    <contour>
      <point x="847.9" y="78.35" type="curve" smooth="yes"/>
      <point x="503.4" y="78.35"/>
      <point x="201.05" y="329.2"/>
      <point x="201.05" y="737.3" type="curve" smooth="yes"/>
      <point x="201.05" y="1144.3"/>
      <point x="502.85" y="1392.85"/>
      <point x="846.8" y="1392.85" type="curve" smooth="yes"/>
      <point x="1193.5" y="1392.85"/>
      <point x="1498.2" y="1143.85"/>
      <point x="1498.2" y="736.75" type="curve" smooth="yes"/>
      <point x="1498.2" y="329.65"/>
      <point x="1194.6" y="78.35"/>
    </contour>
    <contour>
      <point x="847.9" y="-18.0" type="curve" smooth="yes"/>
      <point x="1240.5" y="-18.0"/>
      <point x="1612.7" y="258.95"/>
      <point x="1612.7" y="737.3" type="curve" smooth="yes"/>
      <point x="1612.7" y="1215.1"/>
      <point x="1238.85" y="1490.2"/>
      <point x="846.8" y="1490.2" type="curve" smooth="yes"/>
      <point x="456.4" y="1490.2"/>
      <point x="86.0" y="1215.65"/>
      <point x="86.0" y="737.3" type="curve" smooth="yes"/>
      <point x="86.0" y="258.95"/>
      <point x="457.5" y="-18.0"/>
    </contour>
  </outline>
</glyph>
<glyph name="guillemotleft" format="1">
  <advance width="971.85"/>
  <unicode hex="00AB"/>
  <outline>
    <contour>
      <point x="744.85" y="139.95" type="line"/>
      <point x="894.9" y="179.75" type="line"/>
      <point x="637.9" y="543.2" type="line"/>
      <point x="900.25" y="904.95" type="line"/>
      <point x="747.3" y="944.2" type="line"/>
      <point x="453.35" y="540.2" type="line"/>
    </contour>
    <contour>
      <point x="371.2" y="139.95" type="line"/>
      <point x="521.25" y="179.75" type="line"/>
      <point x="264.7" y="543.2" type="line"/>
      <point x="527.6" y="904.95" type="line"/>
      <point x="374.65" y="944.2" type="line"/>
      <point x="79.7" y="540.2" type="line"/>
    </contour>
  </outline>
</glyph>
<glyph name="logicalnot" format="1">
  <advance width="1163.2"/>
  <unicode hex="00AC"/>
  <outline>
    <contour>
      <point x="905.45" y="248.55" type="line"/>
      <point x="1055.05" y="248.55" type="line"/>
      <point x="1055.05" y="797.85" type="line"/>
      <point x="95.9" y="797.85" type="line"/>
      <point x="95.9" y="645.9" type="line"/>
      <point x="905.45" y="645.9" type="line"/>
    </contour>
  </outline>
</glyph>
<glyph name="uni00AD" format="1">
  <advance width="848.2"/>
  <unicode hex="00AD"/>
  <outline>
    <contour>
      <point x="95.95" y="262.5" type="line"/>
      <point x="777.95" y="262.5" type="line"/>
      <point x="777.95" y="423.75" type="line"/>
      <point x="95.95" y="423.75" type="line"/>
    </contour>
  </outline>
</glyph>
<glyph name="registered" format="1">
  <advance width="1694.3"/>
  <unicode hex="00AE"/>
  <outline>
    <contour>
      <point x="544.65" y="279.85" type="line"/>
      <point x="675.2" y="279.85" type="line"/>
      <point x="675.2" y="703.4" type="line"/>
      <point x="863.85" y="703.4" type="line"/>
      <point x="881.45" y="685.8"/>
      <point x="1080.25" y="279.85"/>
      <point x="1080.25" y="279.85" type="curve"/>
      <point x="1225.3" y="279.85" type="line"/>
      <point x="1225.3" y="279.85"/>
      <point x="1023.45" y="679.55"/>
      <point x="992.1" y="721.35" type="curve"/>
      <point x="1129.05" y="743.4"/>
      <point x="1187.6" y="830.05"/>
      <point x="1187.6" y="966.65" type="curve" smooth="yes"/>
      <point x="1187.6" y="1140.75"/>
      <point x="1086.0" y="1215.25"/>
      <point x="862.85" y="1215.25" type="curve" smooth="yes"/>
      <point x="544.65" y="1215.25" type="line"/>
    </contour>
    <contour>
      <point x="675.1" y="817.1" type="line"/>
      <point x="675.1" y="1101.55" type="line"/>
      <point x="837.7" y="1101.55" type="line" smooth="yes"/>
      <point x="996.55" y="1101.55"/>
      <point x="1059.75" y="1087.1"/>
      <point x="1059.75" y="962.75" type="curve" smooth="yes"/>
      <point x="1059.75" y="852.1"/>
      <point x="1005.4" y="817.1"/>
      <point x="865.05" y="817.1" type="curve" smooth="yes"/>
    </contour>
    <contour>
      <point x="845.7" y="74.5" type="curve" smooth="yes"/>
      <point x="501.75" y="74.5"/>
      <point x="199.95" y="325.35"/>
      <point x="199.95" y="733.45" type="curve" smooth="yes"/>
      <point x="199.95" y="1140.45"/>
      <point x="501.2" y="1392.85"/>
      <point x="845.15" y="1392.85" type="curve" smooth="yes"/>
      <point x="1191.3" y="1392.85"/>
      <point x="1494.35" y="1140.0"/>
      <point x="1494.35" y="732.9" type="curve" smooth="yes"/>
      <point x="1494.35" y="325.8"/>
      <point x="1191.3" y="74.5"/>
    </contour>
    <contour>
      <point x="845.7" y="-21.85" type="curve" smooth="yes"/>
      <point x="1237.2" y="-21.85"/>
      <point x="1609.4" y="255.1"/>
      <point x="1609.4" y="733.45" type="curve" smooth="yes"/>
      <point x="1609.4" y="1211.25"/>
      <point x="1236.65" y="1490.2"/>
      <point x="845.15" y="1490.2" type="curve" smooth="yes"/>
      <point x="454.75" y="1490.2"/>
      <point x="84.9" y="1211.8"/>
      <point x="84.9" y="733.45" type="curve" smooth="yes"/>
      <point x="84.9" y="255.1"/>
      <point x="455.3" y="-21.85"/>
    </contour>
  </outline>
</glyph>
<glyph name="macron" format="1">
  <advance width="965.8"/>
  <unicode hex="00AF"/>
  <outline>
    <contour>
      <point x="165.3" y="1265.15" type="line"/>
      <point x="785.2" y="1265.15" type="line"/>
      <point x="785.2" y="1401.55" type="line"/>
      <point x="165.3" y="1401.55" type="line"/>
    </contour>
  </outline>
</glyph>
<glyph name="degree" format="1">
  <advance width="787.7"/>
  <unicode hex="00B0"/>
  <outline>
    <contour>
      <point x="393.9" y="997.05" type="curve" smooth="yes"/>
      <point x="299.2" y="997.05"/>
      <point x="219.3" y="1066.9"/>
      <point x="219.3" y="1175.05" type="curve" smooth="yes"/>
      <point x="219.3" y="1281.55"/>
      <point x="300.1" y="1350.3"/>
      <point x="394.45" y="1350.3" type="curve" smooth="yes"/>
      <point x="488.5" y="1350.3"/>
      <point x="568.3" y="1281.55"/>
      <point x="568.3" y="1175.05" type="curve" smooth="yes"/>
      <point x="568.3" y="1067.8"/>
      <point x="489.05" y="997.05"/>
    </contour>
    <contour>
      <point x="393.45" y="885.75" type="curve" smooth="yes"/>
      <point x="568.2" y="885.75"/>
      <point x="695.65" y="1016.6"/>
      <point x="695.65" y="1175.6" type="curve" smooth="yes"/>
      <point x="695.65" y="1339.05"/>
      <point x="564.1" y="1460.5"/>
      <point x="393.45" y="1460.5" type="curve" smooth="yes"/>
      <point x="223.4" y="1460.5"/>
      <point x="92.5" y="1339.05"/>
      <point x="92.5" y="1175.6" type="curve" smooth="yes"/>
      <point x="92.5" y="1012.0"/>
      <point x="222.65" y="885.75"/>
    </contour>
  </outline>
</glyph>
<glyph name="plusminus" format="1">
  <advance width="1146.3"/>
  <unicode hex="00B1"/>
  <outline>
    <contour>
      <point x="112.45" y="0.0" type="line"/>
      <point x="112.45" y="140.55" type="line"/>
      <point x="1033.85" y="140.55" type="line"/>
      <point x="1033.85" y="0.0" type="line"/>
    </contour>
    <contour>
      <point x="491.0" y="223.3" type="line"/>
      <point x="644.6" y="223.3" type="line"/>
      <point x="644.6" y="598.15" type="line"/>
      <point x="1004.6" y="598.15" type="line"/>
      <point x="1004.6" y="747.85" type="line"/>
      <point x="644.05" y="747.85" type="line"/>
      <point x="644.05" y="1113.25" type="line"/>
      <point x="491.0" y="1113.25" type="line"/>
      <point x="491.0" y="747.85" type="line"/>
      <point x="126.4" y="747.85" type="line"/>
      <point x="126.4" y="598.15" type="line"/>
      <point x="491.0" y="598.15" type="line"/>
    </contour>
  </outline>
</glyph>
<glyph name="uni00B3" format="1">
  <advance width="766.1"/>
  <unicode hex="00B3"/>
  <outline>
    <contour>
      <point x="397.8" y="591.35" type="curve" smooth="yes"/>
      <point x="546.5" y="591.35"/>
      <point x="670.2" y="684.95"/>
      <point x="670.2" y="848.6" type="curve" smooth="yes"/>
      <point x="670.2" y="942.9"/>
      <point x="611.75" y="1018.3"/>
      <point x="521.3" y="1051.05" type="curve"/>
      <point x="611.65" y="1077.85"/>
      <point x="650.65" y="1146.55"/>
      <point x="651.75" y="1219.85" type="curve"/>
      <point x="651.75" y="1379.0"/>
      <point x="528.8" y="1452.6"/>
      <point x="398.45" y="1452.6" type="curve" smooth="yes"/>
      <point x="308.75" y="1452.6"/>
      <point x="205.9" y="1419.25"/>
      <point x="146.2" y="1361.65" type="curve"/>
      <point x="198.7" y="1263.0" type="line"/>
      <point x="238.05" y="1298.1"/>
      <point x="325.6" y="1327.9"/>
      <point x="392.05" y="1327.9" type="curve" smooth="yes"/>
      <point x="461.4" y="1327.9"/>
      <point x="504.8" y="1288.55"/>
      <point x="504.8" y="1218.75" type="curve" smooth="yes"/>
      <point x="504.8" y="1146.2"/>
      <point x="443.0" y="1107.05"/>
      <point x="342.25" y="1107.05" type="curve" smooth="yes"/>
      <point x="266.25" y="1107.05" type="line"/>
      <point x="266.25" y="981.65" type="line"/>
      <point x="342.95" y="982.2" type="line"/>
      <point x="451.55" y="982.2"/>
      <point x="527.85" y="938.45"/>
      <point x="527.85" y="851.4" type="curve" smooth="yes"/>
      <point x="527.85" y="759.7"/>
      <point x="469.85" y="716.4"/>
      <point x="391.4" y="716.4" type="curve" smooth="yes"/>
      <point x="330.6" y="716.4"/>
      <point x="241.0" y="742.75"/>
      <point x="194.6" y="785.35" type="curve"/>
      <point x="143.45" y="675.3" type="line"/>
      <point x="207.7" y="617.55"/>
      <point x="314.6" y="591.35"/>
    </contour>
  </outline>
</glyph>
<glyph name="acute" format="1">
  <advance width="591.4"/>
  <unicode hex="00B4"/>
  <outline>
    <contour>
      <point x="133.2" y="1148.55" type="line"/>
      <point x="254.55" y="1148.55" type="line"/>
      <point x="552.85" y="1524.4" type="line"/>
      <point x="310.65" y="1524.4" type="line"/>
    </contour>
  </outline>
</glyph>
<glyph name="paragraph" format="1">
  <advance width="1077.85"/>
  <unicode hex="00B6"/>
  <outline>
    <contour>
      <point x="453.15" y="-72.9" type="line"/>
      <point x="589.55" y="-72.9" type="line"/>
      <point x="589.55" y="1348.35" type="line"/>
      <point x="765.65" y="1348.35" type="line"/>
      <point x="765.65" y="-72.9" type="line"/>
      <point x="902.05" y="-72.9" type="line"/>
      <point x="902.05" y="1348.35" type="line"/>
      <point x="976.8" y="1348.35" type="line"/>
      <point x="976.8" y="1484.35" type="line"/>
      <point x="528.6" y="1484.35" type="line" smooth="yes"/>
      <point x="224.25" y="1484.35"/>
      <point x="90.4" y="1347.05"/>
      <point x="90.4" y="1157.15" type="curve" smooth="yes"/>
      <point x="90.4" y="981.25"/>
      <point x="204.0" y="834.7"/>
      <point x="453.15" y="834.7" type="curve"/>
    </contour>
  </outline>
</glyph>
<glyph name="cedilla" format="1">
  <advance width="553.6"/>
  <unicode hex="00B8"/>
  <outline>
    <contour>
      <point x="97.5" y="-387.45" type="line"/>
      <point x="261.25" y="-387.45" type="line"/>
      <point x="306.0" y="1.8" type="line"/>
      <point x="197.45" y="1.8" type="line"/>
    </contour>
  </outline>
</glyph>
<glyph name="uni00B9" format="1">
  <advance width="749.95"/>
  <unicode hex="00B9"/>
  <outline>
    <contour>
      <point x="174.6" y="624.0" type="line"/>
      <point x="659.65" y="624.0" type="line"/>
      <point x="659.65" y="759.6" type="line"/>
      <point x="506.15" y="759.6" type="line"/>
      <point x="506.15" y="1453.45" type="line"/>
      <point x="369.2" y="1454.0" type="line"/>
      <point x="351.65" y="1436.45"/>
      <point x="187.3" y="1355.55"/>
      <point x="165.25" y="1350.6" type="curve"/>
      <point x="165.25" y="1204.45" type="line"/>
      <point x="190.0" y="1209.85"/>
      <point x="298.15" y="1255.75"/>
      <point x="334.6" y="1276.35" type="curve"/>
      <point x="334.6" y="759.6" type="line"/>
      <point x="174.6" y="759.6" type="line"/>
    </contour>
  </outline>
</glyph>
<glyph name="guillemotright" format="1">
  <advance width="1002.05"/>
  <unicode hex="00BB"/>
  <outline>
    <contour>
      <point x="633.8" y="944.2" type="line"/>
      <point x="484.85" y="905.4" type="line"/>
      <point x="740.2" y="540.95" type="line"/>
      <point x="479.5" y="180.2" type="line"/>
      <point x="630.8" y="139.95" type="line"/>
      <point x="925.85" y="543.95" type="line"/>
    </contour>
    <contour>
      <point x="266.1" y="944.2" type="line"/>
      <point x="116.05" y="905.4" type="line"/>
      <point x="374.15" y="540.95" type="line"/>
      <point x="111.35" y="180.2" type="line"/>
      <point x="264.2" y="139.95" type="line"/>
      <point x="558.15" y="543.95" type="line"/>
    </contour>
  </outline>
</glyph>
<glyph name="onequarter" format="1">
  <advance width="1563.7"/>
  <unicode hex="00BC"/>
  <outline>
    <contour>
      <point x="79.25" y="598.9" type="line"/>
      <point x="521.45" y="598.9" type="line"/>
      <point x="521.45" y="726.05" type="line"/>
      <point x="385.5" y="726.05" type="line"/>
      <point x="385.5" y="1458.4" type="line"/>
      <point x="261.8" y="1458.95" type="line"/>
      <point x="244.25" y="1441.4"/>
      <point x="90.15" y="1363.2"/>
      <point x="67.2" y="1355.1" type="curve"/>
      <point x="67.2" y="1226.4" type="line"/>
      <point x="89.25" y="1234.05"/>
      <point x="190.3" y="1277.8"/>
      <point x="226.75" y="1298.4" type="curve"/>
      <point x="226.75" y="726.05" type="line"/>
      <point x="79.25" y="726.05" type="line"/>
    </contour>
    <contour>
      <point x="1297.45" y="5.4" type="line"/>
      <point x="1436.55" y="5.4" type="line"/>
      <point x="1437.1" y="181.15" type="line"/>
      <point x="1555.2" y="181.15" type="line"/>
      <point x="1549.05" y="300.25" type="line"/>
      <point x="1438.55" y="300.25" type="line"/>
      <point x="1438.55" y="838.0" type="line"/>
      <point x="1287.45" y="838.0" type="line"/>
      <point x="920.65" y="293.9" type="line"/>
      <point x="920.65" y="181.15" type="line"/>
      <point x="1297.45" y="181.15" type="line"/>
    </contour>
    <contour>
      <point x="301.1" y="0.0" type="line"/>
      <point x="461.7" y="0.0" type="line"/>
      <point x="1385.75" y="1455.85" type="line"/>
      <point x="1228.9" y="1455.85" type="line"/>
    </contour>
    <contour>
      <point x="1090.85" y="300.25" type="line"/>
      <point x="1296.35" y="629.85" type="line"/>
      <point x="1296.35" y="300.25" type="line"/>
    </contour>
  </outline>
</glyph>
<glyph name="onehalf" format="1">
  <advance width="1626.75"/>
  <unicode hex="00BD"/>
  <outline>
    <contour>
      <point x="113.95" y="604.4" type="line"/>
      <point x="524.1" y="604.4" type="line"/>
      <point x="524.1" y="726.45" type="line"/>
      <point x="398.15" y="726.45" type="line"/>
      <point x="398.15" y="1458.4" type="line"/>
      <point x="261.25" y="1458.95" type="line"/>
      <point x="243.7" y="1441.4"/>
      <point x="125.2" y="1369.15"/>
      <point x="98.2" y="1355.65" type="curve"/>
      <point x="98.2" y="1222.55" type="line"/>
      <point x="117.55" y="1232.45"/>
      <point x="202.95" y="1279.9"/>
      <point x="238.85" y="1302.15" type="curve"/>
      <point x="238.85" y="726.45" type="line"/>
      <point x="113.95" y="726.45" type="line"/>
    </contour>
    <contour>
      <point x="1026.15" y="-15.3" type="line"/>
      <point x="1553.35" y="-15.3" type="line"/>
      <point x="1563.25" y="108.75" type="line"/>
      <point x="1233.5" y="108.75" type="line"/>
      <point x="1421.85" y="274.15"/>
      <point x="1568.65" y="387.8"/>
      <point x="1568.65" y="572.95" type="curve" smooth="yes"/>
      <point x="1568.65" y="739.0"/>
      <point x="1433.55" y="830.35"/>
      <point x="1293.15" y="830.35" type="curve" smooth="yes"/>
      <point x="1175.75" y="830.35"/>
      <point x="1064.55" y="778.1"/>
      <point x="1009.15" y="687.6" type="curve"/>
      <point x="1083.0" y="593.95" type="line" smooth="yes"/>
      <point x="1135.45" y="665.1"/>
      <point x="1213.9" y="697.15"/>
      <point x="1287.55" y="697.15" type="curve" smooth="yes"/>
      <point x="1354.65" y="697.15"/>
      <point x="1419.25" y="653.45"/>
      <point x="1419.25" y="566.15" type="curve" smooth="yes"/>
      <point x="1419.25" y="440.85"/>
      <point x="1134.7" y="213.95"/>
      <point x="1026.7" y="105.5" type="curve"/>
    </contour>
    <contour>
      <point x="285.6" y="11.0" type="line"/>
      <point x="447.2" y="11.0" type="line"/>
      <point x="1373.45" y="1455.85" type="line"/>
      <point x="1213.4" y="1455.85" type="line"/>
    </contour>
  </outline>
</glyph>
<glyph name="threequarters" format="1">
  <advance width="1567.95"/>
  <unicode hex="00BE"/>
  <outline>
    <contour>
      <point x="331.95" y="606.2" type="curve" smooth="yes"/>
      <point x="479.55" y="606.2"/>
      <point x="606.55" y="697.6"/>
      <point x="606.55" y="860.15" type="curve" smooth="yes"/>
      <point x="606.55" y="952.8"/>
      <point x="549.75" y="1027.1"/>
      <point x="459.85" y="1059.3" type="curve"/>
      <point x="559.55" y="1091.05"/>
      <point x="587.55" y="1179.0"/>
      <point x="587.55" y="1225.9" type="curve" smooth="yes"/>
      <point x="587.55" y="1379.55"/>
      <point x="460.65" y="1452.6"/>
      <point x="333.05" y="1452.6" type="curve" smooth="yes"/>
      <point x="242.25" y="1452.6"/>
      <point x="131.8" y="1418.7"/>
      <point x="72.1" y="1360.0" type="curve"/>
      <point x="132.3" y="1263.0" type="line"/>
      <point x="171.65" y="1298.1"/>
      <point x="258.0" y="1326.25"/>
      <point x="324.45" y="1326.25" type="curve" smooth="yes"/>
      <point x="394.35" y="1326.25"/>
      <point x="437.85" y="1289.65"/>
      <point x="437.85" y="1222.05" type="curve" smooth="yes"/>
      <point x="437.85" y="1151.7"/>
      <point x="376.6" y="1112.55"/>
      <point x="275.85" y="1112.55" type="curve" smooth="yes"/>
      <point x="200.4" y="1112.55" type="line"/>
      <point x="200.4" y="986.6" type="line"/>
      <point x="277.55" y="987.15" type="line"/>
      <point x="385.6" y="987.15"/>
      <point x="457.6" y="946.7"/>
      <point x="457.6" y="863.5" type="curve" smooth="yes"/>
      <point x="457.6" y="774.55"/>
      <point x="400.15" y="732.9"/>
      <point x="321.7" y="732.9" type="curve" smooth="yes"/>
      <point x="260.9" y="732.9"/>
      <point x="175.6" y="756.5"/>
      <point x="129.75" y="797.45" type="curve"/>
      <point x="77.05" y="689.6" type="line"/>
      <point x="140.75" y="631.85"/>
      <point x="248.75" y="606.2"/>
    </contour>
    <contour>
      <point x="1270.5" y="11.45" type="line"/>
      <point x="1409.6" y="11.45" type="line"/>
      <point x="1410.15" y="191.6" type="line"/>
      <point x="1528.25" y="191.6" type="line"/>
      <point x="1522.65" y="310.15" type="line"/>
      <point x="1411.6" y="310.15" type="line"/>
      <point x="1411.6" y="850.65" type="line"/>
      <point x="1259.95" y="850.65" type="line"/>
      <point x="894.25" y="301.05" type="line"/>
      <point x="894.25" y="191.6" type="line"/>
      <point x="1270.5" y="191.6" type="line"/>
    </contour>
    <contour>
      <point x="305.6" y="11.0" type="line"/>
      <point x="467.85" y="11.0" type="line"/>
      <point x="1390.25" y="1455.85" type="line"/>
      <point x="1231.75" y="1455.85" type="line"/>
    </contour>
    <contour>
      <point x="1063.35" y="310.15" type="line"/>
      <point x="1269.4" y="638.65" type="line"/>
      <point x="1269.4" y="310.15" type="line"/>
    </contour>
  </outline>
</glyph>
<glyph name="Eth" format="1">
  <advance width="1498.2"/>
  <unicode hex="00D0"/>
  <outline>
    <contour>
      <point x="659.85" y="798.7" type="line"/>
      <point x="45.15" y="798.7" type="line"/>
      <point x="45.15" y="660.45" type="line"/>
      <point x="659.85" y="660.45" type="line"/>
    </contour>
    <component base="D"/>
  </outline>
</glyph>
<glyph name="multiply" format="1">
  <advance width="1008.25"/>
  <unicode hex="00D7"/>
  <outline>
    <contour>
      <point x="777.25" y="178.75" type="line"/>
      <point x="879.65" y="287.35" type="line"/>
      <point x="879.65" y="287.35"/>
      <point x="648.45" y="532.55"/>
      <point x="611.05" y="569.95" type="curve"/>
      <point x="877.85" y="849.0" type="line"/>
      <point x="770.85" y="956.2" type="line"/>
      <point x="505.65" y="678.7" type="line"/>
      <point x="237.9" y="958.9" type="line"/>
      <point x="134.45" y="851.8" type="line"/>
      <point x="399.6" y="570.4" type="line"/>
      <point x="128.6" y="285.45" type="line"/>
      <point x="231.6" y="178.3" type="line"/>
      <point x="505.65" y="461.1" type="line"/>
    </contour>
  </outline>
</glyph>
<glyph name="Oslash" format="1">
  <advance width="1601.6"/>
  <unicode hex="00D8"/>
  <outline>
    <contour>
      <point x="525.65" y="-231.8" type="line"/>
      <point x="1246.5" y="1610.95" type="line"/>
      <point x="1131.9" y="1653.95" type="line"/>
      <point x="416.6" y="-193.8" type="line"/>
    </contour>
    <component base="O"/>
  </outline>
</glyph>
<glyph name="germandbls" format="1">
  <advance width="1170.1"/>
  <unicode hex="00DF"/>
  <outline>
    <contour>
      <point x="361.2" y="0.0" type="line"/>
      <point x="162.75" y="0.0" type="line"/>
      <point x="162.75" y="1001.95" type="line" smooth="yes"/>
      <point x="162.75" y="1286.55"/>
      <point x="298.0" y="1459.15"/>
      <point x="593.05" y="1459.15" type="curve" smooth="yes"/>
      <point x="817.7" y="1459.15"/>
      <point x="981.9" y="1344.95"/>
      <point x="981.9" y="1145.05" type="curve" smooth="yes"/>
      <point x="981.9" y="923.75"/>
      <point x="786.05" y="839.2"/>
      <point x="786.05" y="755.7" type="curve" smooth="yes"/>
      <point x="786.05" y="647.1"/>
      <point x="1152.3" y="588.2"/>
      <point x="1152.3" y="293.4" type="curve" smooth="yes"/>
      <point x="1152.3" y="98.8"/>
      <point x="1023.8" y="-20.65"/>
      <point x="817.05" y="-20.65" type="curve" smooth="yes"/>
      <point x="702.35" y="-20.65"/>
      <point x="583.0" y="11.35"/>
      <point x="490.65" y="52.85" type="curve"/>
      <point x="540.85" y="197.25" type="line"/>
      <point x="591.3" y="170.85"/>
      <point x="686.4" y="136.0"/>
      <point x="785.55" y="136.0" type="curve" smooth="yes"/>
      <point x="896.15" y="136.0"/>
      <point x="954.8" y="200.3"/>
      <point x="954.8" y="294.3" type="curve" smooth="yes"/>
      <point x="954.8" y="492.45"/>
      <point x="596.55" y="546.95"/>
      <point x="596.55" y="736.25" type="curve" smooth="yes"/>
      <point x="596.55" y="899.8"/>
      <point x="795.75" y="953.9"/>
      <point x="796.2" y="1141.1" type="curve" smooth="yes"/>
      <point x="796.65" y="1239.85"/>
      <point x="727.45" y="1308.95"/>
      <point x="601.3" y="1308.95" type="curve" smooth="yes"/>
      <point x="424.85" y="1308.95"/>
      <point x="361.2" y="1214.3"/>
      <point x="361.2" y="1003.25" type="curve" smooth="yes"/>
    </contour>
  </outline>
</glyph>
<glyph name="ae" format="1">
  <advance width="1686.65"/>
  <unicode hex="00E6"/>
  <outline>
    <contour>
      <point x="424.35" y="-17.3" type="curve" smooth="yes"/>
      <point x="598.1" y="-17.3"/>
      <point x="781.65" y="57.35"/>
      <point x="868.65" y="148.85" type="curve"/>
      <point x="945.55" y="42.1"/>
      <point x="1056.85" y="-19.0"/>
      <point x="1226.3" y="-19.0" type="curve" smooth="yes"/>
      <point x="1389.65" y="-19.0"/>
      <point x="1493.85" y="18.0"/>
      <point x="1586.05" y="81.7" type="curve"/>
      <point x="1528.15" y="211.3" type="line"/>
      <point x="1440.45" y="161.85"/>
      <point x="1354.55" y="130.55"/>
      <point x="1242.85" y="130.55" type="curve"/>
      <point x="1057.7" y="131.65"/>
      <point x="947.15" y="230.45"/>
      <point x="937.15" y="477.6" type="curve"/>
      <point x="1472.0" y="477.6"/>
      <point x="1609.45" y="591.4"/>
      <point x="1609.45" y="773.4" type="curve" smooth="yes"/>
      <point x="1609.45" y="927.65"/>
      <point x="1505.25" y="1088.85"/>
      <point x="1232.3" y="1088.85" type="curve" smooth="yes"/>
      <point x="1078.4" y="1088.85"/>
      <point x="924.55" y="1007.7"/>
      <point x="870.85" y="877.6" type="curve"/>
      <point x="842.15" y="1025.5"/>
      <point x="718.55" y="1089.3"/>
      <point x="549.4" y="1089.3" type="curve" smooth="yes"/>
      <point x="404.75" y="1089.3"/>
      <point x="237.55" y="1046.45"/>
      <point x="146.05" y="994.6" type="curve"/>
      <point x="203.65" y="860.3" type="line"/>
      <point x="281.6" y="897.45"/>
      <point x="426.65" y="939.55"/>
      <point x="539.6" y="939.55" type="curve"/>
      <point x="694.0" y="936.25"/>
      <point x="747.7" y="861.8"/>
      <point x="747.7" y="721.9" type="curve" smooth="yes"/>
      <point x="747.7" y="612.1" type="line"/>
      <point x="606.65" y="612.1" type="line" smooth="yes"/>
      <point x="281.6" y="612.1"/>
      <point x="101.25" y="531.3"/>
      <point x="101.25" y="304.8" type="curve" smooth="yes"/>
      <point x="101.25" y="100.7"/>
      <point x="236.95" y="-17.3"/>
    </contour>
    <contour>
      <point x="451.35" y="126.8" type="curve" smooth="yes"/>
      <point x="349.65" y="126.8"/>
      <point x="286.25" y="181.25"/>
      <point x="286.25" y="300.85" type="curve" smooth="yes"/>
      <point x="286.25" y="417.15"/>
      <point x="358.9" y="478.95"/>
      <point x="606.1" y="478.95" type="curve" smooth="yes"/>
      <point x="750.45" y="478.95" type="line"/>
      <point x="752.65" y="405.75"/>
      <point x="771.6" y="315.9"/>
      <point x="792.6" y="265.85" type="curve"/>
      <point x="707.55" y="185.4"/>
      <point x="562.15" y="126.8"/>
    </contour>
    <contour>
      <point x="939.5" y="609.85" type="curve"/>
      <point x="962.05" y="845.2"/>
      <point x="1092.75" y="950.65"/>
      <point x="1246.65" y="950.65" type="curve" smooth="yes"/>
      <point x="1381.65" y="950.65"/>
      <point x="1452.6" y="879.05"/>
      <point x="1452.6" y="778.25" type="curve" smooth="yes"/>
      <point x="1452.6" y="657.9"/>
      <point x="1315.05" y="609.85"/>
    </contour>
  </outline>
</glyph>
<glyph name="eth" format="1">
  <advance width="1183.9"/>
  <unicode hex="00F0"/>
  <outline>
    <contour>
      <point x="599.35" y="-22.95" type="curve" smooth="yes"/>
      <point x="923.2" y="-22.95"/>
      <point x="1098.8" y="178.2"/>
      <point x="1098.8" y="463.9" type="curve"/>
      <point x="1098.25" y="600.3"/>
      <point x="1062.85" y="732.75"/>
      <point x="1009.25" y="831.4" type="curve"/>
      <point x="939.55" y="957.3"/>
      <point x="838.25" y="1079.1"/>
      <point x="677.45" y="1252.2" type="curve"/>
      <point x="909.8" y="1340.55" type="line"/>
      <point x="854.6" y="1473.2" type="line"/>
      <point x="577.8" y="1364.7" type="line"/>
      <point x="441.4" y="1498.3" type="line"/>
      <point x="213.45" y="1498.3" type="line"/>
      <point x="421.95" y="1300.8" type="line"/>
      <point x="219.05" y="1221.65" type="line"/>
      <point x="272.25" y="1089.65" type="line"/>
      <point x="519.75" y="1185.8" type="line"/>
      <point x="649.15" y="1059.7"/>
      <point x="749.25" y="937.15"/>
      <point x="797.8" y="856.1" type="curve"/>
      <point x="746.05" y="888.6"/>
      <point x="682.55" y="931.1"/>
      <point x="573.8" y="931.1" type="curve" smooth="yes"/>
      <point x="293.7" y="931.1"/>
      <point x="98.05" y="744.9"/>
      <point x="98.05" y="465.8" type="curve" smooth="yes"/>
      <point x="98.05" y="197.6"/>
      <point x="282.3" y="-22.95"/>
    </contour>
    <contour>
      <point x="605.9" y="129.95" type="curve" smooth="yes"/>
      <point x="395.55" y="129.95"/>
      <point x="287.7" y="287.85"/>
      <point x="287.7" y="465.45" type="curve" smooth="yes"/>
      <point x="287.7" y="654.1"/>
      <point x="401.25" y="789.05"/>
      <point x="599.45" y="789.05" type="curve" smooth="yes"/>
      <point x="805.3" y="789.05"/>
      <point x="920.15" y="641.7"/>
      <point x="920.15" y="470.0" type="curve" smooth="yes"/>
      <point x="920.15" y="265.0"/>
      <point x="811.45" y="129.95"/>
    </contour>
  </outline>
</glyph>
<glyph name="divide" format="1">
  <advance width="1184.9"/>
  <unicode hex="00F7"/>
  <outline>
    <contour>
      <point x="478.55" y="27.1" type="line"/>
      <point x="698.45" y="27.1" type="line"/>
      <point x="698.45" y="254.3" type="line"/>
      <point x="478.55" y="254.3" type="line"/>
    </contour>
    <contour>
      <point x="96.9" y="484.45" type="line"/>
      <point x="1078.1" y="484.45" type="line"/>
      <point x="1078.1" y="641.75" type="line"/>
      <point x="96.9" y="641.75" type="line"/>
    </contour>
    <contour>
      <point x="478.55" y="859.05" type="line"/>
      <point x="702.85" y="859.05" type="line"/>
      <point x="702.85" y="1079.2" type="line"/>
      <point x="478.55" y="1079.2" type="line"/>
    </contour>
  </outline>
</glyph>
<glyph name="oslash" format="1">
  <advance width="1186.0"/>
  <unicode hex="00F8"/>
  <outline>
    <contour>
      <point x="291.8" y="-149.35" type="line"/>
      <point x="1013.1" y="1173.35" type="line"/>
      <point x="939.5" y="1213.6" type="line"/>
      <point x="224.2" y="-108.65" type="line"/>
    </contour>
    <component base="o"/>
  </outline>
</glyph>
<glyph name="Dcroat" format="1">
  <advance width="1495.45"/>
  <unicode hex="0110"/>
  <outline>
    <contour>
      <point x="60.45" y="690.85" type="line"/>
      <point x="60.45" y="780.75" type="line"/>
      <point x="575.95" y="780.75" type="line"/>
      <point x="575.95" y="690.85" type="line"/>
    </contour>
    <component base="D"/>
  </outline>
</glyph>
<glyph name="Hbar" format="1">
  <advance width="1476.15"/>
  <unicode hex="0126"/>
  <outline>
    <contour>
      <point x="189.35" y="0.0" type="line"/>
      <point x="189.35" y="1111.1" type="line"/>
      <point x="103.6" y="1111.1" type="line"/>
      <point x="103.6" y="1222.7" type="line"/>
      <point x="189.35" y="1222.7" type="line"/>
      <point x="189.35" y="1434.4" type="line"/>
      <point x="379.6" y="1434.4" type="line"/>
      <point x="379.6" y="1222.7" type="line"/>
      <point x="1135.1" y="1222.7" type="line"/>
      <point x="1135.1" y="1434.4" type="line"/>
      <point x="1326.45" y="1434.4" type="line"/>
      <point x="1326.45" y="1222.7" type="line"/>
      <point x="1412.2" y="1222.7" type="line"/>
      <point x="1412.2" y="1111.1" type="line"/>
      <point x="1326.45" y="1111.1" type="line"/>
      <point x="1326.45" y="0.0" type="line"/>
      <point x="1135.1" y="0.0" type="line"/>
      <point x="1135.1" y="660.55" type="line"/>
      <point x="379.6" y="660.55" type="line"/>
      <point x="379.6" y="0.0" type="line"/>
    </contour>
    <contour>
      <point x="379.6" y="821.15" type="line"/>
      <point x="1135.1" y="821.15" type="line"/>
      <point x="1135.1" y="1111.1" type="line"/>
      <point x="379.6" y="1111.1" type="line"/>
    </contour>
  </outline>
</glyph>
<glyph name="hbar" format="1">
  <advance width="1148.65"/>
  <unicode hex="0127"/>
  <outline>
    <contour>
      <point x="183.45" y="0.0" type="line"/>
      <point x="365.95" y="0.0" type="line"/>
      <point x="365.95" y="722.25" type="line"/>
      <point x="396.0" y="819.8"/>
      <point x="521.65" y="932.35"/>
      <point x="677.55" y="932.35" type="curve" smooth="yes"/>
      <point x="846.85" y="932.35"/>
      <point x="878.55" y="829.35"/>
      <point x="878.55" y="605.3" type="curve" smooth="yes"/>
      <point x="878.55" y="0.0" type="line"/>
      <point x="1060.5" y="0.0" type="line"/>
      <point x="1060.5" y="642.85" type="line" smooth="yes"/>
      <point x="1060.5" y="931.55"/>
      <point x="948.7" y="1086.45"/>
      <point x="731.95" y="1086.45" type="curve" smooth="yes"/>
      <point x="577.2" y="1086.45"/>
      <point x="454.25" y="1029.95"/>
      <point x="365.95" y="928.9" type="curve"/>
      <point x="365.95" y="1211.6" type="line"/>
      <point x="633.55" y="1211.6" type="line"/>
      <point x="633.55" y="1332.15" type="line"/>
      <point x="365.95" y="1332.15" type="line"/>
      <point x="365.95" y="1458.25" type="line"/>
      <point x="183.45" y="1438.8" type="line"/>
      <point x="183.45" y="1332.15" type="line"/>
      <point x="93.05" y="1332.15" type="line"/>
      <point x="93.05" y="1211.6" type="line"/>
      <point x="183.45" y="1211.6" type="line"/>
    </contour>
  </outline>
</glyph>
<glyph name="dotlessi" format="1">
  <advance width="461.15"/>
  <unicode hex="0131"/>
  <outline>
    <contour>
      <point x="149.4" y="0.0" type="line"/>
      <point x="337.85" y="0.0" type="line"/>
      <point x="337.85" y="1061.6" type="line"/>
      <point x="149.4" y="1061.6" type="line"/>
    </contour>
  </outline>
</glyph>
<glyph name="Eng" format="1">
  <advance width="1323.85"/>
  <unicode hex="014A"/>
  <outline>
    <contour>
      <point x="807.4" y="-317.3" type="curve" smooth="yes"/>
      <point x="785.2" y="-317.3"/>
      <point x="738.25" y="-316.4"/>
      <point x="636.45" y="-306.55" type="curve"/>
      <point x="615.0" y="-140.2" type="line"/>
      <point x="728.1" y="-146.8"/>
      <point x="756.9" y="-147.8"/>
      <point x="773.6" y="-147.8" type="curve" smooth="yes"/>
      <point x="1020.7" y="-147.8"/>
      <point x="1044.2" y="-80.2"/>
      <point x="1044.2" y="160.85" type="curve" smooth="yes"/>
      <point x="1044.2" y="953.8" type="line" smooth="yes"/>
      <point x="1044.2" y="1202.55"/>
      <point x="974.55" y="1287.7"/>
      <point x="776.9" y="1287.7" type="curve" smooth="yes"/>
      <point x="587.15" y="1287.7"/>
      <point x="423.45" y="1181.45"/>
      <point x="333.7" y="1042.05" type="curve"/>
      <point x="333.7" y="0.0" type="line"/>
      <point x="137.45" y="0.0" type="line"/>
      <point x="135.65" y="1436.45" type="line"/>
      <point x="313.75" y="1436.45" type="line"/>
      <point x="332.25" y="1243.75" type="line"/>
      <point x="491.45" y="1412.4"/>
      <point x="666.6" y="1459.35"/>
      <point x="830.45" y="1459.35" type="curve" smooth="yes"/>
      <point x="1101.05" y="1459.35"/>
      <point x="1240.55" y="1280.55"/>
      <point x="1240.55" y="960.75" type="curve" smooth="yes"/>
      <point x="1240.55" y="157.2" type="line" smooth="yes"/>
      <point x="1240.55" y="-142.5"/>
      <point x="1158.95" y="-317.3"/>
    </contour>
  </outline>
</glyph>
<glyph name="eng" format="1">
  <advance width="1119.75"/>
  <unicode hex="014B"/>
  <outline>
    <contour>
      <point x="622.8" y="-306.25" type="line"/>
      <point x="689.7" y="-306.25" type="line" smooth="yes"/>
      <point x="985.8" y="-306.25"/>
      <point x="1033.95" y="-154.85"/>
      <point x="1034.5" y="141.1" type="curve"/>
      <point x="1034.5" y="655.8" type="line" smooth="yes"/>
      <point x="1034.5" y="935.55"/>
      <point x="925.95" y="1084.9"/>
      <point x="681.2" y="1084.9" type="curve" smooth="yes"/>
      <point x="530.5" y="1084.9"/>
      <point x="421.9" y="1023.95"/>
      <point x="343.75" y="917.75" type="curve"/>
      <point x="322.8" y="1061.6" type="line"/>
      <point x="152.4" y="1061.6" type="line"/>
      <point x="152.4" y="0.0" type="line"/>
      <point x="355.25" y="0.0" type="line"/>
      <point x="355.25" y="565.55" type="line" smooth="yes"/>
      <point x="355.25" y="628.55"/>
      <point x="358.25" y="684.5"/>
      <point x="365.95" y="733.7" type="curve"/>
      <point x="399.45" y="845.65"/>
      <point x="480.95" y="929.65"/>
      <point x="638.85" y="929.65" type="curve" smooth="yes"/>
      <point x="795.15" y="929.65"/>
      <point x="831.1" y="827.35"/>
      <point x="831.65" y="656.95" type="curve"/>
      <point x="831.65" y="90.3" type="line" smooth="yes"/>
      <point x="831.65" y="-107.7"/>
      <point x="815.3" y="-138.55"/>
      <point x="653.4" y="-138.55" type="curve" smooth="yes"/>
      <point x="607.95" y="-138.55" type="line"/>
    </contour>
  </outline>
</glyph>
<glyph name="OE" format="1">
  <advance width="1935.05"/>
  <unicode hex="0152"/>
  <outline>
    <contour>
      <point x="805.75" y="-21.6" type="curve" smooth="yes"/>
      <point x="649.1" y="-21.6"/>
      <point x="622.65" y="141.5"/>
      <point x="666.65" y="384.55" type="curve"/>
      <point x="673.4" y="575.8"/>
      <point x="792.2" y="677.65"/>
      <point x="965.45" y="677.65" type="curve"/>
      <point x="1035.2" y="677.65"/>
      <point x="1589.5" y="653.8"/>
      <point x="1616.05" y="623.65" type="curve"/>
      <point x="1626.5" y="781.4" type="line"/>
      <point x="1513.35" y="781.4" type="line"/>
      <point x="1507.05" y="959.0" type="line"/>
      <point x="1632.25" y="959.0" type="line"/>
      <point x="1632.25" y="821.8" type="line"/>
      <point x="1488.6" y="821.8" type="line"/>
      <point x="1488.6" y="968.6" type="line"/>
      <point x="1647.1" y="968.6" type="line"/>
      <point x="1657.55" y="820.45" type="line"/>
      <point x="1379.9" y="820.45" type="line"/>
      <point x="1374.5" y="736.75" type="line"/>
      <point x="1325.55" y="768.1"/>
      <point x="1013.8" y="785.7"/>
      <point x="943.4" y="785.7" type="curve" smooth="yes"/>
      <point x="727.8" y="785.7"/>
      <point x="565.55" y="658.55"/>
      <point x="563.9" y="429.2" type="curve"/>
      <point x="558.5" y="178.65"/>
      <point x="629.5" y="-21.6"/>
    </contour>
    <contour>
      <point x="806.45" y="142.0" type="curve" smooth="yes"/>
      <point x="696.65" y="142.55"/>
      <point x="695.35" y="305.5"/>
      <point x="710.2" y="458.05" type="curve"/>
      <point x="711.3" y="606.0"/>
      <point x="792.7" y="1253.1"/>
      <point x="943.4" y="1253.1" type="curve" smooth="yes"/>
      <point x="989.25" y="1278.75"/>
      <point x="996.55" y="1271.3"/>
      <point x="977.6" y="1235.0" type="curve"/>
      <point x="823.25" y="1235.0"/>
      <point x="726.5" y="687.3"/>
      <point x="721.1" y="514.95" type="curve"/>
      <point x="685.9" y="307.2"/>
      <point x="685.05" y="144.7"/>
    </contour>
  </outline>
</glyph>
<glyph name="uni0237" format="1">
  <advance width="493.6"/>
  <unicode hex="0237"/>
  <outline>
    <contour>
      <point x="-32.8" y="-434.45" type="line"/>
      <point x="26.15" y="-434.45" type="line" smooth="yes"/>
      <point x="308.85" y="-434.45"/>
      <point x="366.2" y="-329.4"/>
      <point x="366.2" y="-62.4" type="curve" smooth="yes"/>
      <point x="366.2" y="1071.15" type="line"/>
      <point x="155.55" y="1071.15" type="line"/>
      <point x="155.55" y="-62.95" type="line" smooth="yes"/>
      <point x="155.55" y="-222.15"/>
      <point x="166.3" y="-272.95"/>
      <point x="-3.75" y="-272.95" type="curve" smooth="yes"/>
      <point x="-65.15" y="-272.95" type="line"/>
    </contour>
  </outline>
</glyph>
<glyph name="uni02BC" format="1">
  <advance width="448.75"/>
  <unicode hex="02BC"/>
  <outline>
    <contour>
      <point x="122.1" y="1029.45" type="line"/>
      <point x="242.15" y="1029.45" type="line"/>
      <point x="356.35" y="1497.0" type="line"/>
      <point x="192.05" y="1497.0" type="line"/>
    </contour>
  </outline>
</glyph>
<glyph name="circumflex" format="1">
  <advance width="741.65"/>
  <unicode hex="02C6"/>
  <outline>
    <contour>
      <point x="65.6" y="1180.7" type="line"/>
      <point x="205.2" y="1180.7" type="line"/>
      <point x="360.05" y="1429.7" type="line"/>
      <point x="517.95" y="1180.7" type="line"/>
      <point x="659.85" y="1180.7" type="line"/>
      <point x="463.15" y="1558.7" type="line"/>
      <point x="269.3" y="1558.7" type="line"/>
    </contour>
  </outline>
</glyph>
<glyph name="caron" format="1">
  <advance width="740.55"/>
  <unicode hex="02C7"/>
  <outline>
    <contour>
      <point x="263.4" y="1198.85" type="line"/>
      <point x="453.4" y="1198.85" type="line"/>
      <point x="664.8" y="1558.7" type="line"/>
      <point x="511.45" y="1558.7" type="line"/>
      <point x="352.2" y="1322.9" type="line"/>
      <point x="210.25" y="1558.7" type="line"/>
      <point x="59.55" y="1558.7" type="line"/>
    </contour>
  </outline>
</glyph>
<glyph name="breve" format="1">
  <advance width="695.9"/>
  <unicode hex="02D8"/>
  <outline>
    <contour>
      <point x="345.65" y="1234.65" type="curve" smooth="yes"/>
      <point x="483.7" y="1234.65"/>
      <point x="597.6" y="1307.2"/>
      <point x="597.6" y="1475.8" type="curve"/>
      <point x="469.2" y="1475.8" type="line"/>
      <point x="469.2" y="1390.65"/>
      <point x="417.35" y="1357.0"/>
      <point x="345.65" y="1357.0" type="curve" smooth="yes"/>
      <point x="273.95" y="1357.0"/>
      <point x="225.25" y="1390.65"/>
      <point x="225.25" y="1475.8" type="curve"/>
      <point x="96.5" y="1475.8" type="line"/>
      <point x="96.5" y="1307.3"/>
      <point x="208.6" y="1234.65"/>
    </contour>
  </outline>
</glyph>
<glyph name="dotaccent" format="1">
  <advance width="404.25"/>
  <unicode hex="02D9"/>
  <outline>
    <contour>
      <point x="118.15" y="1243.35" type="line"/>
      <point x="289.7" y="1243.35" type="line"/>
      <point x="289.7" y="1433.05" type="line"/>
      <point x="118.15" y="1433.05" type="line"/>
    </contour>
  </outline>
</glyph>
<glyph name="ring" format="1">
  <advance width="595.5"/>
  <unicode hex="02DA"/>
  <outline>
    <contour>
      <point x="297.75" y="1265.4" type="curve" smooth="yes"/>
      <point x="240.0" y="1265.4"/>
      <point x="204.25" y="1310.4"/>
      <point x="204.25" y="1365.4" type="curve" smooth="yes"/>
      <point x="204.25" y="1417.65"/>
      <point x="242.2" y="1464.4"/>
      <point x="297.75" y="1464.4" type="curve" smooth="yes"/>
      <point x="354.4" y="1464.4"/>
      <point x="392.25" y="1418.2"/>
      <point x="392.25" y="1365.4" type="curve" smooth="yes"/>
      <point x="392.25" y="1310.95"/>
      <point x="354.4" y="1265.4"/>
    </contour>
    <contour>
      <point x="297.75" y="1178.75" type="curve" smooth="yes"/>
      <point x="414.3" y="1178.75"/>
      <point x="493.05" y="1264.15"/>
      <point x="493.05" y="1365.85" type="curve" smooth="yes"/>
      <point x="493.05" y="1467.0"/>
      <point x="415.95" y="1552.4"/>
      <point x="297.75" y="1552.4" type="curve" smooth="yes"/>
      <point x="180.65" y="1552.4"/>
      <point x="102.45" y="1467.55"/>
      <point x="102.45" y="1365.85" type="curve" smooth="yes"/>
      <point x="102.45" y="1264.15"/>
      <point x="181.2" y="1178.75"/>
    </contour>
  </outline>
</glyph>
<glyph name="ogonek" format="1">
  <advance width="546.75"/>
  <unicode hex="02DB"/>
  <outline>
    <contour>
      <point x="462.35" y="-386.85" type="curve"/>
      <point x="462.35" y="-386.85"/>
      <point x="458.05" y="-269.0"/>
      <point x="457.95" y="-269.0" type="curve" smooth="yes"/>
      <point x="440.9" y="-276.25"/>
      <point x="389.8" y="-295.6"/>
      <point x="342.9" y="-295.6" type="curve" smooth="yes"/>
      <point x="299.75" y="-295.6"/>
      <point x="265.55" y="-267.7"/>
      <point x="265.55" y="-219.1" type="curve" smooth="yes"/>
      <point x="265.55" y="-149.85"/>
      <point x="333.2" y="-48.75"/>
      <point x="399.05" y="0.0" type="curve"/>
      <point x="307.2" y="0.0" type="line"/>
      <point x="213.75" y="-41.65"/>
      <point x="109.9" y="-144.5"/>
      <point x="109.9" y="-262.25" type="curve" smooth="yes"/>
      <point x="109.9" y="-361.55"/>
      <point x="184.65" y="-418.9"/>
      <point x="304.0" y="-418.9" type="curve" smooth="yes"/>
      <point x="357.9" y="-418.9"/>
      <point x="421.0" y="-404.35"/>
    </contour>
  </outline>
</glyph>
<glyph name="tilde" format="1">
  <advance width="808.8"/>
  <unicode hex="02DC"/>
  <outline>
    <contour>
      <point x="197.35" y="1224.0" type="line"/>
      <point x="207.95" y="1293.0"/>
      <point x="232.95" y="1319.7"/>
      <point x="267.3" y="1319.7" type="curve" smooth="yes"/>
      <point x="336.7" y="1319.7"/>
      <point x="447.0" y="1224.0"/>
      <point x="552.95" y="1224.0" type="curve" smooth="yes"/>
      <point x="656.35" y="1224.0"/>
      <point x="710.25" y="1314.8"/>
      <point x="710.25" y="1441.7" type="curve"/>
      <point x="607.5" y="1441.7" type="line"/>
      <point x="597.55" y="1379.1"/>
      <point x="577.2" y="1359.3"/>
      <point x="548.05" y="1359.3" type="curve" smooth="yes"/>
      <point x="488.65" y="1359.3"/>
      <point x="392.05" y="1442.15"/>
      <point x="269.5" y="1442.15" type="curve" smooth="yes"/>
      <point x="153.65" y="1442.15"/>
      <point x="96.4" y="1353.95"/>
      <point x="96.4" y="1224.0" type="curve"/>
    </contour>
  </outline>
</glyph>
<glyph name="hungarumlaut" format="1">
  <advance width="789.6"/>
  <unicode hex="02DD"/>
  <outline>
    <contour>
      <point x="119.55" y="1187.55" type="line"/>
      <point x="227.25" y="1187.55" type="line"/>
      <point x="488.05" y="1519.8" type="line"/>
      <point x="302.8" y="1519.8" type="line"/>
    </contour>
    <contour>
      <point x="373.8" y="1187.55" type="line"/>
      <point x="481.75" y="1187.55" type="line"/>
      <point x="771.0" y="1519.8" type="line"/>
      <point x="579.15" y="1519.8" type="line"/>
    </contour>
  </outline>
</glyph>
<glyph name="uni0307" format="1">
  <advance width="379.0"/>
  <unicode hex="0307"/>
  <outline>
    <contour>
      <point x="110.95" y="1228.75" type="line"/>
      <point x="282.5" y="1228.75" type="line"/>
      <point x="282.5" y="1427.35" type="line"/>
      <point x="110.95" y="1427.35" type="line"/>
    </contour>
  </outline>
</glyph>
<glyph name="uni030F" format="1">
  <advance width="695"/>
  <unicode hex="030F"/>
  <outline>
    <contour>
      <point x="582" y="1297" type="line"/>
      <point x="526" y="1297" type="line"/>
      <point x="351" y="1599" type="line"/>
      <point x="473" y="1599" type="line"/>
    </contour>
    <contour>
      <point x="393" y="1297" type="line"/>
      <point x="334" y="1297" type="line"/>
      <point x="108" y="1599" type="line"/>
      <point x="241" y="1599" type="line"/>
    </contour>
  </outline>
</glyph>
<glyph name="uni0311" format="1">
  <advance width="663.7"/>
  <unicode hex="0311"/>
  <outline>
    <contour>
      <point x="90.6" y="1236.5" type="curve"/>
      <point x="218.55" y="1236.5" type="line"/>
      <point x="218.55" y="1320.9"/>
      <point x="272.15" y="1360.15"/>
      <point x="339.2" y="1360.15" type="curve" smooth="yes"/>
      <point x="405.9" y="1360.15"/>
      <point x="462.4" y="1321.0"/>
      <point x="462.4" y="1236.5" type="curve"/>
      <point x="591.25" y="1236.5" type="line"/>
      <point x="591.25" y="1400.9"/>
      <point x="463.75" y="1471.75"/>
      <point x="340.05" y="1471.75" type="curve" smooth="yes"/>
      <point x="216.15" y="1471.75"/>
      <point x="90.6" y="1400.8"/>
    </contour>
  </outline>
</glyph>
<glyph name="uni031B" format="1">
  <advance width="493.95"/>
  <unicode hex="031B"/>
  <outline>
    <contour>
      <point x="213.15" y="499.0" type="line"/>
      <point x="224.85" y="469.3"/>
      <point x="233.25" y="432.2"/>
      <point x="233.25" y="396.7" type="curve" smooth="yes"/>
      <point x="233.25" y="330.8"/>
      <point x="206.8" y="256.95"/>
      <point x="108.35" y="256.95" type="curve" smooth="yes"/>
      <point x="104.3" y="256.95"/>
      <point x="95.85" y="257.4"/>
      <point x="91.35" y="257.85" type="curve"/>
      <point x="91.35" y="168.05" type="line"/>
      <point x="111.7" y="165.6"/>
      <point x="130.95" y="163.7"/>
      <point x="149.4" y="163.7" type="curve" smooth="yes"/>
      <point x="302.2" y="163.7"/>
      <point x="350.2" y="254.05"/>
      <point x="350.2" y="349.85" type="curve" smooth="yes"/>
      <point x="350.2" y="399.95"/>
      <point x="335.25" y="454.4"/>
      <point x="315.6" y="499.0" type="curve"/>
    </contour>
  </outline>
</glyph>
<glyph name="Delta" format="1">
  <advance width="1344.45"/>
  <unicode hex="0394"/>
  <outline>
    <contour>
      <point x="72.55" y="0.0" type="line"/>
      <point x="595.9" y="1445.35" type="line"/>
      <point x="785.05" y="1445.35" type="line"/>
      <point x="1308.75" y="0.0" type="line"/>
    </contour>
    <contour>
      <point x="317.6" y="161.35" type="line"/>
      <point x="1069.0" y="161.35" type="line"/>
      <point x="690.3" y="1243.8" type="line"/>
    </contour>
  </outline>
</glyph>
<glyph name="Lambda" format="1">
  <advance width="1344.45"/>
  <unicode hex="039B"/>
  <outline>
    <contour>
      <point x="72.45" y="0.0" type="line"/>
      <point x="600.35" y="1443.4" type="line"/>
      <point x="780.4" y="1443.4" type="line"/>
      <point x="1308.75" y="0.0" type="line"/>
      <point x="1130.35" y="0.0" type="line"/>
      <point x="690.2" y="1249.9" type="line"/>
      <point x="255.85" y="0.0" type="line"/>
    </contour>
  </outline>
</glyph>
<glyph name="Pi" format="1">
  <advance width="1369.9"/>
  <unicode hex="03A0"/>
  <outline>
    <contour>
      <point x="141.35" y="0.0" type="line"/>
      <point x="141.35" y="1443.4" type="line"/>
      <point x="1267.6" y="1443.4" type="line"/>
      <point x="1267.6" y="0.0" type="line"/>
      <point x="1093.75" y="0.0" type="line"/>
      <point x="1093.75" y="1293.1" type="line"/>
      <point x="316.55" y="1293.1" type="line"/>
      <point x="316.55" y="0.0" type="line"/>
    </contour>
  </outline>
</glyph>
<glyph name="Sigma" format="1">
  <advance width="1095.4"/>
  <unicode hex="03A3"/>
  <outline>
    <contour>
      <point x="142.1" y="0.0" type="line"/>
      <point x="142.1" y="1424.3" type="line"/>
      <point x="1009.15" y="1424.3" type="line"/>
      <point x="1000.75" y="1255.85" type="line"/>
      <point x="351.95" y="1255.85" type="line"/>
      <point x="351.95" y="821.15" type="line"/>
      <point x="952.05" y="821.15" type="line"/>
      <point x="952.05" y="657.4" type="line"/>
      <point x="351.95" y="657.4" type="line"/>
      <point x="351.95" y="168.45" type="line"/>
      <point x="1011.5" y="168.45" type="line"/>
      <point x="1004.05" y="0.0" type="line"/>
    </contour>
  </outline>
</glyph>
<glyph name="Phi" format="1">
  <advance width="1579.45"/>
  <unicode hex="03A6"/>
  <outline>
    <contour>
      <point x="721.5" y="0.0" type="line"/>
      <point x="721.5" y="164.25" type="line"/>
      <point x="320.3" y="195.1"/>
      <point x="109.15" y="434.15"/>
      <point x="109.15" y="745.05" type="curve" smooth="yes"/>
      <point x="109.15" y="1060.75"/>
      <point x="332.35" y="1281.65"/>
      <point x="721.5" y="1310.95" type="curve"/>
      <point x="721.5" y="1443.4" type="line"/>
      <point x="895.15" y="1443.4" type="line"/>
      <point x="895.15" y="1310.95" type="line"/>
      <point x="1287.35" y="1283.2"/>
      <point x="1512.15" y="1062.4"/>
      <point x="1512.15" y="745.05" type="curve" smooth="yes"/>
      <point x="1512.15" y="433.35"/>
      <point x="1300.65" y="193.2"/>
      <point x="895.15" y="164.25" type="curve"/>
      <point x="895.15" y="0.0" type="line"/>
    </contour>
    <contour>
      <point x="721.5" y="317.7" type="curve"/>
      <point x="721.5" y="1157.95" type="line"/>
      <point x="437.7" y="1130.85"/>
      <point x="294.9" y="972.85"/>
      <point x="294.9" y="745.05" type="curve" smooth="yes"/>
      <point x="294.9" y="525.8"/>
      <point x="425.15" y="347.45"/>
    </contour>
    <contour>
      <point x="895.15" y="317.7" type="line"/>
      <point x="1193.65" y="345.9"/>
      <point x="1326.3" y="524.15"/>
      <point x="1326.3" y="745.05" type="curve" smooth="yes"/>
      <point x="1326.3" y="971.65"/>
      <point x="1184.05" y="1131.85"/>
      <point x="895.15" y="1157.95" type="curve"/>
    </contour>
  </outline>
</glyph>
<glyph name="Omega" format="1">
  <advance width="1584.1"/>
  <unicode hex="03A9"/>
  <outline>
    <contour>
      <point x="813.6" y="177.7" type="curve" smooth="yes"/>
      <point x="1098.05" y="177.7"/>
      <point x="1258.25" y="398.75"/>
      <point x="1258.25" y="710.15" type="curve" smooth="yes"/>
      <point x="1258.25" y="1030.15"/>
      <point x="1094.8" y="1249.65"/>
      <point x="814.05" y="1249.65" type="curve" smooth="yes"/>
      <point x="533.3" y="1249.65"/>
      <point x="367.4" y="1030.6"/>
      <point x="367.4" y="710.15" type="curve" smooth="yes"/>
      <point x="367.4" y="398.75"/>
      <point x="529.15" y="177.7"/>
    </contour>
    <contour>
      <point x="813.6" y="-19.9" type="curve" smooth="yes"/>
      <point x="386.65" y="-19.9"/>
      <point x="117.05" y="261.3"/>
      <point x="117.05" y="711.7" type="curve" smooth="yes"/>
      <point x="117.05" y="1169.25"/>
      <point x="391.35" y="1448.8"/>
      <point x="814.05" y="1448.8" type="curve" smooth="yes"/>
      <point x="1233.15" y="1448.8"/>
      <point x="1508.95" y="1167.9"/>
      <point x="1508.95" y="711.25" type="curve" smooth="yes"/>
      <point x="1508.95" y="264.0"/>
      <point x="1238.3" y="-19.9"/>
    </contour>
  </outline>
</glyph>
<glyph name="rho" format="1">
  <advance width="1197.3"/>
  <unicode hex="03C1"/>
  <outline>
    <contour>
      <point x="137.35" y="-451.4" type="line"/>
      <point x="340.0" y="-440.65" type="line"/>
      <point x="340.0" y="-47.95" type="line" smooth="yes"/>
      <point x="340.0" y="8.5"/>
      <point x="338.45" y="70.05"/>
      <point x="335.0" y="134.15" type="curve"/>
      <point x="405.0" y="41.6"/>
      <point x="531.45" y="-21.7"/>
      <point x="667.75" y="-21.7" type="curve" smooth="yes"/>
      <point x="943.0" y="-21.7"/>
      <point x="1126.7" y="211.25"/>
      <point x="1126.7" y="528.2" type="curve" smooth="yes"/>
      <point x="1126.7" y="849.25"/>
      <point x="959.65" y="1084.9"/>
      <point x="671.3" y="1084.9" type="curve" smooth="yes"/>
      <point x="528.3" y="1084.9"/>
      <point x="396.65" y="1015.1"/>
      <point x="337.35" y="902.4" type="curve"/>
      <point x="317.85" y="1061.7" type="line"/>
      <point x="137.35" y="1061.7" type="line"/>
    </contour>
    <contour>
      <point x="633.4" y="132.2" type="curve" smooth="yes"/>
      <point x="420.75" y="132.2"/>
      <point x="339.35" y="276.95"/>
      <point x="339.35" y="549.7" type="curve"/>
      <point x="340.0" y="791.55"/>
      <point x="430.15" y="930.1"/>
      <point x="633.0" y="930.1" type="curve" smooth="yes"/>
      <point x="824.05" y="930.1"/>
      <point x="924.6" y="780.85"/>
      <point x="924.6" y="533.35" type="curve" smooth="yes"/>
      <point x="924.6" y="284.4"/>
      <point x="821.65" y="132.2"/>
    </contour>
  </outline>
</glyph>
<glyph name="uni040A" format="1">
  <advance width="2105.75"/>
  <unicode hex="040A"/>
  <outline>
    <contour>
      <point x="1060.7" y="0.0" type="line"/>
      <point x="1555.55" y="0.0" type="line" smooth="yes"/>
      <point x="1893.8" y="0.0"/>
      <point x="2060.75" y="145.8"/>
      <point x="2060.75" y="410.05" type="curve" smooth="yes"/>
      <point x="2060.75" y="672.55"/>
      <point x="1905.7" y="813.8"/>
      <point x="1556.25" y="813.8" type="curve" smooth="yes"/>
      <point x="1213.75" y="813.8" type="line"/>
      <point x="1280.8" y="748.5" type="line"/>
      <point x="1281.7" y="1423.7" type="line"/>
      <point x="1060.7" y="1423.7" type="line"/>
      <point x="1060.7" y="754.6" type="line"/>
      <point x="1129.15" y="813.8" type="line"/>
      <point x="341.5" y="813.8" type="line"/>
      <point x="412.45" y="754.6" type="line"/>
      <point x="412.45" y="1423.7" type="line"/>
      <point x="191.45" y="1423.7" type="line"/>
      <point x="191.45" y="0.0" type="line"/>
      <point x="412.45" y="0.0" type="line"/>
      <point x="412.45" y="713.3" type="line"/>
      <point x="341.5" y="652.0" type="line"/>
      <point x="1133.9" y="652.0" type="line"/>
      <point x="1060.7" y="713.3" type="line"/>
    </contour>
    <contour>
      <point x="1281.35" y="73.35" type="line"/>
      <point x="1281.35" y="719.95" type="line"/>
      <point x="1214.4" y="652.0" type="line"/>
      <point x="1545.9" y="652.0" type="line" smooth="yes"/>
      <point x="1758.8" y="652.0"/>
      <point x="1843.35" y="591.05"/>
      <point x="1843.35" y="410.8" type="curve" smooth="yes"/>
      <point x="1843.35" y="230.15"/>
      <point x="1741.7" y="163.55"/>
      <point x="1537.35" y="163.55" type="curve" smooth="yes"/>
      <point x="1205.5" y="163.55" type="line"/>
    </contour>
  </outline>
</glyph>
<glyph name="uni0411" format="1">
  <advance width="1252.95"/>
  <unicode hex="0411"/>
  <outline>
    <contour>
      <point x="185.6" y="0.0" type="line"/>
      <point x="710.2" y="0.0" type="line" smooth="yes"/>
      <point x="1048.45" y="0.0"/>
      <point x="1210.9" y="151.2"/>
      <point x="1210.9" y="415.45" type="curve" smooth="yes"/>
      <point x="1210.9" y="677.95"/>
      <point x="1059.8" y="826.05"/>
      <point x="710.35" y="826.05" type="curve" smooth="yes"/>
      <point x="328.6" y="826.05" type="line"/>
      <point x="406.6" y="759.95" type="line"/>
      <point x="406.6" y="1339.9" type="line"/>
      <point x="335.9" y="1267.65" type="line"/>
      <point x="1063.65" y="1267.65" type="line"/>
      <point x="1063.65" y="1432.6" type="line"/>
      <point x="185.6" y="1432.6" type="line"/>
    </contour>
    <contour>
      <point x="406.6" y="77.85" type="line"/>
      <point x="406.6" y="726.1" type="line"/>
      <point x="327.7" y="658.45" type="line"/>
      <point x="700.0" y="658.45" type="line" smooth="yes"/>
      <point x="909.3" y="658.45"/>
      <point x="989.35" y="593.9"/>
      <point x="989.35" y="413.65" type="curve" smooth="yes"/>
      <point x="989.35" y="233.0"/>
      <point x="890.85" y="167.15"/>
      <point x="691.45" y="167.15" type="curve" smooth="yes"/>
      <point x="332.65" y="167.15" type="line"/>
    </contour>
  </outline>
</glyph>
<glyph name="uni041B" format="1">
  <advance width="1519.35"/>
  <unicode hex="041B"/>
  <outline>
    <contour>
      <point x="-47.2" y="-23.65" type="line"/>
      <point x="44.05" y="-23.65" type="line" smooth="yes"/>
      <point x="351.15" y="-23.65"/>
      <point x="472.3" y="134.05"/>
      <point x="472.3" y="445.25" type="curve" smooth="yes"/>
      <point x="472.3" y="1321.1" type="line"/>
      <point x="402.35" y="1260.25" type="line"/>
      <point x="1221.25" y="1259.8" type="line"/>
      <point x="1147.5" y="1320.65" type="line"/>
      <point x="1147.5" y="-0.45" type="line"/>
      <point x="1367.6" y="-0.9" type="line"/>
      <point x="1368.5" y="1423.25" type="line"/>
      <point x="251.3" y="1423.7" type="line"/>
      <point x="251.3" y="425.9" type="line" smooth="yes"/>
      <point x="251.3" y="263.45"/>
      <point x="213.3" y="153.35"/>
      <point x="21.5" y="153.35" type="curve" smooth="yes"/>
      <point x="-47.2" y="153.35" type="line"/>
    </contour>
  </outline>
</glyph>
<glyph name="uni041F" format="1">
  <advance width="1485.6"/>
  <unicode hex="041F"/>
  <outline>
    <contour>
      <point x="191.45" y="0.0" type="line"/>
      <point x="412.45" y="0.0" type="line"/>
      <point x="412.45" y="1321.1" type="line"/>
      <point x="342.05" y="1260.25" type="line"/>
      <point x="1187.5" y="1260.25" type="line"/>
      <point x="1113.75" y="1321.1" type="line"/>
      <point x="1113.75" y="0.0" type="line"/>
      <point x="1334.75" y="0.0" type="line"/>
      <point x="1334.75" y="1423.7" type="line"/>
      <point x="191.45" y="1423.7" type="line"/>
    </contour>
  </outline>
</glyph>
<glyph name="uni0424" format="1">
  <advance width="1621.3"/>
  <unicode hex="0424"/>
  <outline>
    <contour>
      <point x="739.7" y="0.0" type="line"/>
      <point x="917.7" y="0.0" type="line"/>
      <point x="917.7" y="129.5" type="line"/>
      <point x="1322.5" y="153.65"/>
      <point x="1579.95" y="366.35"/>
      <point x="1579.95" y="720.85" type="curve" smooth="yes"/>
      <point x="1579.95" y="1074.3"/>
      <point x="1321.65" y="1285.3"/>
      <point x="917.7" y="1308.35" type="curve"/>
      <point x="917.7" y="1434.4" type="line"/>
      <point x="739.7" y="1434.4" type="line"/>
      <point x="739.05" y="1307.0" type="line"/>
      <point x="330.0" y="1276.9"/>
      <point x="88.7" y="1056.95"/>
      <point x="88.7" y="720.85" type="curve" smooth="yes"/>
      <point x="88.7" y="381.95"/>
      <point x="330.85" y="160.5"/>
      <point x="739.05" y="130.4" type="curve"/>
    </contour>
    <contour>
      <point x="739.05" y="300.4" type="line"/>
      <point x="432.65" y="329.15"/>
      <point x="288.65" y="490.35"/>
      <point x="288.65" y="720.1" type="curve" smooth="yes"/>
      <point x="288.65" y="947.9"/>
      <point x="433.4" y="1109.15"/>
      <point x="739.05" y="1137.9" type="curve"/>
    </contour>
    <contour>
      <point x="917.7" y="299.05" type="curve"/>
      <point x="917.7" y="1138.8" type="line"/>
      <point x="1236.65" y="1112.4"/>
      <point x="1380.55" y="948.7"/>
      <point x="1380.55" y="720.1" type="curve" smooth="yes"/>
      <point x="1380.55" y="489.25"/>
      <point x="1235.8" y="325.45"/>
    </contour>
  </outline>
</glyph>
<glyph name="uni0427" format="1">
  <advance width="1260.5"/>
  <unicode hex="0427"/>
  <outline>
    <contour>
      <point x="914.4" y="3.95" type="line"/>
      <point x="1111.9" y="3.95" type="line"/>
      <point x="1111.9" y="1419.9" type="line"/>
      <point x="914.4" y="1419.9" type="line"/>
      <point x="914.4" y="683.2" type="line"/>
      <point x="906.65" y="680.0"/>
      <point x="600.45" y="673.55"/>
      <point x="595.05" y="673.55" type="curve" smooth="yes"/>
      <point x="407.9" y="673.55"/>
      <point x="319.0" y="712.25"/>
      <point x="319.0" y="930.8" type="curve" smooth="yes"/>
      <point x="319.0" y="1419.9" type="line"/>
      <point x="124.9" y="1419.9" type="line"/>
      <point x="124.9" y="899.9" type="line" smooth="yes"/>
      <point x="124.9" y="622.45"/>
      <point x="291.35" y="500.05"/>
      <point x="572.65" y="500.05" type="curve" smooth="yes"/>
      <point x="578.7" y="500.05"/>
      <point x="903.05" y="502.95"/>
      <point x="913.85" y="508.2" type="curve"/>
    </contour>
  </outline>
</glyph>
<glyph name="uni0428" format="1">
  <advance width="1653.25"/>
  <unicode hex="0428"/>
  <outline>
    <contour>
      <point x="165.35" y="0.0" type="line"/>
      <point x="1529.0" y="0.0" type="line"/>
      <point x="1529.0" y="1432.6" type="line"/>
      <point x="1330.6" y="1432.6" type="line"/>
      <point x="1330.6" y="163.05" type="line"/>
      <point x="948.55" y="163.05" type="line"/>
      <point x="948.55" y="1432.6" type="line"/>
      <point x="750.8" y="1432.6" type="line"/>
      <point x="750.8" y="163.05" type="line"/>
      <point x="362.65" y="163.05" type="line"/>
      <point x="362.65" y="1432.6" type="line"/>
      <point x="165.35" y="1432.6" type="line"/>
    </contour>
  </outline>
</glyph>
<glyph name="uni0429" format="1">
  <advance width="1709.95"/>
  <unicode hex="0429"/>
  <outline>
    <contour>
      <point x="1478.35" y="-298.65" type="line"/>
      <point x="1661.2" y="-298.65" type="line"/>
      <point x="1661.2" y="141.85" type="line"/>
      <point x="1549.25" y="141.85" type="line"/>
      <point x="1549.25" y="1432.6" type="line"/>
      <point x="1350.95" y="1432.6" type="line"/>
      <point x="1350.95" y="163.05" type="line"/>
      <point x="968.8" y="163.05" type="line"/>
      <point x="968.8" y="1432.6" type="line"/>
      <point x="771.05" y="1432.6" type="line"/>
      <point x="771.05" y="163.05" type="line"/>
      <point x="382.9" y="163.05" type="line"/>
      <point x="382.9" y="1432.6" type="line"/>
      <point x="185.6" y="1432.6" type="line"/>
      <point x="185.6" y="0.0" type="line"/>
      <point x="1478.25" y="0.0" type="line"/>
    </contour>
  </outline>
</glyph>
<glyph name="uni042A" format="1">
  <advance width="1325.55"/>
  <unicode hex="042A"/>
  <outline>
    <contour>
      <point x="224.75" y="0.0" type="line"/>
      <point x="717.85" y="0.0" type="line" smooth="yes"/>
      <point x="1056.1" y="0.0"/>
      <point x="1218.55" y="151.2"/>
      <point x="1218.55" y="415.45" type="curve" smooth="yes"/>
      <point x="1218.55" y="677.95"/>
      <point x="1067.9" y="826.05"/>
      <point x="718.45" y="826.05" type="curve" smooth="yes"/>
      <point x="367.75" y="826.05" type="line"/>
      <point x="445.75" y="759.95" type="line"/>
      <point x="446.3" y="1423.15" type="line"/>
      <point x="-25.3" y="1423.15" type="line"/>
      <point x="-25.85" y="1258.3" type="line"/>
      <point x="303.5" y="1259.2" type="line"/>
      <point x="224.75" y="1332.75" type="line"/>
    </contour>
    <contour>
      <point x="445.75" y="77.85" type="line"/>
      <point x="445.75" y="728.3" type="line"/>
      <point x="366.85" y="660.1" type="line"/>
      <point x="708.1" y="660.1" type="line" smooth="yes"/>
      <point x="917.4" y="660.1"/>
      <point x="997.0" y="595.55"/>
      <point x="997.0" y="415.3" type="curve" smooth="yes"/>
      <point x="997.0" y="234.65"/>
      <point x="898.5" y="167.15"/>
      <point x="699.1" y="167.15" type="curve" smooth="yes"/>
      <point x="371.25" y="167.15" type="line"/>
    </contour>
  </outline>
</glyph>
<glyph name="uni042C" format="1">
  <advance width="1273.85"/>
  <unicode hex="042C"/>
  <outline>
    <contour>
      <point x="185.6" y="0.0" type="line"/>
      <point x="699.75" y="0.0" type="line" smooth="yes"/>
      <point x="1038.0" y="0.0"/>
      <point x="1200.45" y="151.2"/>
      <point x="1200.45" y="415.45" type="curve" smooth="yes"/>
      <point x="1200.45" y="677.95"/>
      <point x="1049.35" y="826.05"/>
      <point x="699.9" y="826.05" type="curve" smooth="yes"/>
      <point x="328.6" y="826.05" type="line"/>
      <point x="406.6" y="759.95" type="line"/>
      <point x="407.15" y="1422.7" type="line"/>
      <point x="185.6" y="1422.15" type="line"/>
    </contour>
    <contour>
      <point x="406.6" y="77.85" type="line"/>
      <point x="406.6" y="728.3" type="line"/>
      <point x="327.7" y="660.1" type="line"/>
      <point x="689.55" y="660.1" type="line" smooth="yes"/>
      <point x="898.85" y="660.1"/>
      <point x="978.9" y="595.55"/>
      <point x="978.9" y="415.3" type="curve" smooth="yes"/>
      <point x="978.9" y="234.65"/>
      <point x="880.4" y="167.15"/>
      <point x="681.0" y="167.15" type="curve" smooth="yes"/>
      <point x="332.65" y="167.15" type="line"/>
    </contour>
  </outline>
</glyph>
<glyph name="uni0447" format="1">
  <advance width="1047.8"/>
  <unicode hex="0447"/>
  <outline>
    <contour>
      <point x="734.95" y="0.0" type="line"/>
      <point x="935.0" y="0.0" type="line"/>
      <point x="935.0" y="1061.6" type="line"/>
      <point x="734.95" y="1061.6" type="line"/>
      <point x="734.95" y="611.2" type="line"/>
      <point x="731.65" y="580.95"/>
      <point x="610.7" y="532.0"/>
      <point x="526.55" y="532.0" type="curve" smooth="yes"/>
      <point x="361.55" y="532.0"/>
      <point x="307.15" y="610.8"/>
      <point x="307.15" y="820.4" type="curve" smooth="yes"/>
      <point x="307.15" y="1061.6" type="line"/>
      <point x="106.75" y="1061.6" type="line"/>
      <point x="106.75" y="796.45" type="line" smooth="yes"/>
      <point x="106.75" y="482.7"/>
      <point x="247.7" y="377.3"/>
      <point x="503.25" y="375.65" type="curve"/>
      <point x="574.75" y="375.65"/>
      <point x="704.7" y="396.0"/>
      <point x="734.95" y="425.7" type="curve"/>
    </contour>
  </outline>
</glyph>
<glyph name="uni0448" format="1">
  <advance width="1491"/>
  <unicode hex="0448"/>
  <outline>
    <contour>
      <point x="289" y="0" type="line"/>
      <point x="289" y="1055" type="line"/>
      <point x="412" y="1055" type="line"/>
      <point x="412" y="76" type="line"/>
      <point x="735" y="76" type="line"/>
      <point x="735" y="1055" type="line"/>
      <point x="840" y="1055" type="line"/>
      <point x="840" y="76" type="line"/>
      <point x="1162" y="76" type="line"/>
      <point x="1162" y="1055" type="line"/>
      <point x="1287" y="1055" type="line"/>
      <point x="1287" y="0" type="line"/>
    </contour>
  </outline>
</glyph>
<glyph name="uni044B" format="1">
  <advance width="1506"/>
  <unicode hex="044B"/>
  <outline>
    <contour>
      <point x="193" y="0" type="line"/>
      <point x="193" y="1055" type="line"/>
      <point x="315" y="1055" type="line"/>
      <point x="315" y="668" type="line"/>
      <point x="568" y="668" type="line" smooth="yes"/>
      <point x="871" y="668"/>
      <point x="935" y="487"/>
      <point x="935" y="345" type="curve" smooth="yes"/>
      <point x="935" y="192"/>
      <point x="870" y="0"/>
      <point x="570" y="0" type="curve" smooth="yes"/>
    </contour>
    <contour>
      <point x="314" y="85" type="line"/>
      <point x="574" y="85" type="line" smooth="yes"/>
      <point x="730" y="85"/>
      <point x="819" y="166"/>
      <point x="819" y="347" type="curve" smooth="yes"/>
      <point x="819" y="503"/>
      <point x="728" y="576"/>
      <point x="577" y="576" type="curve" smooth="yes"/>
      <point x="314" y="576" type="line"/>
    </contour>
    <contour>
      <point x="1192" y="0" type="line"/>
      <point x="1192" y="1055" type="line"/>
      <point x="1314" y="1055" type="line"/>
      <point x="1314" y="0" type="line"/>
    </contour>
  </outline>
</glyph>
<glyph name="uni045A" format="1">
  <advance width="1544.95"/>
  <unicode hex="045A"/>
  <outline>
    <contour>
      <point x="138.0" y="0.0" type="line"/>
      <point x="335.9" y="0.0" type="line"/>
      <point x="335.9" y="484.65" type="line"/>
      <point x="784.1" y="484.65" type="line"/>
      <point x="784.1" y="0.0" type="line"/>
      <point x="1193.9" y="0.0" type="line" smooth="yes"/>
      <point x="1417.9" y="0.0"/>
      <point x="1538.55" y="146.25"/>
      <point x="1538.55" y="323.75" type="curve" smooth="yes"/>
      <point x="1538.55" y="516.55"/>
      <point x="1423.6" y="641.7"/>
      <point x="1194.45" y="641.7" type="curve" smooth="yes"/>
      <point x="979.35" y="641.7" type="line"/>
      <point x="979.35" y="1062.5" type="line"/>
      <point x="784.1" y="1062.5" type="line"/>
      <point x="784.1" y="641.15" type="line"/>
      <point x="335.9" y="641.15" type="line"/>
      <point x="335.9" y="1062.5" type="line"/>
      <point x="138.0" y="1062.5" type="line"/>
    </contour>
    <contour>
      <point x="979.35" y="149.25" type="line"/>
      <point x="979.35" y="499.5" type="line"/>
      <point x="1186.85" y="499.5" type="line" smooth="yes"/>
      <point x="1318.7" y="499.5"/>
      <point x="1370.55" y="420.7"/>
      <point x="1370.55" y="327.5" type="curve" smooth="yes"/>
      <point x="1370.55" y="232.45"/>
      <point x="1318.45" y="149.25"/>
      <point x="1187.4" y="149.25" type="curve" smooth="yes"/>
    </contour>
  </outline>
</glyph>
<glyph name="uni045F" format="1">
  <advance width="1055.7"/>
  <unicode hex="045F"/>
  <outline>
    <contour>
      <point x="491.8" y="-280.75" type="line"/>
      <point x="640.85" y="-280.75" type="line"/>
      <point x="647.45" y="0.0" type="line"/>
      <point x="958.95" y="0.0" type="line"/>
      <point x="958.95" y="1061.6" type="line"/>
      <point x="776.45" y="1061.6" type="line"/>
      <point x="776.45" y="146.3" type="line"/>
      <point x="311.15" y="146.3" type="line"/>
      <point x="311.15" y="1061.6" type="line"/>
      <point x="128.55" y="1061.6" type="line"/>
      <point x="128.55" y="0.0" type="line"/>
      <point x="485.95" y="0.0" type="line"/>
    </contour>
  </outline>
</glyph>
<glyph name="endash" format="1">
  <advance width="1192.65"/>
  <unicode hex="2013"/>
  <outline>
    <contour>
      <point x="103.45" y="492.2" type="line"/>
      <point x="1120.5" y="492.2" type="line"/>
      <point x="1120.5" y="646.95" type="line"/>
      <point x="103.45" y="646.95" type="line"/>
    </contour>
  </outline>
</glyph>
<glyph name="emdash" format="1">
  <advance width="2191.45"/>
  <unicode hex="2014"/>
  <outline>
    <contour>
      <point x="92.0" y="492.2" type="line"/>
      <point x="2149.65" y="492.2" type="line"/>
      <point x="2149.65" y="646.95" type="line"/>
      <point x="92.0" y="646.95" type="line"/>
    </contour>
  </outline>
</glyph>
<glyph name="quoteleft" format="1">
  <advance width="435.3"/>
  <unicode hex="2018"/>
  <outline>
    <contour>
      <point x="204.95" y="1019.9" type="line"/>
      <point x="346.4" y="1019.9" type="line"/>
      <point x="296.4" y="1433.05" type="line"/>
      <point x="146.35" y="1433.05" type="line"/>
    </contour>
  </outline>
</glyph>
<glyph name="quoteright" format="1">
  <advance width="430.25"/>
  <unicode hex="2019"/>
  <outline>
    <contour>
      <point x="100.2" y="1019.9" type="line"/>
      <point x="225.9" y="1019.9" type="line"/>
      <point x="360.65" y="1433.05" type="line"/>
      <point x="192.95" y="1433.05" type="line"/>
    </contour>
  </outline>
</glyph>
<glyph name="quotesinglbase" format="1">
  <advance width="455.15"/>
  <unicode hex="201A"/>
  <outline>
    <contour>
      <point x="98.3" y="-246.05" type="line"/>
      <point x="225.45" y="-246.05" type="line"/>
      <point x="361.2" y="215.95" type="line"/>
      <point x="190.7" y="215.95" type="line"/>
    </contour>
  </outline>
</glyph>
<glyph name="quotedblleft" format="1">
  <advance width="721.9"/>
  <unicode hex="201C"/>
  <outline>
    <contour>
      <point x="253.55" y="1034.7" type="line"/>
      <point x="359.75" y="1406.4" type="line"/>
      <point x="246.1" y="1503.0" type="line"/>
      <point x="98.2" y="1132.05" type="line"/>
    </contour>
    <contour>
      <point x="549.45" y="1034.7" type="line"/>
      <point x="653.1" y="1406.4" type="line"/>
      <point x="540.75" y="1503.55" type="line"/>
      <point x="394.2" y="1132.05" type="line"/>
    </contour>
  </outline>
</glyph>
<glyph name="quotedblright" format="1">
  <advance width="739.3"/>
  <unicode hex="201D"/>
  <outline>
    <contour>
      <point x="87.7" y="1078.85" type="line"/>
      <point x="214.5" y="1078.85" type="line"/>
      <point x="348.25" y="1487.95" type="line"/>
      <point x="181.65" y="1487.95" type="line"/>
    </contour>
    <contour>
      <point x="395.15" y="1081.1" type="line"/>
      <point x="519.05" y="1081.1" type="line"/>
      <point x="656.6" y="1487.95" type="line"/>
      <point x="484.5" y="1487.95" type="line"/>
    </contour>
  </outline>
</glyph>
<glyph name="quotedblbase" format="1">
  <advance width="769.75"/>
  <unicode hex="201E"/>
  <outline>
    <contour>
      <point x="131.2" y="-246.05" type="line"/>
      <point x="258.1" y="-246.05" type="line"/>
      <point x="393.1" y="215.95" type="line"/>
      <point x="222.0" y="215.95" type="line"/>
    </contour>
    <contour>
      <point x="415.15" y="-246.05" type="line"/>
      <point x="543.55" y="-246.05" type="line"/>
      <point x="680.6" y="215.95" type="line"/>
      <point x="507.9" y="215.95" type="line"/>
    </contour>
  </outline>
</glyph>
<glyph name="dagger" format="1">
  <advance width="891.55"/>
  <unicode hex="2020"/>
  <outline>
    <contour>
      <point x="383.05" y="114.2" type="line"/>
      <point x="521.5" y="114.2" type="line"/>
      <point x="521.5" y="951.55" type="line"/>
      <point x="822.5" y="951.55" type="line"/>
      <point x="822.5" y="1082.5" type="line"/>
      <point x="523.2" y="1082.5" type="line"/>
      <point x="523.2" y="1437.45" type="line"/>
      <point x="383.05" y="1437.45" type="line"/>
      <point x="383.05" y="1082.5" type="line"/>
      <point x="93.0" y="1082.5" type="line"/>
      <point x="93.0" y="951.55" type="line"/>
      <point x="383.05" y="951.55" type="line"/>
    </contour>
  </outline>
</glyph>
<glyph name="daggerdbl" format="1">
  <advance width="940.2"/>
  <unicode hex="2021"/>
  <outline>
    <contour>
      <point x="801.05" y="410.5" type="line"/>
      <point x="801.05" y="531.1" type="line"/>
      <point x="536.35" y="531.1" type="line"/>
      <point x="535.8" y="946.05" type="line"/>
      <point x="802.7" y="946.05" type="line"/>
      <point x="802.7" y="1073.7" type="line"/>
      <point x="533.1" y="1073.7" type="line"/>
      <point x="533.1" y="1434.15" type="line"/>
      <point x="392.95" y="1434.15" type="line"/>
      <point x="392.95" y="1073.7" type="line"/>
      <point x="124.35" y="1073.7" type="line"/>
      <point x="124.35" y="946.05" type="line"/>
      <point x="392.95" y="946.05" type="line"/>
      <point x="392.95" y="531.1" type="line"/>
      <point x="123.25" y="531.1" type="line"/>
      <point x="123.25" y="410.5" type="line"/>
      <point x="392.95" y="410.5" type="line"/>
      <point x="392.95" y="42.15" type="line"/>
      <point x="536.35" y="42.15" type="line"/>
      <point x="536.35" y="410.5" type="line"/>
    </contour>
  </outline>
</glyph>
<glyph name="bullet" format="1">
  <advance width="845.35"/>
  <unicode hex="2022"/>
  <outline>
    <contour>
      <point x="437.1" y="386.8" type="curve" smooth="yes"/>
      <point x="262.45" y="386.8"/>
      <point x="116.2" y="510.6"/>
      <point x="116.2" y="708.85" type="curve" smooth="yes"/>
      <point x="116.2" y="908.45"/>
      <point x="267.55" y="1036.25"/>
      <point x="442.55" y="1036.25" type="curve" smooth="yes"/>
      <point x="616.55" y="1036.25"/>
      <point x="764.25" y="912.65"/>
      <point x="764.25" y="713.95" type="curve" smooth="yes"/>
      <point x="764.25" y="514.7"/>
      <point x="612.65" y="386.8"/>
    </contour>
  </outline>
</glyph>
<glyph name="guilsinglleft" format="1">
  <advance width="568.15"/>
  <unicode hex="2039"/>
  <outline>
    <contour>
      <point x="522.5" y="966.85" type="line"/>
      <point x="361.8" y="966.85" type="line"/>
      <point x="76.3" y="556.3" type="line"/>
      <point x="356.15" y="153.55" type="line"/>
      <point x="516.4" y="153.55" type="line"/>
      <point x="246.3" y="555.85" type="line"/>
    </contour>
  </outline>
</glyph>
<glyph name="guilsinglright" format="1">
  <advance width="573.1"/>
  <unicode hex="203A"/>
  <outline>
    <contour>
      <point x="85.9" y="153.55" type="line"/>
      <point x="246.6" y="153.55" type="line"/>
      <point x="533.75" y="561.8" type="line"/>
      <point x="251.7" y="966.85" type="line"/>
      <point x="91.45" y="966.85" type="line"/>
      <point x="361.1" y="562.25" type="line"/>
    </contour>
  </outline>
</glyph>
<glyph name="fraction" format="1">
  <advance width="1101.4"/>
  <unicode hex="2044"/>
  <outline>
    <contour>
      <point x="90.8" y="0.0" type="line"/>
      <point x="254.1" y="0.0" type="line"/>
      <point x="1050.75" y="1474.75" type="line"/>
      <point x="894.15" y="1474.75" type="line"/>
    </contour>
  </outline>
</glyph>
<glyph name="uni2074" format="1">
  <advance width="744.55"/>
  <unicode hex="2074"/>
  <outline>
    <contour>
      <point x="424.85" y="625.95" type="line"/>
      <point x="541.1" y="625.95" type="line"/>
      <point x="541.2" y="814.05" type="line"/>
      <point x="645.35" y="814.05" type="line"/>
      <point x="635.4" y="936.2" type="line"/>
      <point x="543.1" y="936.2" type="line"/>
      <point x="543.1" y="1446.9" type="line"/>
      <point x="417.6" y="1446.9" type="line"/>
      <point x="103.05" y="917.2" type="line"/>
      <point x="103.05" y="814.05" type="line"/>
      <point x="424.85" y="814.05" type="line"/>
    </contour>
    <contour>
      <point x="240.75" y="936.2" type="line"/>
      <point x="424.65" y="1243.85" type="line"/>
      <point x="423.75" y="936.2" type="line"/>
    </contour>
  </outline>
</glyph>
<glyph name="Euro" format="1">
  <advance width="1270.2"/>
  <unicode hex="20AC"/>
  <outline>
    <contour>
      <point x="1194.8" y="65.9" type="line"/>
      <point x="1100.35" y="18.45"/>
      <point x="976.5" y="-19.0"/>
      <point x="821.35" y="-19.0" type="curve" smooth="yes"/>
      <point x="485.3" y="-19.0"/>
      <point x="207.8" y="174.15"/>
      <point x="139.2" y="553.15" type="curve"/>
      <point x="205.05" y="512.05" type="line"/>
      <point x="10.2" y="512.05" type="line"/>
      <point x="15.15" y="632.45" type="line"/>
      <point x="194.5" y="632.45" type="line"/>
      <point x="135.45" y="590.45" type="line"/>
      <point x="133.0" y="618.7"/>
      <point x="129.65" y="691.5"/>
      <point x="129.65" y="721.3" type="curve" smooth="yes"/>
      <point x="129.65" y="744.2"/>
      <point x="131.45" y="811.35"/>
      <point x="133.35" y="833.25" type="curve"/>
      <point x="194.25" y="788.0" type="line"/>
      <point x="14.25" y="788.0" type="line"/>
      <point x="18.75" y="907.05" type="line"/>
      <point x="200.55" y="907.05" type="line"/>
      <point x="133.7" y="859.0" type="line"/>
      <point x="194.6" y="1253.9"/>
      <point x="476.1" y="1451.5"/>
      <point x="813.2" y="1451.5" type="curve" smooth="yes"/>
      <point x="975.6" y="1451.5"/>
      <point x="1118.55" y="1407.35"/>
      <point x="1218.6" y="1338.95" type="curve"/>
      <point x="1149.8" y="1189.9" type="line"/>
      <point x="1061.7" y="1242.5"/>
      <point x="943.85" y="1274.65"/>
      <point x="829.95" y="1274.65" type="curve" smooth="yes"/>
      <point x="599.65" y="1274.65"/>
      <point x="413.4" y="1142.9"/>
      <point x="359.8" y="859.0" type="curve"/>
      <point x="297.65" y="907.05" type="line"/>
      <point x="889.6" y="907.05" type="line"/>
      <point x="884.65" y="788.0" type="line"/>
      <point x="286.45" y="788.0" type="line"/>
      <point x="355.35" y="833.25" type="line"/>
      <point x="353.0" y="810.35"/>
      <point x="351.2" y="740.85"/>
      <point x="351.2" y="716.5" type="curve" smooth="yes"/>
      <point x="351.2" y="687.6"/>
      <point x="354.0" y="617.25"/>
      <point x="356.45" y="590.45" type="curve"/>
      <point x="288.8" y="632.45" type="line"/>
      <point x="884.65" y="632.45" type="line"/>
      <point x="879.7" y="512.05" type="line"/>
      <point x="301.7" y="512.05" type="line"/>
      <point x="365.6" y="553.15" type="line"/>
      <point x="426.0" y="280.95"/>
      <point x="608.95" y="158.4"/>
      <point x="847.65" y="158.4" type="curve" smooth="yes"/>
      <point x="962.6" y="158.4"/>
      <point x="1065.35" y="189.0"/>
      <point x="1149.25" y="229.35" type="curve"/>
    </contour>
  </outline>
</glyph>
<glyph name="trademark" format="1">
  <advance width="1711.65"/>
  <unicode hex="2122"/>
  <outline>
    <contour>
      <point x="797.4" y="597.55" type="line"/>
      <point x="918.2" y="597.55" type="line"/>
      <point x="918.2" y="1251.0" type="line"/>
      <point x="1157.4" y="653.05" type="line"/>
      <point x="1246.35" y="653.05" type="line"/>
      <point x="1500.5" y="1252.8" type="line"/>
      <point x="1500.5" y="597.55" type="line"/>
      <point x="1621.9" y="597.55" type="line"/>
      <point x="1621.9" y="1437.3" type="line"/>
      <point x="1466.5" y="1437.3" type="line"/>
      <point x="1209.05" y="823.1" type="line"/>
      <point x="962.85" y="1437.3" type="line"/>
      <point x="797.4" y="1437.3" type="line"/>
    </contour>
    <contour>
      <point x="322.9" y="597.55" type="line"/>
      <point x="446.05" y="597.55" type="line"/>
      <point x="446.05" y="1323.15" type="line"/>
      <point x="695.3" y="1323.15" type="line"/>
      <point x="695.3" y="1437.3" type="line"/>
      <point x="76.1" y="1437.3" type="line"/>
      <point x="76.2" y="1323.15" type="line"/>
      <point x="322.9" y="1323.15" type="line"/>
    </contour>
  </outline>
</glyph>
<glyph name="summation" format="1">
  <advance width="1207.05"/>
  <unicode hex="2211"/>
  <outline>
    <contour>
      <point x="80.05" y="-336.4" type="line"/>
      <point x="1166.65" y="-336.4" type="line"/>
      <point x="1166.65" y="-168.5" type="line"/>
      <point x="304.15" y="-168.5" type="line"/>
      <point x="885.65" y="576.7" type="line"/>
      <point x="328.25" y="1300.75" type="line"/>
      <point x="1127.45" y="1300.75" type="line"/>
      <point x="1127.45" y="1460.95" type="line"/>
      <point x="100.85" y="1460.95" type="line"/>
      <point x="100.85" y="1352.95" type="line"/>
      <point x="672.05" y="569.25" type="line"/>
      <point x="80.05" y="-232.6" type="line"/>
    </contour>
  </outline>
</glyph>
<glyph name="minus" format="1">
  <advance width="1181.6"/>
  <unicode hex="2212"/>
  <outline>
    <contour>
      <point x="98.85" y="498.65" type="line"/>
      <point x="1071.95" y="498.65" type="line"/>
      <point x="1071.95" y="654.3" type="line"/>
      <point x="98.85" y="654.3" type="line"/>
    </contour>
  </outline>
</glyph>
<glyph name="approxequal" format="1">
  <advance width="1209.05"/>
  <unicode hex="2248"/>
  <outline>
    <contour>
      <point x="122.7" y="498.45" type="line"/>
      <point x="156.45" y="652.05"/>
      <point x="248.85" y="750.15"/>
      <point x="401.45" y="750.15" type="curve" smooth="yes"/>
      <point x="489.95" y="750.15"/>
      <point x="574.8" y="710.6"/>
      <point x="653.45" y="667.65" type="curve"/>
      <point x="731.75" y="624.95"/>
      <point x="794.85" y="588.85"/>
      <point x="853.8" y="588.85" type="curve" smooth="yes"/>
      <point x="935.6" y="588.85"/>
      <point x="990.45" y="644.55"/>
      <point x="1035.4" y="750.15" type="curve"/>
      <point x="1129.75" y="698.0" type="line"/>
      <point x="1096.45" y="551.6"/>
      <point x="1010.0" y="446.65"/>
      <point x="847.25" y="446.65" type="curve" smooth="yes"/>
      <point x="764.15" y="446.65"/>
      <point x="686.5" y="479.0"/>
      <point x="580.8" y="539.85" type="curve"/>
      <point x="515.75" y="579.05"/>
      <point x="460.0" y="607.25"/>
      <point x="400.3" y="607.25" type="curve" smooth="yes"/>
      <point x="305.95" y="607.25"/>
      <point x="251.6" y="540.95"/>
      <point x="220.3" y="443.35" type="curve"/>
    </contour>
    <contour>
      <point x="120.9" y="459.75" type="line"/>
      <point x="154.75" y="611.55"/>
      <point x="250.3" y="710.65"/>
      <point x="402.45" y="710.65" type="curve" smooth="yes"/>
      <point x="487.9" y="710.65"/>
      <point x="566.45" y="675.5"/>
      <point x="653.25" y="626.1" type="curve"/>
      <point x="739.9" y="576.85"/>
      <point x="797.75" y="549.8"/>
      <point x="852.0" y="549.8" type="curve" smooth="yes"/>
      <point x="933.8" y="549.8"/>
      <point x="987.65" y="604.7"/>
      <point x="1033.7" y="710.65" type="curve"/>
      <point x="1128.4" y="659.75" type="line"/>
      <point x="1094.65" y="513.45"/>
      <point x="1006.5" y="408.95"/>
      <point x="846.9" y="408.95" type="curve" smooth="yes"/>
      <point x="761.1" y="408.95"/>
      <point x="684.9" y="441.2"/>
      <point x="579.45" y="502.95" type="curve"/>
      <point x="514.4" y="542.15"/>
      <point x="458.3" y="569.55"/>
      <point x="398.6" y="569.55" type="curve" smooth="yes"/>
      <point x="303.25" y="569.55"/>
      <point x="250.35" y="504.05"/>
      <point x="220.3" y="406.9" type="curve"/>
    </contour>
  </outline>
</glyph>
<glyph name="notequal" format="1">
  <advance width="1158.05"/>
  <unicode hex="2260"/>
  <outline>
    <contour>
      <point x="389.7" y="44.95" type="line"/>
      <point x="527.7" y="330.35" type="line"/>
      <point x="1069.95" y="330.35" type="line"/>
      <point x="1061.9" y="466.75" type="line"/>
      <point x="590.55" y="466.75" type="line"/>
      <point x="731.9" y="739.35" type="line"/>
      <point x="1069.95" y="739.35" type="line"/>
      <point x="1059.55" y="881.55" type="line"/>
      <point x="794.2" y="881.55" type="line"/>
      <point x="906.9" y="1137.3" type="line"/>
      <point x="782.85" y="1154.0" type="line"/>
      <point x="648.75" y="881.55" type="line"/>
      <point x="122.85" y="881.55" type="line"/>
      <point x="132.25" y="739.45" type="line"/>
      <point x="586.55" y="739.45" type="line"/>
      <point x="449.0" y="467.3" type="line"/>
      <point x="123.95" y="467.3" type="line"/>
      <point x="132.25" y="330.35" type="line"/>
      <point x="382.0" y="330.35" type="line"/>
      <point x="267.65" y="65.55" type="line"/>
    </contour>
  </outline>
</glyph>
<glyph name="lessequal" format="1">
  <advance width="1141.5"/>
  <unicode hex="2264"/>
  <outline>
    <contour>
      <point x="1028.8" y="263.3" type="line"/>
      <point x="1028.8" y="425.15" type="line"/>
      <point x="354.15" y="753.2" type="line"/>
      <point x="1028.8" y="1099.4" type="line"/>
      <point x="1028.8" y="1259.75" type="line"/>
      <point x="147.9" y="799.7" type="line"/>
      <point x="147.9" y="704.8" type="line"/>
    </contour>
    <contour>
      <point x="123.0" y="1.1" type="line"/>
      <point x="1049.65" y="1.1" type="line"/>
      <point x="1049.65" y="135.5" type="line"/>
      <point x="123.0" y="135.5" type="line"/>
    </contour>
  </outline>
</glyph>
